SplineFontDB: 3.2
FontName: LondonUnderground
FullName: London Underground
FamilyName: London Underground
Weight: Regular
Copyright: Copyright (c) 2019, Sean Petykowski
UComments: "2019-12-18: Created with FontForge (http://fontforge.org)"
Version: 001.000
ItalicAngle: 0
UnderlinePosition: -100
UnderlineWidth: 50
Ascent: 800
Descent: 200
InvalidEm: 0
LayerCount: 2
Layer: 0 0 "Back" 1
Layer: 1 0 "Fore" 0
XUID: [1021 293 -277398037 6718184]
StyleMap: 0x0000
FSType: 0
OS2Version: 0
OS2_WeightWidthSlopeOnly: 0
OS2_UseTypoMetrics: 1
CreationTime: 1576711909
ModificationTime: 1578150932
PfmFamily: 17
TTFWeight: 400
TTFWidth: 5
LineGap: 90
VLineGap: 0
OS2TypoAscent: 0
OS2TypoAOffset: 1
OS2TypoDescent: 0
OS2TypoDOffset: 1
OS2TypoLinegap: 90
OS2WinAscent: 0
OS2WinAOffset: 1
OS2WinDescent: 0
OS2WinDOffset: 1
HheadAscent: 0
HheadAOffset: 1
HheadDescent: 0
HheadDOffset: 1
OS2Vendor: 'PfEd'
MarkAttachClasses: 1
DEI: 91125
LangName: 1033
Encoding: ISO8859-1
UnicodeInterp: none
NameList: AGL For New Fonts
DisplaySize: -48
AntiAlias: 1
FitToEm: 0
WinInfo: 0 23 8
BeginPrivate: 0
EndPrivate
TeXData: 1 0 0 581959 290979 193986 605843 1048576 193986 783286 444596 497025 792723 393216 433062 380633 303038 157286 324010 404750 52429 2506097 1059062 262144
BeginChars: 256 67

StartChar: E
Encoding: 69 69 0
Width: 777
VWidth: 0
Flags: HW
LayerCount: 2
Fore
SplineSet
111.111328125 833.244140625 m 0
 111.111328125 863.926757812 135.984375 888.799804688 166.666992188 888.799804688 c 0
 197.349609375 888.799804688 222.22265625 863.926757812 222.22265625 833.244140625 c 0
 222.22265625 802.561523438 197.349609375 777.688476562 166.666992188 777.688476562 c 0
 135.984375 777.688476562 111.111328125 802.561523438 111.111328125 833.244140625 c 0
0 833.244140625 m 0
 0 863.926757812 24.873046875 888.799804688 55.5556640625 888.799804688 c 0
 86.23828125 888.799804688 111.111328125 863.926757812 111.111328125 833.244140625 c 0
 111.111328125 802.561523438 86.23828125 777.688476562 55.5556640625 777.688476562 c 0
 24.873046875 777.688476562 0 802.561523438 0 833.244140625 c 0
0 722.1328125 m 0
 0 752.815429688 24.873046875 777.688476562 55.5556640625 777.688476562 c 0
 86.23828125 777.688476562 111.111328125 752.815429688 111.111328125 722.1328125 c 0
 111.111328125 691.450195312 86.23828125 666.577148438 55.5556640625 666.577148438 c 0
 24.873046875 666.577148438 0 691.450195312 0 722.1328125 c 0
0 611.022460938 m 0
 0 641.704101562 24.873046875 666.577148438 55.5556640625 666.577148438 c 0
 86.23828125 666.577148438 111.111328125 641.704101562 111.111328125 611.022460938 c 0
 111.111328125 580.33984375 86.23828125 555.466796875 55.5556640625 555.466796875 c 0
 24.873046875 555.466796875 0 580.33984375 0 611.022460938 c 0
0 499.911132812 m 0
 0 530.59375 24.873046875 555.466796875 55.5556640625 555.466796875 c 0
 86.23828125 555.466796875 111.111328125 530.59375 111.111328125 499.911132812 c 0
 111.111328125 469.228515625 86.23828125 444.35546875 55.5556640625 444.35546875 c 0
 24.873046875 444.35546875 0 469.228515625 0 499.911132812 c 0
0 277.688476562 m 0
 0 308.37109375 24.873046875 333.244140625 55.5556640625 333.244140625 c 0
 86.23828125 333.244140625 111.111328125 308.37109375 111.111328125 277.688476562 c 0
 111.111328125 247.005859375 86.23828125 222.1328125 55.5556640625 222.1328125 c 0
 24.873046875 222.1328125 0 247.005859375 0 277.688476562 c 0
0 166.577148438 m 0
 0 197.259765625 24.873046875 222.1328125 55.5556640625 222.1328125 c 0
 86.23828125 222.1328125 111.111328125 197.259765625 111.111328125 166.577148438 c 0
 111.111328125 135.895507812 86.23828125 111.022460938 55.5556640625 111.022460938 c 0
 24.873046875 111.022460938 0 135.895507812 0 166.577148438 c 0
0 55.466796875 m 0
 0 86.1494140625 24.873046875 111.022460938 55.5556640625 111.022460938 c 0
 86.23828125 111.022460938 111.111328125 86.1494140625 111.111328125 55.466796875 c 0
 111.111328125 24.7841796875 86.23828125 -0.0888671875 55.5556640625 -0.0888671875 c 0
 24.873046875 -0.0888671875 0 24.7841796875 0 55.466796875 c 0
222.22265625 833.244140625 m 0
 222.22265625 863.926757812 247.095703125 888.799804688 277.77734375 888.799804688 c 0
 308.459960938 888.799804688 333.333007812 863.926757812 333.333007812 833.244140625 c 0
 333.333007812 802.561523438 308.459960938 777.688476562 277.77734375 777.688476562 c 0
 247.095703125 777.688476562 222.22265625 802.561523438 222.22265625 833.244140625 c 0
333.333007812 833.244140625 m 0
 333.333007812 863.926757812 358.206054688 888.799804688 388.888671875 888.799804688 c 0
 419.571289062 888.799804688 444.444335938 863.926757812 444.444335938 833.244140625 c 0
 444.444335938 802.561523438 419.571289062 777.688476562 388.888671875 777.688476562 c 0
 358.206054688 777.688476562 333.333007812 802.561523438 333.333007812 833.244140625 c 0
444.444335938 833.244140625 m 0
 444.444335938 863.926757812 469.317382812 888.799804688 500 888.799804688 c 0
 530.682617188 888.799804688 555.555664062 863.926757812 555.555664062 833.244140625 c 0
 555.555664062 802.561523438 530.682617188 777.688476562 500 777.688476562 c 0
 469.317382812 777.688476562 444.444335938 802.561523438 444.444335938 833.244140625 c 0
555.555664062 833.244140625 m 0
 555.555664062 863.926757812 580.428710938 888.799804688 611.111328125 888.799804688 c 0
 641.793945312 888.799804688 666.666992188 863.926757812 666.666992188 833.244140625 c 0
 666.666992188 802.561523438 641.793945312 777.688476562 611.111328125 777.688476562 c 0
 580.428710938 777.688476562 555.555664062 802.561523438 555.555664062 833.244140625 c 0
111.111328125 388.799804688 m 0
 111.111328125 419.482421875 135.984375 444.35546875 166.666992188 444.35546875 c 0
 197.349609375 444.35546875 222.22265625 419.482421875 222.22265625 388.799804688 c 0
 222.22265625 358.1171875 197.349609375 333.244140625 166.666992188 333.244140625 c 0
 135.984375 333.244140625 111.111328125 358.1171875 111.111328125 388.799804688 c 0
0 388.799804688 m 0
 0 419.482421875 24.873046875 444.35546875 55.5556640625 444.35546875 c 0
 86.23828125 444.35546875 111.111328125 419.482421875 111.111328125 388.799804688 c 0
 111.111328125 358.1171875 86.23828125 333.244140625 55.5556640625 333.244140625 c 0
 24.873046875 333.244140625 0 358.1171875 0 388.799804688 c 0
222.22265625 388.799804688 m 0
 222.22265625 419.482421875 247.095703125 444.35546875 277.77734375 444.35546875 c 0
 308.459960938 444.35546875 333.333007812 419.482421875 333.333007812 388.799804688 c 0
 333.333007812 358.1171875 308.459960938 333.244140625 277.77734375 333.244140625 c 0
 247.095703125 333.244140625 222.22265625 358.1171875 222.22265625 388.799804688 c 0
333.333007812 388.799804688 m 0
 333.333007812 419.482421875 358.206054688 444.35546875 388.888671875 444.35546875 c 0
 419.571289062 444.35546875 444.444335938 419.482421875 444.444335938 388.799804688 c 0
 444.444335938 358.1171875 419.571289062 333.244140625 388.888671875 333.244140625 c 0
 358.206054688 333.244140625 333.333007812 358.1171875 333.333007812 388.799804688 c 0
444.444335938 388.799804688 m 0
 444.444335938 419.482421875 469.317382812 444.35546875 500 444.35546875 c 0
 530.682617188 444.35546875 555.555664062 419.482421875 555.555664062 388.799804688 c 0
 555.555664062 358.1171875 530.682617188 333.244140625 500 333.244140625 c 0
 469.317382812 333.244140625 444.444335938 358.1171875 444.444335938 388.799804688 c 0
555.555664062 388.799804688 m 0
 555.555664062 419.482421875 580.428710938 444.35546875 611.111328125 444.35546875 c 0
 641.793945312 444.35546875 666.666992188 419.482421875 666.666992188 388.799804688 c 0
 666.666992188 358.1171875 641.793945312 333.244140625 611.111328125 333.244140625 c 0
 580.428710938 333.244140625 555.555664062 358.1171875 555.555664062 388.799804688 c 0
111.111328125 -55.64453125 m 0
 111.111328125 -24.9619140625 135.984375 -0.0888671875 166.666992188 -0.0888671875 c 0
 197.349609375 -0.0888671875 222.22265625 -24.9619140625 222.22265625 -55.64453125 c 0
 222.22265625 -86.3271484375 197.349609375 -111.200195312 166.666992188 -111.200195312 c 0
 135.984375 -111.200195312 111.111328125 -86.3271484375 111.111328125 -55.64453125 c 0
0 -55.64453125 m 0
 0 -24.9619140625 24.873046875 -0.0888671875 55.5556640625 -0.0888671875 c 0
 86.23828125 -0.0888671875 111.111328125 -24.9619140625 111.111328125 -55.64453125 c 0
 111.111328125 -86.3271484375 86.23828125 -111.200195312 55.5556640625 -111.200195312 c 0
 24.873046875 -111.200195312 0 -86.3271484375 0 -55.64453125 c 0
222.22265625 -55.64453125 m 0
 222.22265625 -24.9619140625 247.095703125 -0.0888671875 277.77734375 -0.0888671875 c 0
 308.459960938 -0.0888671875 333.333007812 -24.9619140625 333.333007812 -55.64453125 c 0
 333.333007812 -86.3271484375 308.459960938 -111.200195312 277.77734375 -111.200195312 c 0
 247.095703125 -111.200195312 222.22265625 -86.3271484375 222.22265625 -55.64453125 c 0
333.333007812 -55.64453125 m 0
 333.333007812 -24.9619140625 358.206054688 -0.0888671875 388.888671875 -0.0888671875 c 0
 419.571289062 -0.0888671875 444.444335938 -24.9619140625 444.444335938 -55.64453125 c 0
 444.444335938 -86.3271484375 419.571289062 -111.200195312 388.888671875 -111.200195312 c 0
 358.206054688 -111.200195312 333.333007812 -86.3271484375 333.333007812 -55.64453125 c 0
444.444335938 -55.64453125 m 0
 444.444335938 -24.9619140625 469.317382812 -0.0888671875 500 -0.0888671875 c 0
 530.682617188 -0.0888671875 555.555664062 -24.9619140625 555.555664062 -55.64453125 c 0
 555.555664062 -86.3271484375 530.682617188 -111.200195312 500 -111.200195312 c 0
 469.317382812 -111.200195312 444.444335938 -86.3271484375 444.444335938 -55.64453125 c 0
555.555664062 -55.64453125 m 0
 555.555664062 -24.9619140625 580.428710938 -0.0888671875 611.111328125 -0.0888671875 c 0
 641.793945312 -0.0888671875 666.666992188 -24.9619140625 666.666992188 -55.64453125 c 0
 666.666992188 -86.3271484375 641.793945312 -111.200195312 611.111328125 -111.200195312 c 0
 580.428710938 -111.200195312 555.555664062 -86.3271484375 555.555664062 -55.64453125 c 0
EndSplineSet
Validated: 5
EndChar

StartChar: B
Encoding: 66 66 1
Width: 777
VWidth: 0
Flags: HW
LayerCount: 2
Fore
SplineSet
0 833.244140625 m 0
 0 863.926757812 24.873046875 888.799804688 55.5556640625 888.799804688 c 0
 86.23828125 888.799804688 111.111328125 863.926757812 111.111328125 833.244140625 c 0
 111.111328125 802.561523438 86.23828125 777.688476562 55.5556640625 777.688476562 c 0
 24.873046875 777.688476562 0 802.561523438 0 833.244140625 c 0
0 722.1328125 m 0
 0 752.815429688 24.873046875 777.688476562 55.5556640625 777.688476562 c 0
 86.23828125 777.688476562 111.111328125 752.815429688 111.111328125 722.1328125 c 0
 111.111328125 691.450195312 86.23828125 666.577148438 55.5556640625 666.577148438 c 0
 24.873046875 666.577148438 0 691.450195312 0 722.1328125 c 0
0 499.911132812 m 0
 0 530.59375 24.873046875 555.466796875 55.5556640625 555.466796875 c 0
 86.23828125 555.466796875 111.111328125 530.59375 111.111328125 499.911132812 c 0
 111.111328125 469.228515625 86.23828125 444.35546875 55.5556640625 444.35546875 c 0
 24.873046875 444.35546875 0 469.228515625 0 499.911132812 c 0
0 388.799804688 m 0
 0 419.482421875 24.873046875 444.35546875 55.5556640625 444.35546875 c 0
 86.23828125 444.35546875 111.111328125 419.482421875 111.111328125 388.799804688 c 0
 111.111328125 358.1171875 86.23828125 333.244140625 55.5556640625 333.244140625 c 0
 24.873046875 333.244140625 0 358.1171875 0 388.799804688 c 0
0 277.688476562 m 0
 0 308.37109375 24.873046875 333.244140625 55.5556640625 333.244140625 c 0
 86.23828125 333.244140625 111.111328125 308.37109375 111.111328125 277.688476562 c 0
 111.111328125 247.005859375 86.23828125 222.1328125 55.5556640625 222.1328125 c 0
 24.873046875 222.1328125 0 247.005859375 0 277.688476562 c 0
0 166.577148438 m 0
 0 197.259765625 24.873046875 222.1328125 55.5556640625 222.1328125 c 0
 86.23828125 222.1328125 111.111328125 197.259765625 111.111328125 166.577148438 c 0
 111.111328125 135.895507812 86.23828125 111.022460938 55.5556640625 111.022460938 c 0
 24.873046875 111.022460938 0 135.895507812 0 166.577148438 c 0
0 55.466796875 m 0
 0 86.1494140625 24.873046875 111.022460938 55.5556640625 111.022460938 c 0
 86.23828125 111.022460938 111.111328125 86.1494140625 111.111328125 55.466796875 c 0
 111.111328125 24.7841796875 86.23828125 -0.0888671875 55.5556640625 -0.0888671875 c 0
 24.873046875 -0.0888671875 0 24.7841796875 0 55.466796875 c 0
0 -55.64453125 m 0
 0 -24.9619140625 24.873046875 -0.0888671875 55.5556640625 -0.0888671875 c 0
 86.23828125 -0.0888671875 111.111328125 -24.9619140625 111.111328125 -55.64453125 c 0
 111.111328125 -86.3271484375 86.23828125 -111.200195312 55.5556640625 -111.200195312 c 0
 24.873046875 -111.200195312 0 -86.3271484375 0 -55.64453125 c 0
111.111328125 -55.64453125 m 0
 111.111328125 -24.9619140625 135.984375 -0.0888671875 166.666992188 -0.0888671875 c 0
 197.349609375 -0.0888671875 222.22265625 -24.9619140625 222.22265625 -55.64453125 c 0
 222.22265625 -86.3271484375 197.349609375 -111.200195312 166.666992188 -111.200195312 c 0
 135.984375 -111.200195312 111.111328125 -86.3271484375 111.111328125 -55.64453125 c 0
222.22265625 -55.64453125 m 0
 222.22265625 -24.9619140625 247.095703125 -0.0888671875 277.77734375 -0.0888671875 c 0
 308.459960938 -0.0888671875 333.333007812 -24.9619140625 333.333007812 -55.64453125 c 0
 333.333007812 -86.3271484375 308.459960938 -111.200195312 277.77734375 -111.200195312 c 0
 247.095703125 -111.200195312 222.22265625 -86.3271484375 222.22265625 -55.64453125 c 0
333.333007812 -55.64453125 m 0
 333.333007812 -24.9619140625 358.206054688 -0.0888671875 388.888671875 -0.0888671875 c 0
 419.571289062 -0.0888671875 444.444335938 -24.9619140625 444.444335938 -55.64453125 c 0
 444.444335938 -86.3271484375 419.571289062 -111.200195312 388.888671875 -111.200195312 c 0
 358.206054688 -111.200195312 333.333007812 -86.3271484375 333.333007812 -55.64453125 c 0
444.444335938 -55.64453125 m 0
 444.444335938 -24.9619140625 469.317382812 -0.0888671875 500 -0.0888671875 c 0
 530.682617188 -0.0888671875 555.555664062 -24.9619140625 555.555664062 -55.64453125 c 0
 555.555664062 -86.3271484375 530.682617188 -111.200195312 500 -111.200195312 c 0
 469.317382812 -111.200195312 444.444335938 -86.3271484375 444.444335938 -55.64453125 c 0
555.555664062 55.466796875 m 0
 555.555664062 86.1494140625 580.428710938 111.022460938 611.111328125 111.022460938 c 0
 641.793945312 111.022460938 666.666992188 86.1494140625 666.666992188 55.466796875 c 0
 666.666992188 24.7841796875 641.793945312 -0.0888671875 611.111328125 -0.0888671875 c 0
 580.428710938 -0.0888671875 555.555664062 24.7841796875 555.555664062 55.466796875 c 0
555.555664062 166.577148438 m 0
 555.555664062 197.259765625 580.428710938 222.1328125 611.111328125 222.1328125 c 0
 641.793945312 222.1328125 666.666992188 197.259765625 666.666992188 166.577148438 c 0
 666.666992188 135.895507812 641.793945312 111.022460938 611.111328125 111.022460938 c 0
 580.428710938 111.022460938 555.555664062 135.895507812 555.555664062 166.577148438 c 0
555.555664062 277.688476562 m 0
 555.555664062 308.37109375 580.428710938 333.244140625 611.111328125 333.244140625 c 0
 641.793945312 333.244140625 666.666992188 308.37109375 666.666992188 277.688476562 c 0
 666.666992188 247.005859375 641.793945312 222.1328125 611.111328125 222.1328125 c 0
 580.428710938 222.1328125 555.555664062 247.005859375 555.555664062 277.688476562 c 0
555.555664062 499.911132812 m 0
 555.555664062 530.59375 580.428710938 555.466796875 611.111328125 555.466796875 c 0
 641.793945312 555.466796875 666.666992188 530.59375 666.666992188 499.911132812 c 0
 666.666992188 469.228515625 641.793945312 444.35546875 611.111328125 444.35546875 c 0
 580.428710938 444.35546875 555.555664062 469.228515625 555.555664062 499.911132812 c 0
555.555664062 611.022460938 m 0
 555.555664062 641.704101562 580.428710938 666.577148438 611.111328125 666.577148438 c 0
 641.793945312 666.577148438 666.666992188 641.704101562 666.666992188 611.022460938 c 0
 666.666992188 580.33984375 641.793945312 555.466796875 611.111328125 555.466796875 c 0
 580.428710938 555.466796875 555.555664062 580.33984375 555.555664062 611.022460938 c 0
555.555664062 722.1328125 m 0
 555.555664062 752.815429688 580.428710938 777.688476562 611.111328125 777.688476562 c 0
 641.793945312 777.688476562 666.666992188 752.815429688 666.666992188 722.1328125 c 0
 666.666992188 691.450195312 641.793945312 666.577148438 611.111328125 666.577148438 c 0
 580.428710938 666.577148438 555.555664062 691.450195312 555.555664062 722.1328125 c 0
444.444335938 833.244140625 m 0
 444.444335938 863.926757812 469.317382812 888.799804688 500 888.799804688 c 0
 530.682617188 888.799804688 555.555664062 863.926757812 555.555664062 833.244140625 c 0
 555.555664062 802.561523438 530.682617188 777.688476562 500 777.688476562 c 0
 469.317382812 777.688476562 444.444335938 802.561523438 444.444335938 833.244140625 c 0
333.333007812 833.244140625 m 0
 333.333007812 863.926757812 358.206054688 888.799804688 388.888671875 888.799804688 c 0
 419.571289062 888.799804688 444.444335938 863.926757812 444.444335938 833.244140625 c 0
 444.444335938 802.561523438 419.571289062 777.688476562 388.888671875 777.688476562 c 0
 358.206054688 777.688476562 333.333007812 802.561523438 333.333007812 833.244140625 c 0
222.22265625 833.244140625 m 0
 222.22265625 863.926757812 247.095703125 888.799804688 277.77734375 888.799804688 c 0
 308.459960938 888.799804688 333.333007812 863.926757812 333.333007812 833.244140625 c 0
 333.333007812 802.561523438 308.459960938 777.688476562 277.77734375 777.688476562 c 0
 247.095703125 777.688476562 222.22265625 802.561523438 222.22265625 833.244140625 c 0
111.111328125 833.244140625 m 0
 111.111328125 863.926757812 135.984375 888.799804688 166.666992188 888.799804688 c 0
 197.349609375 888.799804688 222.22265625 863.926757812 222.22265625 833.244140625 c 0
 222.22265625 802.561523438 197.349609375 777.688476562 166.666992188 777.688476562 c 4
 135.984375 777.688476562 111.111328125 802.561523438 111.111328125 833.244140625 c 0
111.111328125 388.799804688 m 0
 111.111328125 419.482421875 135.984375 444.35546875 166.666992188 444.35546875 c 0
 197.349609375 444.35546875 222.22265625 419.482421875 222.22265625 388.799804688 c 0
 222.22265625 358.1171875 197.349609375 333.244140625 166.666992188 333.244140625 c 0
 135.984375 333.244140625 111.111328125 358.1171875 111.111328125 388.799804688 c 0
222.22265625 388.799804688 m 0
 222.22265625 419.482421875 247.095703125 444.35546875 277.77734375 444.35546875 c 0
 308.459960938 444.35546875 333.333007812 419.482421875 333.333007812 388.799804688 c 0
 333.333007812 358.1171875 308.459960938 333.244140625 277.77734375 333.244140625 c 0
 247.095703125 333.244140625 222.22265625 358.1171875 222.22265625 388.799804688 c 0
333.333007812 388.799804688 m 0
 333.333007812 419.482421875 358.206054688 444.35546875 388.888671875 444.35546875 c 0
 419.571289062 444.35546875 444.444335938 419.482421875 444.444335938 388.799804688 c 0
 444.444335938 358.1171875 419.571289062 333.244140625 388.888671875 333.244140625 c 0
 358.206054688 333.244140625 333.333007812 358.1171875 333.333007812 388.799804688 c 0
444.444335938 388.799804688 m 0
 444.444335938 419.482421875 469.317382812 444.35546875 500 444.35546875 c 0
 530.682617188 444.35546875 555.555664062 419.482421875 555.555664062 388.799804688 c 0
 555.555664062 358.1171875 530.682617188 333.244140625 500 333.244140625 c 0
 469.317382812 333.244140625 444.444335938 358.1171875 444.444335938 388.799804688 c 0
0 611.022460938 m 0
 0 641.704101562 24.873046875 666.577148438 55.5556640625 666.577148438 c 0
 86.23828125 666.577148438 111.111328125 641.704101562 111.111328125 611.022460938 c 0
 111.111328125 580.33984375 86.23828125 555.466796875 55.5556640625 555.466796875 c 0
 24.873046875 555.466796875 0 580.33984375 0 611.022460938 c 0
EndSplineSet
Validated: 5
EndChar

StartChar: R
Encoding: 82 82 2
Width: 777
VWidth: 0
Flags: HW
LayerCount: 2
Fore
SplineSet
0 833.333007812 m 0
 0 864.015625 24.873046875 888.888671875 55.5556640625 888.888671875 c 0
 86.23828125 888.888671875 111.111328125 864.015625 111.111328125 833.333007812 c 0
 111.111328125 802.650390625 86.23828125 777.77734375 55.5556640625 777.77734375 c 0
 24.873046875 777.77734375 0 802.650390625 0 833.333007812 c 0
111.111328125 833.333007812 m 0
 111.111328125 864.015625 135.984375 888.888671875 166.666992188 888.888671875 c 0
 197.349609375 888.888671875 222.22265625 864.015625 222.22265625 833.333007812 c 0
 222.22265625 802.650390625 197.349609375 777.77734375 166.666992188 777.77734375 c 0
 135.984375 777.77734375 111.111328125 802.650390625 111.111328125 833.333007812 c 0
222.22265625 833.333007812 m 0
 222.22265625 864.015625 247.095703125 888.888671875 277.77734375 888.888671875 c 0
 308.459960938 888.888671875 333.333007812 864.015625 333.333007812 833.333007812 c 0
 333.333007812 802.650390625 308.459960938 777.77734375 277.77734375 777.77734375 c 0
 247.095703125 777.77734375 222.22265625 802.650390625 222.22265625 833.333007812 c 0
333.333007812 833.333007812 m 0
 333.333007812 864.015625 358.206054688 888.888671875 388.888671875 888.888671875 c 0
 419.571289062 888.888671875 444.444335938 864.015625 444.444335938 833.333007812 c 0
 444.444335938 802.650390625 419.571289062 777.77734375 388.888671875 777.77734375 c 0
 358.206054688 777.77734375 333.333007812 802.650390625 333.333007812 833.333007812 c 0
444.444335938 833.333007812 m 0
 444.444335938 864.015625 469.317382812 888.888671875 500 888.888671875 c 0
 530.682617188 888.888671875 555.555664062 864.015625 555.555664062 833.333007812 c 0
 555.555664062 802.650390625 530.682617188 777.77734375 500 777.77734375 c 0
 469.317382812 777.77734375 444.444335938 802.650390625 444.444335938 833.333007812 c 0
555.555664062 722.221679688 m 0
 555.555664062 752.904296875 580.428710938 777.77734375 611.111328125 777.77734375 c 0
 641.793945312 777.77734375 666.666992188 752.904296875 666.666992188 722.221679688 c 0
 666.666992188 691.5390625 641.793945312 666.666015625 611.111328125 666.666015625 c 0
 580.428710938 666.666015625 555.555664062 691.5390625 555.555664062 722.221679688 c 0
555.555664062 611.111328125 m 0
 555.555664062 641.79296875 580.428710938 666.666015625 611.111328125 666.666015625 c 0
 641.793945312 666.666015625 666.666992188 641.79296875 666.666992188 611.111328125 c 0
 666.666992188 580.428710938 641.793945312 555.555664062 611.111328125 555.555664062 c 0
 580.428710938 555.555664062 555.555664062 580.428710938 555.555664062 611.111328125 c 0
555.555664062 500 m 0
 555.555664062 530.682617188 580.428710938 555.555664062 611.111328125 555.555664062 c 0
 641.793945312 555.555664062 666.666992188 530.682617188 666.666992188 500 c 0
 666.666992188 469.317382812 641.793945312 444.444335938 611.111328125 444.444335938 c 0
 580.428710938 444.444335938 555.555664062 469.317382812 555.555664062 500 c 0
0 500 m 0
 0 530.682617188 24.873046875 555.555664062 55.5556640625 555.555664062 c 0
 86.23828125 555.555664062 111.111328125 530.682617188 111.111328125 500 c 0
 111.111328125 469.317382812 86.23828125 444.444335938 55.5556640625 444.444335938 c 0
 24.873046875 444.444335938 0 469.317382812 0 500 c 0
0 611.111328125 m 0
 0 641.79296875 24.873046875 666.666015625 55.5556640625 666.666015625 c 0
 86.23828125 666.666015625 111.111328125 641.79296875 111.111328125 611.111328125 c 0
 111.111328125 580.428710938 86.23828125 555.555664062 55.5556640625 555.555664062 c 0
 24.873046875 555.555664062 0 580.428710938 0 611.111328125 c 0
0 722.221679688 m 0
 0 752.904296875 24.873046875 777.77734375 55.5556640625 777.77734375 c 0
 86.23828125 777.77734375 111.111328125 752.904296875 111.111328125 722.221679688 c 0
 111.111328125 691.5390625 86.23828125 666.666015625 55.5556640625 666.666015625 c 0
 24.873046875 666.666015625 0 691.5390625 0 722.221679688 c 0
0 388.888671875 m 0
 0 419.571289062 24.873046875 444.444335938 55.5556640625 444.444335938 c 0
 86.23828125 444.444335938 111.111328125 419.571289062 111.111328125 388.888671875 c 0
 111.111328125 358.206054688 86.23828125 333.333007812 55.5556640625 333.333007812 c 0
 24.873046875 333.333007812 0 358.206054688 0 388.888671875 c 0
0 277.77734375 m 0
 0 308.459960938 24.873046875 333.333007812 55.5556640625 333.333007812 c 0
 86.23828125 333.333007812 111.111328125 308.459960938 111.111328125 277.77734375 c 0
 111.111328125 247.094726562 86.23828125 222.221679688 55.5556640625 222.221679688 c 0
 24.873046875 222.221679688 0 247.094726562 0 277.77734375 c 0
0 166.666015625 m 0
 0 197.348632812 24.873046875 222.221679688 55.5556640625 222.221679688 c 0
 86.23828125 222.221679688 111.111328125 197.348632812 111.111328125 166.666015625 c 0
 111.111328125 135.984375 86.23828125 111.111328125 55.5556640625 111.111328125 c 0
 24.873046875 111.111328125 0 135.984375 0 166.666015625 c 0
0 55.5556640625 m 0
 0 86.23828125 24.873046875 111.111328125 55.5556640625 111.111328125 c 0
 86.23828125 111.111328125 111.111328125 86.23828125 111.111328125 55.5556640625 c 0
 111.111328125 24.873046875 86.23828125 0 55.5556640625 0 c 4
 24.873046875 0 0 24.873046875 0 55.5556640625 c 0
0 -55.5556640625 m 0
 0 -24.873046875 24.873046875 0 55.5556640625 0 c 0
 86.23828125 0 111.111328125 -24.873046875 111.111328125 -55.5556640625 c 0
 111.111328125 -86.23828125 86.23828125 -111.111328125 55.5556640625 -111.111328125 c 0
 24.873046875 -111.111328125 0 -86.23828125 0 -55.5556640625 c 0
555.555664062 -55.5556640625 m 0
 555.555664062 -24.873046875 580.428710938 0 611.111328125 0 c 0
 641.793945312 0 666.666992188 -24.873046875 666.666992188 -55.5556640625 c 0
 666.666992188 -86.23828125 641.793945312 -111.111328125 611.111328125 -111.111328125 c 0
 580.428710938 -111.111328125 555.555664062 -86.23828125 555.555664062 -55.5556640625 c 0
444.444335938 55.5556640625 m 0
 444.444335938 86.23828125 469.317382812 111.111328125 500 111.111328125 c 0
 530.682617188 111.111328125 555.555664062 86.23828125 555.555664062 55.5556640625 c 0
 555.555664062 24.873046875 530.682617188 0 500 0 c 0
 469.317382812 0 444.444335938 24.873046875 444.444335938 55.5556640625 c 0
333.333007812 166.666015625 m 0
 333.333007812 197.348632812 358.206054688 222.221679688 388.888671875 222.221679688 c 0
 419.571289062 222.221679688 444.444335938 197.348632812 444.444335938 166.666015625 c 0
 444.444335938 135.984375 419.571289062 111.111328125 388.888671875 111.111328125 c 0
 358.206054688 111.111328125 333.333007812 135.984375 333.333007812 166.666015625 c 0
222.22265625 277.77734375 m 0
 222.22265625 308.459960938 247.095703125 333.333007812 277.77734375 333.333007812 c 0
 308.459960938 333.333007812 333.333007812 308.459960938 333.333007812 277.77734375 c 0
 333.333007812 247.094726562 308.459960938 222.221679688 277.77734375 222.221679688 c 0
 247.095703125 222.221679688 222.22265625 247.094726562 222.22265625 277.77734375 c 0
111.111328125 388.888671875 m 0
 111.111328125 419.571289062 135.984375 444.444335938 166.666992188 444.444335938 c 0
 197.349609375 444.444335938 222.22265625 419.571289062 222.22265625 388.888671875 c 0
 222.22265625 358.206054688 197.349609375 333.333007812 166.666992188 333.333007812 c 0
 135.984375 333.333007812 111.111328125 358.206054688 111.111328125 388.888671875 c 0
222.22265625 388.888671875 m 0
 222.22265625 419.571289062 247.095703125 444.444335938 277.77734375 444.444335938 c 0
 308.459960938 444.444335938 333.333007812 419.571289062 333.333007812 388.888671875 c 0
 333.333007812 358.206054688 308.459960938 333.333007812 277.77734375 333.333007812 c 0
 247.095703125 333.333007812 222.22265625 358.206054688 222.22265625 388.888671875 c 0
333.333007812 388.888671875 m 0
 333.333007812 419.571289062 358.206054688 444.444335938 388.888671875 444.444335938 c 0
 419.571289062 444.444335938 444.444335938 419.571289062 444.444335938 388.888671875 c 0
 444.444335938 358.206054688 419.571289062 333.333007812 388.888671875 333.333007812 c 0
 358.206054688 333.333007812 333.333007812 358.206054688 333.333007812 388.888671875 c 0
444.444335938 388.888671875 m 0
 444.444335938 419.571289062 469.317382812 444.444335938 500 444.444335938 c 0
 530.682617188 444.444335938 555.555664062 419.571289062 555.555664062 388.888671875 c 0
 555.555664062 358.206054688 530.682617188 333.333007812 500 333.333007812 c 0
 469.317382812 333.333007812 444.444335938 358.206054688 444.444335938 388.888671875 c 0
EndSplineSet
Validated: 5
EndChar

StartChar: r
Encoding: 114 114 3
Width: 555
VWidth: 0
Flags: HW
LayerCount: 2
Fore
SplineSet
0 55.466796875 m 0
 0 86.1494140625 24.873046875 111.022460938 55.5556640625 111.022460938 c 0
 86.23828125 111.022460938 111.111328125 86.1494140625 111.111328125 55.466796875 c 0
 111.111328125 24.7841796875 86.23828125 -0.0888671875 55.5556640625 -0.0888671875 c 0
 24.873046875 -0.0888671875 0 24.7841796875 0 55.466796875 c 0
0 166.577148438 m 0
 0 197.259765625 24.873046875 222.1328125 55.5556640625 222.1328125 c 0
 86.23828125 222.1328125 111.111328125 197.259765625 111.111328125 166.577148438 c 0
 111.111328125 135.895507812 86.23828125 111.022460938 55.5556640625 111.022460938 c 0
 24.873046875 111.022460938 0 135.895507812 0 166.577148438 c 0
0 277.688476562 m 0
 0 308.37109375 24.873046875 333.244140625 55.5556640625 333.244140625 c 0
 86.23828125 333.244140625 111.111328125 308.37109375 111.111328125 277.688476562 c 0
 111.111328125 247.005859375 86.23828125 222.1328125 55.5556640625 222.1328125 c 0
 24.873046875 222.1328125 0 247.005859375 0 277.688476562 c 0
0 388.799804688 m 0
 0 419.482421875 24.873046875 444.35546875 55.5556640625 444.35546875 c 0
 86.23828125 444.35546875 111.111328125 419.482421875 111.111328125 388.799804688 c 0
 111.111328125 358.1171875 86.23828125 333.244140625 55.5556640625 333.244140625 c 0
 24.873046875 333.244140625 0 358.1171875 0 388.799804688 c 0
0 499.911132812 m 0
 0 530.59375 24.873046875 555.466796875 55.5556640625 555.466796875 c 0
 86.23828125 555.466796875 111.111328125 530.59375 111.111328125 499.911132812 c 0
 111.111328125 469.228515625 86.23828125 444.35546875 55.5556640625 444.35546875 c 0
 24.873046875 444.35546875 0 469.228515625 0 499.911132812 c 0
111.111328125 499.911132812 m 0
 111.111328125 530.59375 135.984375 555.466796875 166.666992188 555.466796875 c 0
 197.349609375 555.466796875 222.22265625 530.59375 222.22265625 499.911132812 c 0
 222.22265625 469.228515625 197.349609375 444.35546875 166.666992188 444.35546875 c 0
 135.984375 444.35546875 111.111328125 469.228515625 111.111328125 499.911132812 c 0
222.22265625 611.022460938 m 0
 222.22265625 641.704101562 247.095703125 666.577148438 277.77734375 666.577148438 c 0
 308.459960938 666.577148438 333.333007812 641.704101562 333.333007812 611.022460938 c 0
 333.333007812 580.33984375 308.459960938 555.466796875 277.77734375 555.466796875 c 0
 247.095703125 555.466796875 222.22265625 580.33984375 222.22265625 611.022460938 c 0
333.333007812 611.022460938 m 0
 333.333007812 641.704101562 358.206054688 666.577148438 388.888671875 666.577148438 c 0
 419.571289062 666.577148438 444.444335938 641.704101562 444.444335938 611.022460938 c 0
 444.444335938 580.33984375 419.571289062 555.466796875 388.888671875 555.466796875 c 0
 358.206054688 555.466796875 333.333007812 580.33984375 333.333007812 611.022460938 c 0
0 611.022460938 m 0
 0 641.704101562 24.873046875 666.577148438 55.5556640625 666.577148438 c 0
 86.23828125 666.577148438 111.111328125 641.704101562 111.111328125 611.022460938 c 0
 111.111328125 580.33984375 86.23828125 555.466796875 55.5556640625 555.466796875 c 0
 24.873046875 555.466796875 0 580.33984375 0 611.022460938 c 0
EndSplineSet
Validated: 5
EndChar

StartChar: o
Encoding: 111 111 4
Width: 666
VWidth: 0
Flags: HW
LayerCount: 2
Fore
SplineSet
111.111328125 55.466796875 m 0
 111.111328125 86.1494140625 135.984375 111.022460938 166.666992188 111.022460938 c 0
 197.349609375 111.022460938 222.22265625 86.1494140625 222.22265625 55.466796875 c 0
 222.22265625 24.7841796875 197.349609375 -0.0888671875 166.666992188 -0.0888671875 c 0
 135.984375 -0.0888671875 111.111328125 24.7841796875 111.111328125 55.466796875 c 0
222.22265625 55.466796875 m 0
 222.22265625 86.1494140625 247.095703125 111.022460938 277.77734375 111.022460938 c 0
 308.459960938 111.022460938 333.333007812 86.1494140625 333.333007812 55.466796875 c 0
 333.333007812 24.7841796875 308.459960938 -0.0888671875 277.77734375 -0.0888671875 c 0
 247.095703125 -0.0888671875 222.22265625 24.7841796875 222.22265625 55.466796875 c 0
333.333007812 55.466796875 m 0
 333.333007812 86.1494140625 358.206054688 111.022460938 388.888671875 111.022460938 c 0
 419.571289062 111.022460938 444.444335938 86.1494140625 444.444335938 55.466796875 c 0
 444.444335938 24.7841796875 419.571289062 -0.0888671875 388.888671875 -0.0888671875 c 0
 358.206054688 -0.0888671875 333.333007812 24.7841796875 333.333007812 55.466796875 c 0
0 166.577148438 m 0
 0 197.259765625 24.873046875 222.1328125 55.5556640625 222.1328125 c 0
 86.23828125 222.1328125 111.111328125 197.259765625 111.111328125 166.577148438 c 0
 111.111328125 135.895507812 86.23828125 111.022460938 55.5556640625 111.022460938 c 0
 24.873046875 111.022460938 0 135.895507812 0 166.577148438 c 0
0 277.688476562 m 0
 0 308.37109375 24.873046875 333.244140625 55.5556640625 333.244140625 c 0
 86.23828125 333.244140625 111.111328125 308.37109375 111.111328125 277.688476562 c 0
 111.111328125 247.005859375 86.23828125 222.1328125 55.5556640625 222.1328125 c 0
 24.873046875 222.1328125 0 247.005859375 0 277.688476562 c 0
0 388.799804688 m 0
 0 419.482421875 24.873046875 444.35546875 55.5556640625 444.35546875 c 0
 86.23828125 444.35546875 111.111328125 419.482421875 111.111328125 388.799804688 c 0
 111.111328125 358.1171875 86.23828125 333.244140625 55.5556640625 333.244140625 c 0
 24.873046875 333.244140625 0 358.1171875 0 388.799804688 c 0
0 499.911132812 m 0
 0 530.59375 24.873046875 555.466796875 55.5556640625 555.466796875 c 0
 86.23828125 555.466796875 111.111328125 530.59375 111.111328125 499.911132812 c 4
 111.111328125 469.228515625 86.23828125 444.35546875 55.5556640625 444.35546875 c 0
 24.873046875 444.35546875 0 469.228515625 0 499.911132812 c 0
111.111328125 611.022460938 m 0
 111.111328125 641.704101562 135.984375 666.577148438 166.666992188 666.577148438 c 0
 197.349609375 666.577148438 222.22265625 641.704101562 222.22265625 611.022460938 c 0
 222.22265625 580.33984375 197.349609375 555.466796875 166.666992188 555.466796875 c 0
 135.984375 555.466796875 111.111328125 580.33984375 111.111328125 611.022460938 c 0
222.22265625 611.022460938 m 0
 222.22265625 641.704101562 247.095703125 666.577148438 277.77734375 666.577148438 c 0
 308.459960938 666.577148438 333.333007812 641.704101562 333.333007812 611.022460938 c 0
 333.333007812 580.33984375 308.459960938 555.466796875 277.77734375 555.466796875 c 0
 247.095703125 555.466796875 222.22265625 580.33984375 222.22265625 611.022460938 c 0
333.333007812 611.022460938 m 0
 333.333007812 641.704101562 358.206054688 666.577148438 388.888671875 666.577148438 c 0
 419.571289062 666.577148438 444.444335938 641.704101562 444.444335938 611.022460938 c 0
 444.444335938 580.33984375 419.571289062 555.466796875 388.888671875 555.466796875 c 0
 358.206054688 555.466796875 333.333007812 580.33984375 333.333007812 611.022460938 c 0
444.444335938 499.911132812 m 0
 444.444335938 530.59375 469.317382812 555.466796875 500 555.466796875 c 0
 530.682617188 555.466796875 555.555664062 530.59375 555.555664062 499.911132812 c 0
 555.555664062 469.228515625 530.682617188 444.35546875 500 444.35546875 c 0
 469.317382812 444.35546875 444.444335938 469.228515625 444.444335938 499.911132812 c 0
444.444335938 388.799804688 m 0
 444.444335938 419.482421875 469.317382812 444.35546875 500 444.35546875 c 0
 530.682617188 444.35546875 555.555664062 419.482421875 555.555664062 388.799804688 c 0
 555.555664062 358.1171875 530.682617188 333.244140625 500 333.244140625 c 0
 469.317382812 333.244140625 444.444335938 358.1171875 444.444335938 388.799804688 c 0
444.444335938 277.688476562 m 0
 444.444335938 308.37109375 469.317382812 333.244140625 500 333.244140625 c 0
 530.682617188 333.244140625 555.555664062 308.37109375 555.555664062 277.688476562 c 0
 555.555664062 247.005859375 530.682617188 222.1328125 500 222.1328125 c 0
 469.317382812 222.1328125 444.444335938 247.005859375 444.444335938 277.688476562 c 0
444.444335938 166.577148438 m 0
 444.444335938 197.259765625 469.317382812 222.1328125 500 222.1328125 c 0
 530.682617188 222.1328125 555.555664062 197.259765625 555.555664062 166.577148438 c 0
 555.555664062 135.895507812 530.682617188 111.022460938 500 111.022460938 c 0
 469.317382812 111.022460938 444.444335938 135.895507812 444.444335938 166.577148438 c 0
EndSplineSet
Validated: 5
EndChar

StartChar: a
Encoding: 97 97 5
Width: 666
VWidth: 0
Flags: HW
LayerCount: 2
Fore
SplineSet
0 166.666015625 m 0
 0 197.348632812 24.873046875 222.221679688 55.5556640625 222.221679688 c 0
 86.23828125 222.221679688 111.111328125 197.348632812 111.111328125 166.666015625 c 0
 111.111328125 135.984375 86.23828125 111.111328125 55.5556640625 111.111328125 c 0
 24.873046875 111.111328125 0 135.984375 0 166.666015625 c 0
0 277.77734375 m 0
 0 308.459960938 24.873046875 333.333007812 55.5556640625 333.333007812 c 0
 86.23828125 333.333007812 111.111328125 308.459960938 111.111328125 277.77734375 c 0
 111.111328125 247.094726562 86.23828125 222.221679688 55.5556640625 222.221679688 c 0
 24.873046875 222.221679688 0 247.094726562 0 277.77734375 c 0
111.111328125 55.5556640625 m 0
 111.111328125 86.23828125 135.984375 111.111328125 166.666992188 111.111328125 c 0
 197.349609375 111.111328125 222.22265625 86.23828125 222.22265625 55.5556640625 c 0
 222.22265625 24.873046875 197.349609375 0 166.666992188 0 c 0
 135.984375 0 111.111328125 24.873046875 111.111328125 55.5556640625 c 0
222.22265625 55.5556640625 m 0
 222.22265625 86.23828125 247.095703125 111.111328125 277.77734375 111.111328125 c 0
 308.459960938 111.111328125 333.333007812 86.23828125 333.333007812 55.5556640625 c 0
 333.333007812 24.873046875 308.459960938 0 277.77734375 0 c 0
 247.095703125 0 222.22265625 24.873046875 222.22265625 55.5556640625 c 0
333.333007812 55.5556640625 m 0
 333.333007812 86.23828125 358.206054688 111.111328125 388.888671875 111.111328125 c 0
 419.571289062 111.111328125 444.444335938 86.23828125 444.444335938 55.5556640625 c 0
 444.444335938 24.873046875 419.571289062 0 388.888671875 0 c 0
 358.206054688 0 333.333007812 24.873046875 333.333007812 55.5556640625 c 0
444.444335938 55.5556640625 m 0
 444.444335938 86.23828125 469.317382812 111.111328125 500 111.111328125 c 0
 530.682617188 111.111328125 555.555664062 86.23828125 555.555664062 55.5556640625 c 0
 555.555664062 24.873046875 530.682617188 0 500 0 c 0
 469.317382812 0 444.444335938 24.873046875 444.444335938 55.5556640625 c 0
444.444335938 166.666015625 m 0
 444.444335938 197.348632812 469.317382812 222.221679688 500 222.221679688 c 0
 530.682617188 222.221679688 555.555664062 197.348632812 555.555664062 166.666015625 c 0
 555.555664062 135.984375 530.682617188 111.111328125 500 111.111328125 c 0
 469.317382812 111.111328125 444.444335938 135.984375 444.444335938 166.666015625 c 0
444.444335938 277.77734375 m 0
 444.444335938 308.459960938 469.317382812 333.333007812 500 333.333007812 c 0
 530.682617188 333.333007812 555.555664062 308.459960938 555.555664062 277.77734375 c 0
 555.555664062 247.094726562 530.682617188 222.221679688 500 222.221679688 c 0
 469.317382812 222.221679688 444.444335938 247.094726562 444.444335938 277.77734375 c 0
444.444335938 388.888671875 m 0
 444.444335938 419.571289062 469.317382812 444.444335938 500 444.444335938 c 0
 530.682617188 444.444335938 555.555664062 419.571289062 555.555664062 388.888671875 c 0
 555.555664062 358.206054688 530.682617188 333.333007812 500 333.333007812 c 0
 469.317382812 333.333007812 444.444335938 358.206054688 444.444335938 388.888671875 c 0
333.333007812 388.888671875 m 0
 333.333007812 419.571289062 358.206054688 444.444335938 388.888671875 444.444335938 c 0
 419.571289062 444.444335938 444.444335938 419.571289062 444.444335938 388.888671875 c 0
 444.444335938 358.206054688 419.571289062 333.333007812 388.888671875 333.333007812 c 0
 358.206054688 333.333007812 333.333007812 358.206054688 333.333007812 388.888671875 c 0
222.22265625 388.888671875 m 0
 222.22265625 419.571289062 247.095703125 444.444335938 277.77734375 444.444335938 c 0
 308.459960938 444.444335938 333.333007812 419.571289062 333.333007812 388.888671875 c 0
 333.333007812 358.206054688 308.459960938 333.333007812 277.77734375 333.333007812 c 0
 247.095703125 333.333007812 222.22265625 358.206054688 222.22265625 388.888671875 c 0
111.111328125 388.888671875 m 0
 111.111328125 419.571289062 135.984375 444.444335938 166.666992188 444.444335938 c 0
 197.349609375 444.444335938 222.22265625 419.571289062 222.22265625 388.888671875 c 0
 222.22265625 358.206054688 197.349609375 333.333007812 166.666992188 333.333007812 c 0
 135.984375 333.333007812 111.111328125 358.206054688 111.111328125 388.888671875 c 0
444.444335938 500 m 0
 444.444335938 530.682617188 469.317382812 555.555664062 500 555.555664062 c 0
 530.682617188 555.555664062 555.555664062 530.682617188 555.555664062 500 c 4
 555.555664062 469.317382812 530.682617188 444.444335938 500 444.444335938 c 0
 469.317382812 444.444335938 444.444335938 469.317382812 444.444335938 500 c 0
333.333007812 611.111328125 m 0
 333.333007812 641.79296875 358.206054688 666.666015625 388.888671875 666.666015625 c 0
 419.571289062 666.666015625 444.444335938 641.79296875 444.444335938 611.111328125 c 0
 444.444335938 580.428710938 419.571289062 555.555664062 388.888671875 555.555664062 c 0
 358.206054688 555.555664062 333.333007812 580.428710938 333.333007812 611.111328125 c 0
222.22265625 611.111328125 m 0
 222.22265625 641.79296875 247.095703125 666.666015625 277.77734375 666.666015625 c 0
 308.459960938 666.666015625 333.333007812 641.79296875 333.333007812 611.111328125 c 0
 333.333007812 580.428710938 308.459960938 555.555664062 277.77734375 555.555664062 c 0
 247.095703125 555.555664062 222.22265625 580.428710938 222.22265625 611.111328125 c 0
111.111328125 611.111328125 m 0
 111.111328125 641.79296875 135.984375 666.666015625 166.666992188 666.666015625 c 0
 197.349609375 666.666015625 222.22265625 641.79296875 222.22265625 611.111328125 c 0
 222.22265625 580.428710938 197.349609375 555.555664062 166.666992188 555.555664062 c 0
 135.984375 555.555664062 111.111328125 580.428710938 111.111328125 611.111328125 c 0
EndSplineSet
Validated: 5
EndChar

StartChar: d
Encoding: 100 100 6
Width: 666
VWidth: 0
Flags: HW
LayerCount: 2
Fore
SplineSet
111.111328125 55.466796875 m 4
 111.111328125 86.1494140625 135.984375 111.022460938 166.666992188 111.022460938 c 4
 197.349609375 111.022460938 222.22265625 86.1494140625 222.22265625 55.466796875 c 4
 222.22265625 24.7841796875 197.349609375 -0.0888671875 166.666992188 -0.0888671875 c 4
 135.984375 -0.0888671875 111.111328125 24.7841796875 111.111328125 55.466796875 c 4
222.22265625 55.466796875 m 4
 222.22265625 86.1494140625 247.095703125 111.022460938 277.77734375 111.022460938 c 4
 308.459960938 111.022460938 333.333007812 86.1494140625 333.333007812 55.466796875 c 4
 333.333007812 24.7841796875 308.459960938 -0.0888671875 277.77734375 -0.0888671875 c 4
 247.095703125 -0.0888671875 222.22265625 24.7841796875 222.22265625 55.466796875 c 4
333.333007812 55.466796875 m 4
 333.333007812 86.1494140625 358.206054688 111.022460938 388.888671875 111.022460938 c 4
 419.571289062 111.022460938 444.444335938 86.1494140625 444.444335938 55.466796875 c 4
 444.444335938 24.7841796875 419.571289062 -0.0888671875 388.888671875 -0.0888671875 c 4
 358.206054688 -0.0888671875 333.333007812 24.7841796875 333.333007812 55.466796875 c 4
444.444335938 55.466796875 m 4
 444.444335938 86.1494140625 469.317382812 111.022460938 500 111.022460938 c 4
 530.682617188 111.022460938 555.555664062 86.1494140625 555.555664062 55.466796875 c 4
 555.555664062 24.7841796875 530.682617188 -0.0888671875 500 -0.0888671875 c 4
 469.317382812 -0.0888671875 444.444335938 24.7841796875 444.444335938 55.466796875 c 4
444.444335938 166.577148438 m 4
 444.444335938 197.259765625 469.317382812 222.1328125 500 222.1328125 c 4
 530.682617188 222.1328125 555.555664062 197.259765625 555.555664062 166.577148438 c 4
 555.555664062 135.895507812 530.682617188 111.022460938 500 111.022460938 c 4
 469.317382812 111.022460938 444.444335938 135.895507812 444.444335938 166.577148438 c 4
444.444335938 277.688476562 m 4
 444.444335938 308.37109375 469.317382812 333.244140625 500 333.244140625 c 4
 530.682617188 333.244140625 555.555664062 308.37109375 555.555664062 277.688476562 c 4
 555.555664062 247.005859375 530.682617188 222.1328125 500 222.1328125 c 4
 469.317382812 222.1328125 444.444335938 247.005859375 444.444335938 277.688476562 c 4
444.444335938 388.799804688 m 4
 444.444335938 419.482421875 469.317382812 444.35546875 500 444.35546875 c 4
 530.682617188 444.35546875 555.555664062 419.482421875 555.555664062 388.799804688 c 4
 555.555664062 358.1171875 530.682617188 333.244140625 500 333.244140625 c 4
 469.317382812 333.244140625 444.444335938 358.1171875 444.444335938 388.799804688 c 4
444.444335938 499.911132812 m 4
 444.444335938 530.59375 469.317382812 555.466796875 500 555.466796875 c 4
 530.682617188 555.466796875 555.555664062 530.59375 555.555664062 499.911132812 c 4
 555.555664062 469.228515625 530.682617188 444.35546875 500 444.35546875 c 4
 469.317382812 444.35546875 444.444335938 469.228515625 444.444335938 499.911132812 c 4
444.444335938 611.022460938 m 4
 444.444335938 641.704101562 469.317382812 666.577148438 500 666.577148438 c 4
 530.682617188 666.577148438 555.555664062 641.704101562 555.555664062 611.022460938 c 4
 555.555664062 580.33984375 530.682617188 555.466796875 500 555.466796875 c 4
 469.317382812 555.466796875 444.444335938 580.33984375 444.444335938 611.022460938 c 4
444.444335938 722.1328125 m 4
 444.444335938 752.815429688 469.317382812 777.688476562 500 777.688476562 c 4
 530.682617188 777.688476562 555.555664062 752.815429688 555.555664062 722.1328125 c 4
 555.555664062 691.450195312 530.682617188 666.577148438 500 666.577148438 c 4
 469.317382812 666.577148438 444.444335938 691.450195312 444.444335938 722.1328125 c 4
444.444335938 833.244140625 m 4
 444.444335938 863.926757812 469.317382812 888.799804688 500 888.799804688 c 4
 530.682617188 888.799804688 555.555664062 863.926757812 555.555664062 833.244140625 c 4
 555.555664062 802.561523438 530.682617188 777.688476562 500 777.688476562 c 4
 469.317382812 777.688476562 444.444335938 802.561523438 444.444335938 833.244140625 c 4
333.333007812 611.022460938 m 4
 333.333007812 641.704101562 358.206054688 666.577148438 388.888671875 666.577148438 c 4
 419.571289062 666.577148438 444.444335938 641.704101562 444.444335938 611.022460938 c 4
 444.444335938 580.33984375 419.571289062 555.466796875 388.888671875 555.466796875 c 4
 358.206054688 555.466796875 333.333007812 580.33984375 333.333007812 611.022460938 c 4
222.22265625 611.022460938 m 4
 222.22265625 641.704101562 247.095703125 666.577148438 277.77734375 666.577148438 c 4
 308.459960938 666.577148438 333.333007812 641.704101562 333.333007812 611.022460938 c 4
 333.333007812 580.33984375 308.459960938 555.466796875 277.77734375 555.466796875 c 4
 247.095703125 555.466796875 222.22265625 580.33984375 222.22265625 611.022460938 c 4
111.111328125 611.022460938 m 4
 111.111328125 641.704101562 135.984375 666.577148438 166.666992188 666.577148438 c 4
 197.349609375 666.577148438 222.22265625 641.704101562 222.22265625 611.022460938 c 4
 222.22265625 580.33984375 197.349609375 555.466796875 166.666992188 555.466796875 c 4
 135.984375 555.466796875 111.111328125 580.33984375 111.111328125 611.022460938 c 4
0 499.911132812 m 4
 0 530.59375 24.873046875 555.466796875 55.5556640625 555.466796875 c 4
 86.23828125 555.466796875 111.111328125 530.59375 111.111328125 499.911132812 c 4
 111.111328125 469.228515625 86.23828125 444.35546875 55.5556640625 444.35546875 c 4
 24.873046875 444.35546875 0 469.228515625 0 499.911132812 c 4
0 388.799804688 m 4
 0 419.482421875 24.873046875 444.35546875 55.5556640625 444.35546875 c 4
 86.23828125 444.35546875 111.111328125 419.482421875 111.111328125 388.799804688 c 4
 111.111328125 358.1171875 86.23828125 333.244140625 55.5556640625 333.244140625 c 4
 24.873046875 333.244140625 0 358.1171875 0 388.799804688 c 4
0 277.688476562 m 4
 0 308.37109375 24.873046875 333.244140625 55.5556640625 333.244140625 c 4
 86.23828125 333.244140625 111.111328125 308.37109375 111.111328125 277.688476562 c 4
 111.111328125 247.005859375 86.23828125 222.1328125 55.5556640625 222.1328125 c 4
 24.873046875 222.1328125 0 247.005859375 0 277.688476562 c 4
0 166.577148438 m 4
 0 197.259765625 24.873046875 222.1328125 55.5556640625 222.1328125 c 4
 86.23828125 222.1328125 111.111328125 197.259765625 111.111328125 166.577148438 c 4
 111.111328125 135.895507812 86.23828125 111.022460938 55.5556640625 111.022460938 c 4
 24.873046875 111.022460938 0 135.895507812 0 166.577148438 c 4
EndSplineSet
Validated: 5
EndChar

StartChar: w
Encoding: 119 119 7
Width: 888
VWidth: 0
Flags: HW
LayerCount: 2
Fore
SplineSet
0 611.022460938 m 0
 0 641.704101562 24.873046875 666.577148438 55.5556640625 666.577148438 c 0
 86.23828125 666.577148438 111.111328125 641.704101562 111.111328125 611.022460938 c 0
 111.111328125 580.33984375 86.23828125 555.466796875 55.5556640625 555.466796875 c 0
 24.873046875 555.466796875 0 580.33984375 0 611.022460938 c 0
0 499.911132812 m 0
 0 530.59375 24.873046875 555.466796875 55.5556640625 555.466796875 c 0
 86.23828125 555.466796875 111.111328125 530.59375 111.111328125 499.911132812 c 0
 111.111328125 469.228515625 86.23828125 444.35546875 55.5556640625 444.35546875 c 0
 24.873046875 444.35546875 0 469.228515625 0 499.911132812 c 0
0 388.799804688 m 0
 0 419.482421875 24.873046875 444.35546875 55.5556640625 444.35546875 c 0
 86.23828125 444.35546875 111.111328125 419.482421875 111.111328125 388.799804688 c 0
 111.111328125 358.1171875 86.23828125 333.244140625 55.5556640625 333.244140625 c 0
 24.873046875 333.244140625 0 358.1171875 0 388.799804688 c 0
0 277.688476562 m 0
 0 308.37109375 24.873046875 333.244140625 55.5556640625 333.244140625 c 0
 86.23828125 333.244140625 111.111328125 308.37109375 111.111328125 277.688476562 c 0
 111.111328125 247.005859375 86.23828125 222.1328125 55.5556640625 222.1328125 c 0
 24.873046875 222.1328125 0 247.005859375 0 277.688476562 c 0
0 166.577148438 m 0
 0 197.259765625 24.873046875 222.1328125 55.5556640625 222.1328125 c 0
 86.23828125 222.1328125 111.111328125 197.259765625 111.111328125 166.577148438 c 0
 111.111328125 135.895507812 86.23828125 111.022460938 55.5556640625 111.022460938 c 0
 24.873046875 111.022460938 0 135.895507812 0 166.577148438 c 0
111.111328125 55.466796875 m 0
 111.111328125 86.1494140625 135.984375 111.022460938 166.666992188 111.022460938 c 0
 197.349609375 111.022460938 222.22265625 86.1494140625 222.22265625 55.466796875 c 0
 222.22265625 24.7841796875 197.349609375 -0.0888671875 166.666992188 -0.0888671875 c 0
 135.984375 -0.0888671875 111.111328125 24.7841796875 111.111328125 55.466796875 c 0
222.22265625 166.577148438 m 0
 222.22265625 197.259765625 247.095703125 222.1328125 277.77734375 222.1328125 c 0
 308.459960938 222.1328125 333.333007812 197.259765625 333.333007812 166.577148438 c 0
 333.333007812 135.895507812 308.459960938 111.022460938 277.77734375 111.022460938 c 0
 247.095703125 111.022460938 222.22265625 135.895507812 222.22265625 166.577148438 c 0
333.333007812 277.688476562 m 0
 333.333007812 308.37109375 358.206054688 333.244140625 388.888671875 333.244140625 c 0
 419.571289062 333.244140625 444.444335938 308.37109375 444.444335938 277.688476562 c 0
 444.444335938 247.005859375 419.571289062 222.1328125 388.888671875 222.1328125 c 0
 358.206054688 222.1328125 333.333007812 247.005859375 333.333007812 277.688476562 c 0
444.444335938 166.577148438 m 0
 444.444335938 197.259765625 469.317382812 222.1328125 500 222.1328125 c 0
 530.682617188 222.1328125 555.555664062 197.259765625 555.555664062 166.577148438 c 0
 555.555664062 135.895507812 530.682617188 111.022460938 500 111.022460938 c 0
 469.317382812 111.022460938 444.444335938 135.895507812 444.444335938 166.577148438 c 0
555.555664062 55.466796875 m 0
 555.555664062 86.1494140625 580.428710938 111.022460938 611.111328125 111.022460938 c 0
 641.793945312 111.022460938 666.666992188 86.1494140625 666.666992188 55.466796875 c 0
 666.666992188 24.7841796875 641.793945312 -0.0888671875 611.111328125 -0.0888671875 c 0
 580.428710938 -0.0888671875 555.555664062 24.7841796875 555.555664062 55.466796875 c 0
666.666992188 166.577148438 m 0
 666.666992188 197.259765625 691.540039062 222.1328125 722.22265625 222.1328125 c 0
 752.904296875 222.1328125 777.77734375 197.259765625 777.77734375 166.577148438 c 0
 777.77734375 135.895507812 752.904296875 111.022460938 722.22265625 111.022460938 c 0
 691.540039062 111.022460938 666.666992188 135.895507812 666.666992188 166.577148438 c 0
666.666992188 277.688476562 m 0
 666.666992188 308.37109375 691.540039062 333.244140625 722.22265625 333.244140625 c 0
 752.904296875 333.244140625 777.77734375 308.37109375 777.77734375 277.688476562 c 0
 777.77734375 247.005859375 752.904296875 222.1328125 722.22265625 222.1328125 c 0
 691.540039062 222.1328125 666.666992188 247.005859375 666.666992188 277.688476562 c 0
666.666992188 388.799804688 m 0
 666.666992188 419.482421875 691.540039062 444.35546875 722.22265625 444.35546875 c 0
 752.904296875 444.35546875 777.77734375 419.482421875 777.77734375 388.799804688 c 0
 777.77734375 358.1171875 752.904296875 333.244140625 722.22265625 333.244140625 c 0
 691.540039062 333.244140625 666.666992188 358.1171875 666.666992188 388.799804688 c 0
666.666992188 499.911132812 m 0
 666.666992188 530.59375 691.540039062 555.466796875 722.22265625 555.466796875 c 0
 752.904296875 555.466796875 777.77734375 530.59375 777.77734375 499.911132812 c 0
 777.77734375 469.228515625 752.904296875 444.35546875 722.22265625 444.35546875 c 0
 691.540039062 444.35546875 666.666992188 469.228515625 666.666992188 499.911132812 c 0
666.666992188 611.022460938 m 0
 666.666992188 641.704101562 691.540039062 666.577148438 722.22265625 666.577148438 c 0
 752.904296875 666.577148438 777.77734375 641.704101562 777.77734375 611.022460938 c 0
 777.77734375 580.33984375 752.904296875 555.466796875 722.22265625 555.466796875 c 0
 691.540039062 555.466796875 666.666992188 580.33984375 666.666992188 611.022460938 c 0
EndSplineSet
Validated: 5
EndChar

StartChar: y
Encoding: 121 121 8
Width: 666
VWidth: 0
Flags: HW
LayerCount: 2
Fore
SplineSet
0 610.5 m 0
 0 641.151367188 24.8486328125 666 55.5 666 c 0
 86.1513671875 666 111 641.151367188 111 610.5 c 0
 111 579.848632812 86.1513671875 555 55.5 555 c 0
 24.8486328125 555 0 579.848632812 0 610.5 c 0
0 499.5 m 0
 0 530.151367188 24.8486328125 555 55.5 555 c 0
 86.1513671875 555 111 530.151367188 111 499.5 c 0
 111 468.848632812 86.1513671875 444 55.5 444 c 0
 24.8486328125 444 0 468.848632812 0 499.5 c 0
0 388.5 m 0
 0 419.151367188 24.8486328125 444 55.5 444 c 0
 86.1513671875 444 111 419.151367188 111 388.5 c 0
 111 357.848632812 86.1513671875 333 55.5 333 c 0
 24.8486328125 333 0 357.848632812 0 388.5 c 0
0 277.5 m 0
 0 308.151367188 24.8486328125 333 55.5 333 c 0
 86.1513671875 333 111 308.151367188 111 277.5 c 0
 111 246.848632812 86.1513671875 222 55.5 222 c 0
 24.8486328125 222 0 246.848632812 0 277.5 c 0
0 166.5 m 0
 0 197.151367188 24.8486328125 222 55.5 222 c 0
 86.1513671875 222 111 197.151367188 111 166.5 c 0
 111 135.848632812 86.1513671875 111 55.5 111 c 0
 24.8486328125 111 0 135.848632812 0 166.5 c 0
444 610.5 m 0
 444 641.151367188 468.848632812 666 499.5 666 c 0
 530.151367188 666 555 641.151367188 555 610.5 c 0
 555 579.848632812 530.151367188 555 499.5 555 c 0
 468.848632812 555 444 579.848632812 444 610.5 c 0
444 499.5 m 0
 444 530.151367188 468.848632812 555 499.5 555 c 0
 530.151367188 555 555 530.151367188 555 499.5 c 0
 555 468.848632812 530.151367188 444 499.5 444 c 0
 468.848632812 444 444 468.848632812 444 499.5 c 0
444 388.5 m 0
 444 419.151367188 468.848632812 444 499.5 444 c 0
 530.151367188 444 555 419.151367188 555 388.5 c 0
 555 357.848632812 530.151367188 333 499.5 333 c 0
 468.848632812 333 444 357.848632812 444 388.5 c 0
444 277.5 m 0
 444 308.151367188 468.848632812 333 499.5 333 c 0
 530.151367188 333 555 308.151367188 555 277.5 c 0
 555 246.848632812 530.151367188 222 499.5 222 c 0
 468.848632812 222 444 246.848632812 444 277.5 c 0
444 166.5 m 0
 444 197.151367188 468.848632812 222 499.5 222 c 0
 530.151367188 222 555 197.151367188 555 166.5 c 0
 555 135.848632812 530.151367188 111 499.5 111 c 0
 468.848632812 111 444 135.848632812 444 166.5 c 0
111 55.5 m 0
 111 86.1513671875 135.848632812 111 166.5 111 c 0
 197.151367188 111 222 86.1513671875 222 55.5 c 0
 222 24.8486328125 197.151367188 0 166.5 0 c 0
 135.848632812 0 111 24.8486328125 111 55.5 c 0
222 55.5 m 0
 222 86.1513671875 246.848632812 111 277.5 111 c 0
 308.151367188 111 333 86.1513671875 333 55.5 c 0
 333 24.8486328125 308.151367188 0 277.5 0 c 0
 246.848632812 0 222 24.8486328125 222 55.5 c 0
333 55.5 m 0
 333 86.1513671875 357.848632812 111 388.5 111 c 0
 419.151367188 111 444 86.1513671875 444 55.5 c 0
 444 24.8486328125 419.151367188 0 388.5 0 c 0
 357.848632812 0 333 24.8486328125 333 55.5 c 0
444 55.5 m 0
 444 86.1513671875 468.848632812 111 499.5 111 c 0
 530.151367188 111 555 86.1513671875 555 55.5 c 0
 555 24.8486328125 530.151367188 0 499.5 0 c 4
 468.848632812 0 444 24.8486328125 444 55.5 c 0
444 -55.5 m 0
 444 -24.8486328125 468.848632812 0 499.5 0 c 0
 530.151367188 0 555 -24.8486328125 555 -55.5 c 0
 555 -86.1513671875 530.151367188 -111 499.5 -111 c 0
 468.848632812 -111 444 -86.1513671875 444 -55.5 c 0
333 -166.5 m 0
 333 -135.848632812 357.848632812 -111 388.5 -111 c 0
 419.151367188 -111 444 -135.848632812 444 -166.5 c 0
 444 -197.151367188 419.151367188 -222 388.5 -222 c 0
 357.848632812 -222 333 -197.151367188 333 -166.5 c 0
222 -166.5 m 0
 222 -135.848632812 246.848632812 -111 277.5 -111 c 0
 308.151367188 -111 333 -135.848632812 333 -166.5 c 0
 333 -197.151367188 308.151367188 -222 277.5 -222 c 0
 246.848632812 -222 222 -197.151367188 222 -166.5 c 0
111 -166.5 m 0
 111 -135.848632812 135.848632812 -111 166.5 -111 c 0
 197.151367188 -111 222 -135.848632812 222 -166.5 c 0
 222 -197.151367188 197.151367188 -222 166.5 -222 c 0
 135.848632812 -222 111 -197.151367188 111 -166.5 c 0
0 -166.5 m 0
 0 -135.848632812 24.8486328125 -111 55.5 -111 c 0
 86.1513671875 -111 111 -135.848632812 111 -166.5 c 0
 111 -197.151367188 86.1513671875 -222 55.5 -222 c 0
 24.8486328125 -222 0 -197.151367188 0 -166.5 c 0
EndSplineSet
Validated: 5
EndChar

StartChar: i
Encoding: 105 105 9
Width: 222
VWidth: 0
Flags: HW
LayerCount: 2
Fore
SplineSet
0 55.466796875 m 0
 0 86.1494140625 24.873046875 111.022460938 55.5556640625 111.022460938 c 0
 86.23828125 111.022460938 111.111328125 86.1494140625 111.111328125 55.466796875 c 0
 111.111328125 24.7841796875 86.23828125 -0.0888671875 55.5556640625 -0.0888671875 c 0
 24.873046875 -0.0888671875 0 24.7841796875 0 55.466796875 c 0
0 166.577148438 m 0
 0 197.259765625 24.873046875 222.1328125 55.5556640625 222.1328125 c 0
 86.23828125 222.1328125 111.111328125 197.259765625 111.111328125 166.577148438 c 0
 111.111328125 135.895507812 86.23828125 111.022460938 55.5556640625 111.022460938 c 0
 24.873046875 111.022460938 0 135.895507812 0 166.577148438 c 0
0 277.688476562 m 0
 0 308.37109375 24.873046875 333.244140625 55.5556640625 333.244140625 c 0
 86.23828125 333.244140625 111.111328125 308.37109375 111.111328125 277.688476562 c 0
 111.111328125 247.005859375 86.23828125 222.1328125 55.5556640625 222.1328125 c 0
 24.873046875 222.1328125 0 247.005859375 0 277.688476562 c 0
0 388.799804688 m 0
 0 419.482421875 24.873046875 444.35546875 55.5556640625 444.35546875 c 0
 86.23828125 444.35546875 111.111328125 419.482421875 111.111328125 388.799804688 c 0
 111.111328125 358.1171875 86.23828125 333.244140625 55.5556640625 333.244140625 c 0
 24.873046875 333.244140625 0 358.1171875 0 388.799804688 c 0
0 499.911132812 m 0
 0 530.59375 24.873046875 555.466796875 55.5556640625 555.466796875 c 0
 86.23828125 555.466796875 111.111328125 530.59375 111.111328125 499.911132812 c 0
 111.111328125 469.228515625 86.23828125 444.35546875 55.5556640625 444.35546875 c 0
 24.873046875 444.35546875 0 469.228515625 0 499.911132812 c 0
0 611.022460938 m 0
 0 641.704101562 24.873046875 666.577148438 55.5556640625 666.577148438 c 0
 86.23828125 666.577148438 111.111328125 641.704101562 111.111328125 611.022460938 c 0
 111.111328125 580.33984375 86.23828125 555.466796875 55.5556640625 555.466796875 c 0
 24.873046875 555.466796875 0 580.33984375 0 611.022460938 c 0
0 833.244140625 m 0
 0 863.926757812 24.873046875 888.799804688 55.5556640625 888.799804688 c 0
 86.23828125 888.799804688 111.111328125 863.926757812 111.111328125 833.244140625 c 0
 111.111328125 802.561523438 86.23828125 777.688476562 55.5556640625 777.688476562 c 0
 24.873046875 777.688476562 0 802.561523438 0 833.244140625 c 0
EndSplineSet
Validated: 5
EndChar

StartChar: c
Encoding: 99 99 10
Width: 666
VWidth: 0
Flags: HW
LayerCount: 2
Fore
SplineSet
0 166.577148438 m 4
 0 197.259765625 24.873046875 222.1328125 55.5556640625 222.1328125 c 4
 86.23828125 222.1328125 111.111328125 197.259765625 111.111328125 166.577148438 c 4
 111.111328125 135.895507812 86.23828125 111.022460938 55.5556640625 111.022460938 c 4
 24.873046875 111.022460938 0 135.895507812 0 166.577148438 c 4
111.111328125 55.466796875 m 4
 111.111328125 86.1494140625 135.984375 111.022460938 166.666992188 111.022460938 c 4
 197.349609375 111.022460938 222.22265625 86.1494140625 222.22265625 55.466796875 c 4
 222.22265625 24.7841796875 197.349609375 -0.0888671875 166.666992188 -0.0888671875 c 4
 135.984375 -0.0888671875 111.111328125 24.7841796875 111.111328125 55.466796875 c 4
222.22265625 55.466796875 m 4
 222.22265625 86.1494140625 247.095703125 111.022460938 277.77734375 111.022460938 c 4
 308.459960938 111.022460938 333.333007812 86.1494140625 333.333007812 55.466796875 c 4
 333.333007812 24.7841796875 308.459960938 -0.0888671875 277.77734375 -0.0888671875 c 4
 247.095703125 -0.0888671875 222.22265625 24.7841796875 222.22265625 55.466796875 c 4
333.333007812 55.466796875 m 4
 333.333007812 86.1494140625 358.206054688 111.022460938 388.888671875 111.022460938 c 4
 419.571289062 111.022460938 444.444335938 86.1494140625 444.444335938 55.466796875 c 4
 444.444335938 24.7841796875 419.571289062 -0.0888671875 388.888671875 -0.0888671875 c 4
 358.206054688 -0.0888671875 333.333007812 24.7841796875 333.333007812 55.466796875 c 4
444.444335938 166.577148438 m 4
 444.444335938 197.259765625 469.317382812 222.1328125 500 222.1328125 c 4
 530.682617188 222.1328125 555.555664062 197.259765625 555.555664062 166.577148438 c 4
 555.555664062 135.895507812 530.682617188 111.022460938 500 111.022460938 c 4
 469.317382812 111.022460938 444.444335938 135.895507812 444.444335938 166.577148438 c 4
0 277.688476562 m 4
 0 308.37109375 24.873046875 333.244140625 55.5556640625 333.244140625 c 4
 86.23828125 333.244140625 111.111328125 308.37109375 111.111328125 277.688476562 c 4
 111.111328125 247.005859375 86.23828125 222.1328125 55.5556640625 222.1328125 c 4
 24.873046875 222.1328125 0 247.005859375 0 277.688476562 c 4
222.22265625 611.022460938 m 4
 222.22265625 641.704101562 247.095703125 666.577148438 277.77734375 666.577148438 c 4
 308.459960938 666.577148438 333.333007812 641.704101562 333.333007812 611.022460938 c 4
 333.333007812 580.33984375 308.459960938 555.466796875 277.77734375 555.466796875 c 4
 247.095703125 555.466796875 222.22265625 580.33984375 222.22265625 611.022460938 c 4
333.333007812 611.022460938 m 4
 333.333007812 641.704101562 358.206054688 666.577148438 388.888671875 666.577148438 c 4
 419.571289062 666.577148438 444.444335938 641.704101562 444.444335938 611.022460938 c 4
 444.444335938 580.33984375 419.571289062 555.466796875 388.888671875 555.466796875 c 4
 358.206054688 555.466796875 333.333007812 580.33984375 333.333007812 611.022460938 c 4
444.444335938 499.911132812 m 4
 444.444335938 530.59375 469.317382812 555.466796875 500 555.466796875 c 4
 530.682617188 555.466796875 555.555664062 530.59375 555.555664062 499.911132812 c 4
 555.555664062 469.228515625 530.682617188 444.35546875 500 444.35546875 c 4
 469.317382812 444.35546875 444.444335938 469.228515625 444.444335938 499.911132812 c 4
0 388.799804688 m 4
 0 419.482421875 24.873046875 444.35546875 55.5556640625 444.35546875 c 4
 86.23828125 444.35546875 111.111328125 419.482421875 111.111328125 388.799804688 c 4
 111.111328125 358.1171875 86.23828125 333.244140625 55.5556640625 333.244140625 c 4
 24.873046875 333.244140625 0 358.1171875 0 388.799804688 c 4
0 499.911132812 m 4
 0 530.59375 24.873046875 555.466796875 55.5556640625 555.466796875 c 4
 86.23828125 555.466796875 111.111328125 530.59375 111.111328125 499.911132812 c 4
 111.111328125 469.228515625 86.23828125 444.35546875 55.5556640625 444.35546875 c 4
 24.873046875 444.35546875 0 469.228515625 0 499.911132812 c 4
111.111328125 611.022460938 m 4
 111.111328125 641.704101562 135.984375 666.577148438 166.666992188 666.577148438 c 4
 197.349609375 666.577148438 222.22265625 641.704101562 222.22265625 611.022460938 c 4
 222.22265625 580.33984375 197.349609375 555.466796875 166.666992188 555.466796875 c 4
 135.984375 555.466796875 111.111328125 580.33984375 111.111328125 611.022460938 c 4
EndSplineSet
Validated: 5
EndChar

StartChar: h
Encoding: 104 104 11
Width: 666
VWidth: 0
Flags: HW
LayerCount: 2
Fore
SplineSet
0 833.244140625 m 0
 0 863.926757812 24.873046875 888.799804688 55.5556640625 888.799804688 c 0
 86.23828125 888.799804688 111.111328125 863.926757812 111.111328125 833.244140625 c 0
 111.111328125 802.561523438 86.23828125 777.688476562 55.5556640625 777.688476562 c 0
 24.873046875 777.688476562 0 802.561523438 0 833.244140625 c 0
0 722.1328125 m 0
 0 752.815429688 24.873046875 777.688476562 55.5556640625 777.688476562 c 0
 86.23828125 777.688476562 111.111328125 752.815429688 111.111328125 722.1328125 c 0
 111.111328125 691.450195312 86.23828125 666.577148438 55.5556640625 666.577148438 c 0
 24.873046875 666.577148438 0 691.450195312 0 722.1328125 c 0
0 611.022460938 m 0
 0 641.704101562 24.873046875 666.577148438 55.5556640625 666.577148438 c 0
 86.23828125 666.577148438 111.111328125 641.704101562 111.111328125 611.022460938 c 0
 111.111328125 580.33984375 86.23828125 555.466796875 55.5556640625 555.466796875 c 0
 24.873046875 555.466796875 0 580.33984375 0 611.022460938 c 0
0 499.911132812 m 0
 0 530.59375 24.873046875 555.466796875 55.5556640625 555.466796875 c 0
 86.23828125 555.466796875 111.111328125 530.59375 111.111328125 499.911132812 c 0
 111.111328125 469.228515625 86.23828125 444.35546875 55.5556640625 444.35546875 c 0
 24.873046875 444.35546875 0 469.228515625 0 499.911132812 c 0
0 388.799804688 m 0
 0 419.482421875 24.873046875 444.35546875 55.5556640625 444.35546875 c 0
 86.23828125 444.35546875 111.111328125 419.482421875 111.111328125 388.799804688 c 0
 111.111328125 358.1171875 86.23828125 333.244140625 55.5556640625 333.244140625 c 0
 24.873046875 333.244140625 0 358.1171875 0 388.799804688 c 0
0 277.688476562 m 0
 0 308.37109375 24.873046875 333.244140625 55.5556640625 333.244140625 c 0
 86.23828125 333.244140625 111.111328125 308.37109375 111.111328125 277.688476562 c 0
 111.111328125 247.005859375 86.23828125 222.1328125 55.5556640625 222.1328125 c 0
 24.873046875 222.1328125 0 247.005859375 0 277.688476562 c 0
0 166.577148438 m 0
 0 197.259765625 24.873046875 222.1328125 55.5556640625 222.1328125 c 0
 86.23828125 222.1328125 111.111328125 197.259765625 111.111328125 166.577148438 c 0
 111.111328125 135.895507812 86.23828125 111.022460938 55.5556640625 111.022460938 c 0
 24.873046875 111.022460938 0 135.895507812 0 166.577148438 c 0
0 55.466796875 m 0
 0 86.1494140625 24.873046875 111.022460938 55.5556640625 111.022460938 c 0
 86.23828125 111.022460938 111.111328125 86.1494140625 111.111328125 55.466796875 c 0
 111.111328125 24.7841796875 86.23828125 -0.0888671875 55.5556640625 -0.0888671875 c 0
 24.873046875 -0.0888671875 0 24.7841796875 0 55.466796875 c 0
111.111328125 611.022460938 m 0
 111.111328125 641.704101562 135.984375 666.577148438 166.666992188 666.577148438 c 0
 197.349609375 666.577148438 222.22265625 641.704101562 222.22265625 611.022460938 c 0
 222.22265625 580.33984375 197.349609375 555.466796875 166.666992188 555.466796875 c 0
 135.984375 555.466796875 111.111328125 580.33984375 111.111328125 611.022460938 c 0
222.22265625 611.022460938 m 0
 222.22265625 641.704101562 247.095703125 666.577148438 277.77734375 666.577148438 c 0
 308.459960938 666.577148438 333.333007812 641.704101562 333.333007812 611.022460938 c 0
 333.333007812 580.33984375 308.459960938 555.466796875 277.77734375 555.466796875 c 0
 247.095703125 555.466796875 222.22265625 580.33984375 222.22265625 611.022460938 c 0
333.333007812 611.022460938 m 0
 333.333007812 641.704101562 358.206054688 666.577148438 388.888671875 666.577148438 c 0
 419.571289062 666.577148438 444.444335938 641.704101562 444.444335938 611.022460938 c 0
 444.444335938 580.33984375 419.571289062 555.466796875 388.888671875 555.466796875 c 0
 358.206054688 555.466796875 333.333007812 580.33984375 333.333007812 611.022460938 c 0
444.444335938 499.911132812 m 0
 444.444335938 530.59375 469.317382812 555.466796875 500 555.466796875 c 0
 530.682617188 555.466796875 555.555664062 530.59375 555.555664062 499.911132812 c 0
 555.555664062 469.228515625 530.682617188 444.35546875 500 444.35546875 c 0
 469.317382812 444.35546875 444.444335938 469.228515625 444.444335938 499.911132812 c 0
444.444335938 388.799804688 m 0
 444.444335938 419.482421875 469.317382812 444.35546875 500 444.35546875 c 0
 530.682617188 444.35546875 555.555664062 419.482421875 555.555664062 388.799804688 c 0
 555.555664062 358.1171875 530.682617188 333.244140625 500 333.244140625 c 0
 469.317382812 333.244140625 444.444335938 358.1171875 444.444335938 388.799804688 c 0
444.444335938 277.688476562 m 0
 444.444335938 308.37109375 469.317382812 333.244140625 500 333.244140625 c 0
 530.682617188 333.244140625 555.555664062 308.37109375 555.555664062 277.688476562 c 0
 555.555664062 247.005859375 530.682617188 222.1328125 500 222.1328125 c 0
 469.317382812 222.1328125 444.444335938 247.005859375 444.444335938 277.688476562 c 0
444.444335938 166.577148438 m 0
 444.444335938 197.259765625 469.317382812 222.1328125 500 222.1328125 c 0
 530.682617188 222.1328125 555.555664062 197.259765625 555.555664062 166.577148438 c 0
 555.555664062 135.895507812 530.682617188 111.022460938 500 111.022460938 c 0
 469.317382812 111.022460938 444.444335938 135.895507812 444.444335938 166.577148438 c 0
444.444335938 55.466796875 m 0
 444.444335938 86.1494140625 469.317382812 111.022460938 500 111.022460938 c 0
 530.682617188 111.022460938 555.555664062 86.1494140625 555.555664062 55.466796875 c 0
 555.555664062 24.7841796875 530.682617188 -0.0888671875 500 -0.0888671875 c 0
 469.317382812 -0.0888671875 444.444335938 24.7841796875 444.444335938 55.466796875 c 0
EndSplineSet
Validated: 5
EndChar

StartChar: m
Encoding: 109 109 12
Width: 888
VWidth: 0
Flags: HW
LayerCount: 2
Fore
SplineSet
0 55.466796875 m 0
 0 86.1494140625 24.873046875 111.022460938 55.5556640625 111.022460938 c 0
 86.23828125 111.022460938 111.111328125 86.1494140625 111.111328125 55.466796875 c 0
 111.111328125 24.7841796875 86.23828125 -0.0888671875 55.5556640625 -0.0888671875 c 0
 24.873046875 -0.0888671875 0 24.7841796875 0 55.466796875 c 0
0 166.577148438 m 0
 0 197.259765625 24.873046875 222.1328125 55.5556640625 222.1328125 c 0
 86.23828125 222.1328125 111.111328125 197.259765625 111.111328125 166.577148438 c 0
 111.111328125 135.895507812 86.23828125 111.022460938 55.5556640625 111.022460938 c 0
 24.873046875 111.022460938 0 135.895507812 0 166.577148438 c 0
0 277.688476562 m 0
 0 308.37109375 24.873046875 333.244140625 55.5556640625 333.244140625 c 0
 86.23828125 333.244140625 111.111328125 308.37109375 111.111328125 277.688476562 c 0
 111.111328125 247.005859375 86.23828125 222.1328125 55.5556640625 222.1328125 c 0
 24.873046875 222.1328125 0 247.005859375 0 277.688476562 c 0
0 388.799804688 m 0
 0 419.482421875 24.873046875 444.35546875 55.5556640625 444.35546875 c 0
 86.23828125 444.35546875 111.111328125 419.482421875 111.111328125 388.799804688 c 0
 111.111328125 358.1171875 86.23828125 333.244140625 55.5556640625 333.244140625 c 0
 24.873046875 333.244140625 0 358.1171875 0 388.799804688 c 0
0 499.911132812 m 0
 0 530.59375 24.873046875 555.466796875 55.5556640625 555.466796875 c 0
 86.23828125 555.466796875 111.111328125 530.59375 111.111328125 499.911132812 c 0
 111.111328125 469.228515625 86.23828125 444.35546875 55.5556640625 444.35546875 c 0
 24.873046875 444.35546875 0 469.228515625 0 499.911132812 c 0
0 611.022460938 m 0
 0 641.704101562 24.873046875 666.577148438 55.5556640625 666.577148438 c 0
 86.23828125 666.577148438 111.111328125 641.704101562 111.111328125 611.022460938 c 0
 111.111328125 580.33984375 86.23828125 555.466796875 55.5556640625 555.466796875 c 0
 24.873046875 555.466796875 0 580.33984375 0 611.022460938 c 0
111.111328125 611.022460938 m 0
 111.111328125 641.704101562 135.984375 666.577148438 166.666992188 666.577148438 c 0
 197.349609375 666.577148438 222.22265625 641.704101562 222.22265625 611.022460938 c 0
 222.22265625 580.33984375 197.349609375 555.466796875 166.666992188 555.466796875 c 0
 135.984375 555.466796875 111.111328125 580.33984375 111.111328125 611.022460938 c 0
222.22265625 611.022460938 m 0
 222.22265625 641.704101562 247.095703125 666.577148438 277.77734375 666.577148438 c 0
 308.459960938 666.577148438 333.333007812 641.704101562 333.333007812 611.022460938 c 0
 333.333007812 580.33984375 308.459960938 555.466796875 277.77734375 555.466796875 c 0
 247.095703125 555.466796875 222.22265625 580.33984375 222.22265625 611.022460938 c 0
444.444335938 611.022460938 m 0
 444.444335938 641.704101562 469.317382812 666.577148438 500 666.577148438 c 0
 530.682617188 666.577148438 555.555664062 641.704101562 555.555664062 611.022460938 c 0
 555.555664062 580.33984375 530.682617188 555.466796875 500 555.466796875 c 0
 469.317382812 555.466796875 444.444335938 580.33984375 444.444335938 611.022460938 c 0
555.555664062 611.022460938 m 0
 555.555664062 641.704101562 580.428710938 666.577148438 611.111328125 666.577148438 c 0
 641.793945312 666.577148438 666.666992188 641.704101562 666.666992188 611.022460938 c 0
 666.666992188 580.33984375 641.793945312 555.466796875 611.111328125 555.466796875 c 0
 580.428710938 555.466796875 555.555664062 580.33984375 555.555664062 611.022460938 c 0
666.666992188 499.911132812 m 0
 666.666992188 530.59375 691.540039062 555.466796875 722.22265625 555.466796875 c 0
 752.904296875 555.466796875 777.77734375 530.59375 777.77734375 499.911132812 c 0
 777.77734375 469.228515625 752.904296875 444.35546875 722.22265625 444.35546875 c 0
 691.540039062 444.35546875 666.666992188 469.228515625 666.666992188 499.911132812 c 0
333.333007812 499.911132812 m 0
 333.333007812 530.59375 358.206054688 555.466796875 388.888671875 555.466796875 c 0
 419.571289062 555.466796875 444.444335938 530.59375 444.444335938 499.911132812 c 0
 444.444335938 469.228515625 419.571289062 444.35546875 388.888671875 444.35546875 c 0
 358.206054688 444.35546875 333.333007812 469.228515625 333.333007812 499.911132812 c 0
333.333007812 388.799804688 m 0
 333.333007812 419.482421875 358.206054688 444.35546875 388.888671875 444.35546875 c 0
 419.571289062 444.35546875 444.444335938 419.482421875 444.444335938 388.799804688 c 0
 444.444335938 358.1171875 419.571289062 333.244140625 388.888671875 333.244140625 c 0
 358.206054688 333.244140625 333.333007812 358.1171875 333.333007812 388.799804688 c 0
333.333007812 277.688476562 m 0
 333.333007812 308.37109375 358.206054688 333.244140625 388.888671875 333.244140625 c 0
 419.571289062 333.244140625 444.444335938 308.37109375 444.444335938 277.688476562 c 0
 444.444335938 247.005859375 419.571289062 222.1328125 388.888671875 222.1328125 c 0
 358.206054688 222.1328125 333.333007812 247.005859375 333.333007812 277.688476562 c 0
333.333007812 166.577148438 m 0
 333.333007812 197.259765625 358.206054688 222.1328125 388.888671875 222.1328125 c 0
 419.571289062 222.1328125 444.444335938 197.259765625 444.444335938 166.577148438 c 0
 444.444335938 135.895507812 419.571289062 111.022460938 388.888671875 111.022460938 c 0
 358.206054688 111.022460938 333.333007812 135.895507812 333.333007812 166.577148438 c 0
333.333007812 55.466796875 m 0
 333.333007812 86.1494140625 358.206054688 111.022460938 388.888671875 111.022460938 c 0
 419.571289062 111.022460938 444.444335938 86.1494140625 444.444335938 55.466796875 c 0
 444.444335938 24.7841796875 419.571289062 -0.0888671875 388.888671875 -0.0888671875 c 0
 358.206054688 -0.0888671875 333.333007812 24.7841796875 333.333007812 55.466796875 c 0
666.666992188 55.466796875 m 0
 666.666992188 86.1494140625 691.540039062 111.022460938 722.22265625 111.022460938 c 0
 752.904296875 111.022460938 777.77734375 86.1494140625 777.77734375 55.466796875 c 0
 777.77734375 24.7841796875 752.904296875 -0.0888671875 722.22265625 -0.0888671875 c 0
 691.540039062 -0.0888671875 666.666992188 24.7841796875 666.666992188 55.466796875 c 0
666.666992188 166.577148438 m 0
 666.666992188 197.259765625 691.540039062 222.1328125 722.22265625 222.1328125 c 0
 752.904296875 222.1328125 777.77734375 197.259765625 777.77734375 166.577148438 c 0
 777.77734375 135.895507812 752.904296875 111.022460938 722.22265625 111.022460938 c 0
 691.540039062 111.022460938 666.666992188 135.895507812 666.666992188 166.577148438 c 0
666.666992188 277.688476562 m 0
 666.666992188 308.37109375 691.540039062 333.244140625 722.22265625 333.244140625 c 0
 752.904296875 333.244140625 777.77734375 308.37109375 777.77734375 277.688476562 c 0
 777.77734375 247.005859375 752.904296875 222.1328125 722.22265625 222.1328125 c 0
 691.540039062 222.1328125 666.666992188 247.005859375 666.666992188 277.688476562 c 0
666.666992188 388.799804688 m 0
 666.666992188 419.482421875 691.540039062 444.35546875 722.22265625 444.35546875 c 0
 752.904296875 444.35546875 777.77734375 419.482421875 777.77734375 388.799804688 c 0
 777.77734375 358.1171875 752.904296875 333.244140625 722.22265625 333.244140625 c 0
 691.540039062 333.244140625 666.666992188 358.1171875 666.666992188 388.799804688 c 0
EndSplineSet
Validated: 5
EndChar

StartChar: n
Encoding: 110 110 13
Width: 666
VWidth: 0
Flags: HW
LayerCount: 2
Fore
SplineSet
0 55.466796875 m 0
 0 86.1494140625 24.873046875 111.022460938 55.5556640625 111.022460938 c 0
 86.23828125 111.022460938 111.111328125 86.1494140625 111.111328125 55.466796875 c 0
 111.111328125 24.7841796875 86.23828125 -0.0888671875 55.5556640625 -0.0888671875 c 0
 24.873046875 -0.0888671875 0 24.7841796875 0 55.466796875 c 0
0 166.577148438 m 0
 0 197.259765625 24.873046875 222.1328125 55.5556640625 222.1328125 c 0
 86.23828125 222.1328125 111.111328125 197.259765625 111.111328125 166.577148438 c 0
 111.111328125 135.895507812 86.23828125 111.022460938 55.5556640625 111.022460938 c 0
 24.873046875 111.022460938 0 135.895507812 0 166.577148438 c 0
0 277.688476562 m 0
 0 308.37109375 24.873046875 333.244140625 55.5556640625 333.244140625 c 0
 86.23828125 333.244140625 111.111328125 308.37109375 111.111328125 277.688476562 c 0
 111.111328125 247.005859375 86.23828125 222.1328125 55.5556640625 222.1328125 c 0
 24.873046875 222.1328125 0 247.005859375 0 277.688476562 c 0
0 388.799804688 m 0
 0 419.482421875 24.873046875 444.35546875 55.5556640625 444.35546875 c 0
 86.23828125 444.35546875 111.111328125 419.482421875 111.111328125 388.799804688 c 0
 111.111328125 358.1171875 86.23828125 333.244140625 55.5556640625 333.244140625 c 0
 24.873046875 333.244140625 0 358.1171875 0 388.799804688 c 0
0 499.911132812 m 0
 0 530.59375 24.873046875 555.466796875 55.5556640625 555.466796875 c 0
 86.23828125 555.466796875 111.111328125 530.59375 111.111328125 499.911132812 c 0
 111.111328125 469.228515625 86.23828125 444.35546875 55.5556640625 444.35546875 c 0
 24.873046875 444.35546875 0 469.228515625 0 499.911132812 c 0
0 611.022460938 m 0
 0 641.704101562 24.873046875 666.577148438 55.5556640625 666.577148438 c 0
 86.23828125 666.577148438 111.111328125 641.704101562 111.111328125 611.022460938 c 0
 111.111328125 580.33984375 86.23828125 555.466796875 55.5556640625 555.466796875 c 0
 24.873046875 555.466796875 0 580.33984375 0 611.022460938 c 0
111.111328125 611.022460938 m 0
 111.111328125 641.704101562 135.984375 666.577148438 166.666992188 666.577148438 c 0
 197.349609375 666.577148438 222.22265625 641.704101562 222.22265625 611.022460938 c 0
 222.22265625 580.33984375 197.349609375 555.466796875 166.666992188 555.466796875 c 0
 135.984375 555.466796875 111.111328125 580.33984375 111.111328125 611.022460938 c 0
222.22265625 611.022460938 m 0
 222.22265625 641.704101562 247.095703125 666.577148438 277.77734375 666.577148438 c 0
 308.459960938 666.577148438 333.333007812 641.704101562 333.333007812 611.022460938 c 0
 333.333007812 580.33984375 308.459960938 555.466796875 277.77734375 555.466796875 c 0
 247.095703125 555.466796875 222.22265625 580.33984375 222.22265625 611.022460938 c 0
333.333007812 611.022460938 m 0
 333.333007812 641.704101562 358.206054688 666.577148438 388.888671875 666.577148438 c 0
 419.571289062 666.577148438 444.444335938 641.704101562 444.444335938 611.022460938 c 0
 444.444335938 580.33984375 419.571289062 555.466796875 388.888671875 555.466796875 c 0
 358.206054688 555.466796875 333.333007812 580.33984375 333.333007812 611.022460938 c 0
444.444335938 499.911132812 m 0
 444.444335938 530.59375 469.317382812 555.466796875 500 555.466796875 c 0
 530.682617188 555.466796875 555.555664062 530.59375 555.555664062 499.911132812 c 0
 555.555664062 469.228515625 530.682617188 444.35546875 500 444.35546875 c 0
 469.317382812 444.35546875 444.444335938 469.228515625 444.444335938 499.911132812 c 0
444.444335938 388.799804688 m 0
 444.444335938 419.482421875 469.317382812 444.35546875 500 444.35546875 c 0
 530.682617188 444.35546875 555.555664062 419.482421875 555.555664062 388.799804688 c 0
 555.555664062 358.1171875 530.682617188 333.244140625 500 333.244140625 c 0
 469.317382812 333.244140625 444.444335938 358.1171875 444.444335938 388.799804688 c 0
444.444335938 277.688476562 m 0
 444.444335938 308.37109375 469.317382812 333.244140625 500 333.244140625 c 0
 530.682617188 333.244140625 555.555664062 308.37109375 555.555664062 277.688476562 c 0
 555.555664062 247.005859375 530.682617188 222.1328125 500 222.1328125 c 0
 469.317382812 222.1328125 444.444335938 247.005859375 444.444335938 277.688476562 c 0
444.444335938 166.577148438 m 0
 444.444335938 197.259765625 469.317382812 222.1328125 500 222.1328125 c 0
 530.682617188 222.1328125 555.555664062 197.259765625 555.555664062 166.577148438 c 0
 555.555664062 135.895507812 530.682617188 111.022460938 500 111.022460938 c 0
 469.317382812 111.022460938 444.444335938 135.895507812 444.444335938 166.577148438 c 0
444.444335938 55.466796875 m 0
 444.444335938 86.1494140625 469.317382812 111.022460938 500 111.022460938 c 0
 530.682617188 111.022460938 555.555664062 86.1494140625 555.555664062 55.466796875 c 0
 555.555664062 24.7841796875 530.682617188 -0.0888671875 500 -0.0888671875 c 0
 469.317382812 -0.0888671875 444.444335938 24.7841796875 444.444335938 55.466796875 c 0
EndSplineSet
Validated: 5
EndChar

StartChar: one
Encoding: 49 49 14
Width: 777
VWidth: 0
Flags: HW
LayerCount: 2
Fore
SplineSet
333.333007812 833.344726562 m 0
 333.333007812 864.02734375 358.206054688 888.900390625 388.888671875 888.900390625 c 0
 419.571289062 888.900390625 444.444335938 864.02734375 444.444335938 833.344726562 c 0
 444.444335938 802.662109375 419.571289062 777.7890625 388.888671875 777.7890625 c 0
 358.206054688 777.7890625 333.333007812 802.662109375 333.333007812 833.344726562 c 0
333.333007812 722.233398438 m 0
 333.333007812 752.916015625 358.206054688 777.7890625 388.888671875 777.7890625 c 0
 419.571289062 777.7890625 444.444335938 752.916015625 444.444335938 722.233398438 c 0
 444.444335938 691.55078125 419.571289062 666.677734375 388.888671875 666.677734375 c 0
 358.206054688 666.677734375 333.333007812 691.55078125 333.333007812 722.233398438 c 0
333.333007812 611.123046875 m 0
 333.333007812 641.8046875 358.206054688 666.677734375 388.888671875 666.677734375 c 0
 419.571289062 666.677734375 444.444335938 641.8046875 444.444335938 611.123046875 c 0
 444.444335938 580.440429688 419.571289062 555.567382812 388.888671875 555.567382812 c 0
 358.206054688 555.567382812 333.333007812 580.440429688 333.333007812 611.123046875 c 0
333.333007812 500.01171875 m 0
 333.333007812 530.694335938 358.206054688 555.567382812 388.888671875 555.567382812 c 0
 419.571289062 555.567382812 444.444335938 530.694335938 444.444335938 500.01171875 c 0
 444.444335938 469.329101562 419.571289062 444.456054688 388.888671875 444.456054688 c 0
 358.206054688 444.456054688 333.333007812 469.329101562 333.333007812 500.01171875 c 0
333.333007812 388.900390625 m 0
 333.333007812 419.583007812 358.206054688 444.456054688 388.888671875 444.456054688 c 0
 419.571289062 444.456054688 444.444335938 419.583007812 444.444335938 388.900390625 c 0
 444.444335938 358.217773438 419.571289062 333.344726562 388.888671875 333.344726562 c 0
 358.206054688 333.344726562 333.333007812 358.217773438 333.333007812 388.900390625 c 0
333.333007812 277.7890625 m 0
 333.333007812 308.471679688 358.206054688 333.344726562 388.888671875 333.344726562 c 0
 419.571289062 333.344726562 444.444335938 308.471679688 444.444335938 277.7890625 c 0
 444.444335938 247.106445312 419.571289062 222.233398438 388.888671875 222.233398438 c 0
 358.206054688 222.233398438 333.333007812 247.106445312 333.333007812 277.7890625 c 0
333.333007812 166.677734375 m 0
 333.333007812 197.360351562 358.206054688 222.233398438 388.888671875 222.233398438 c 0
 419.571289062 222.233398438 444.444335938 197.360351562 444.444335938 166.677734375 c 0
 444.444335938 135.99609375 419.571289062 111.123046875 388.888671875 111.123046875 c 0
 358.206054688 111.123046875 333.333007812 135.99609375 333.333007812 166.677734375 c 0
333.333007812 55.5673828125 m 0
 333.333007812 86.25 358.206054688 111.123046875 388.888671875 111.123046875 c 0
 419.571289062 111.123046875 444.444335938 86.25 444.444335938 55.5673828125 c 0
 444.444335938 24.884765625 419.571289062 0.01171875 388.888671875 0.01171875 c 0
 358.206054688 0.01171875 333.333007812 24.884765625 333.333007812 55.5673828125 c 0
333.333007812 -55.5439453125 m 0
 333.333007812 -24.861328125 358.206054688 0.01171875 388.888671875 0.01171875 c 0
 419.571289062 0.01171875 444.444335938 -24.861328125 444.444335938 -55.5439453125 c 0
 444.444335938 -86.2265625 419.571289062 -111.099609375 388.888671875 -111.099609375 c 4
 358.206054688 -111.099609375 333.333007812 -86.2265625 333.333007812 -55.5439453125 c 0
222.22265625 722.233398438 m 0
 222.22265625 752.916015625 247.095703125 777.7890625 277.77734375 777.7890625 c 0
 308.459960938 777.7890625 333.333007812 752.916015625 333.333007812 722.233398438 c 0
 333.333007812 691.55078125 308.459960938 666.677734375 277.77734375 666.677734375 c 0
 247.095703125 666.677734375 222.22265625 691.55078125 222.22265625 722.233398438 c 0
EndSplineSet
EndChar

StartChar: two
Encoding: 50 50 15
Width: 777
VWidth: 0
Flags: HW
LayerCount: 2
Fore
SplineSet
0 722.233398438 m 0
 0 752.916015625 24.873046875 777.7890625 55.5556640625 777.7890625 c 0
 86.23828125 777.7890625 111.111328125 752.916015625 111.111328125 722.233398438 c 0
 111.111328125 691.55078125 86.23828125 666.677734375 55.5556640625 666.677734375 c 0
 24.873046875 666.677734375 0 691.55078125 0 722.233398438 c 0
111.111328125 833.344726562 m 0
 111.111328125 864.02734375 135.984375 888.900390625 166.666992188 888.900390625 c 0
 197.349609375 888.900390625 222.22265625 864.02734375 222.22265625 833.344726562 c 0
 222.22265625 802.662109375 197.349609375 777.7890625 166.666992188 777.7890625 c 0
 135.984375 777.7890625 111.111328125 802.662109375 111.111328125 833.344726562 c 0
222.22265625 833.344726562 m 0
 222.22265625 864.02734375 247.095703125 888.900390625 277.77734375 888.900390625 c 0
 308.459960938 888.900390625 333.333007812 864.02734375 333.333007812 833.344726562 c 0
 333.333007812 802.662109375 308.459960938 777.7890625 277.77734375 777.7890625 c 0
 247.095703125 777.7890625 222.22265625 802.662109375 222.22265625 833.344726562 c 0
333.333007812 833.344726562 m 0
 333.333007812 864.02734375 358.206054688 888.900390625 388.888671875 888.900390625 c 0
 419.571289062 888.900390625 444.444335938 864.02734375 444.444335938 833.344726562 c 0
 444.444335938 802.662109375 419.571289062 777.7890625 388.888671875 777.7890625 c 0
 358.206054688 777.7890625 333.333007812 802.662109375 333.333007812 833.344726562 c 0
444.444335938 833.344726562 m 0
 444.444335938 864.02734375 469.317382812 888.900390625 500 888.900390625 c 0
 530.682617188 888.900390625 555.555664062 864.02734375 555.555664062 833.344726562 c 0
 555.555664062 802.662109375 530.682617188 777.7890625 500 777.7890625 c 0
 469.317382812 777.7890625 444.444335938 802.662109375 444.444335938 833.344726562 c 0
555.555664062 722.233398438 m 0
 555.555664062 752.916015625 580.428710938 777.7890625 611.111328125 777.7890625 c 0
 641.793945312 777.7890625 666.666992188 752.916015625 666.666992188 722.233398438 c 0
 666.666992188 691.55078125 641.793945312 666.677734375 611.111328125 666.677734375 c 0
 580.428710938 666.677734375 555.555664062 691.55078125 555.555664062 722.233398438 c 0
555.555664062 611.123046875 m 0
 555.555664062 641.8046875 580.428710938 666.677734375 611.111328125 666.677734375 c 0
 641.793945312 666.677734375 666.666992188 641.8046875 666.666992188 611.123046875 c 0
 666.666992188 580.440429688 641.793945312 555.567382812 611.111328125 555.567382812 c 0
 580.428710938 555.567382812 555.555664062 580.440429688 555.555664062 611.123046875 c 0
555.555664062 500.01171875 m 0
 555.555664062 530.694335938 580.428710938 555.567382812 611.111328125 555.567382812 c 0
 641.793945312 555.567382812 666.666992188 530.694335938 666.666992188 500.01171875 c 0
 666.666992188 469.329101562 641.793945312 444.456054688 611.111328125 444.456054688 c 0
 580.428710938 444.456054688 555.555664062 469.329101562 555.555664062 500.01171875 c 0
444.444335938 388.900390625 m 0
 444.444335938 419.583007812 469.317382812 444.456054688 500 444.456054688 c 0
 530.682617188 444.456054688 555.555664062 419.583007812 555.555664062 388.900390625 c 0
 555.555664062 358.217773438 530.682617188 333.344726562 500 333.344726562 c 0
 469.317382812 333.344726562 444.444335938 358.217773438 444.444335938 388.900390625 c 0
333.333007812 277.7890625 m 0
 333.333007812 308.471679688 358.206054688 333.344726562 388.888671875 333.344726562 c 0
 419.571289062 333.344726562 444.444335938 308.471679688 444.444335938 277.7890625 c 0
 444.444335938 247.106445312 419.571289062 222.233398438 388.888671875 222.233398438 c 0
 358.206054688 222.233398438 333.333007812 247.106445312 333.333007812 277.7890625 c 0
222.22265625 166.677734375 m 0
 222.22265625 197.360351562 247.095703125 222.233398438 277.77734375 222.233398438 c 0
 308.459960938 222.233398438 333.333007812 197.360351562 333.333007812 166.677734375 c 0
 333.333007812 135.99609375 308.459960938 111.123046875 277.77734375 111.123046875 c 0
 247.095703125 111.123046875 222.22265625 135.99609375 222.22265625 166.677734375 c 0
111.111328125 55.5673828125 m 0
 111.111328125 86.25 135.984375 111.123046875 166.666992188 111.123046875 c 0
 197.349609375 111.123046875 222.22265625 86.25 222.22265625 55.5673828125 c 0
 222.22265625 24.884765625 197.349609375 0.01171875 166.666992188 0.01171875 c 0
 135.984375 0.01171875 111.111328125 24.884765625 111.111328125 55.5673828125 c 0
0 -55.5439453125 m 0
 0 -24.861328125 24.873046875 0.01171875 55.5556640625 0.01171875 c 0
 86.23828125 0.01171875 111.111328125 -24.861328125 111.111328125 -55.5439453125 c 0
 111.111328125 -86.2265625 86.23828125 -111.099609375 55.5556640625 -111.099609375 c 0
 24.873046875 -111.099609375 0 -86.2265625 0 -55.5439453125 c 0
111.111328125 -55.5439453125 m 0
 111.111328125 -24.861328125 135.984375 0.01171875 166.666992188 0.01171875 c 0
 197.349609375 0.01171875 222.22265625 -24.861328125 222.22265625 -55.5439453125 c 0
 222.22265625 -86.2265625 197.349609375 -111.099609375 166.666992188 -111.099609375 c 0
 135.984375 -111.099609375 111.111328125 -86.2265625 111.111328125 -55.5439453125 c 0
222.22265625 -55.5439453125 m 0
 222.22265625 -24.861328125 247.095703125 0.01171875 277.77734375 0.01171875 c 0
 308.459960938 0.01171875 333.333007812 -24.861328125 333.333007812 -55.5439453125 c 0
 333.333007812 -86.2265625 308.459960938 -111.099609375 277.77734375 -111.099609375 c 0
 247.095703125 -111.099609375 222.22265625 -86.2265625 222.22265625 -55.5439453125 c 0
444.444335938 -55.5439453125 m 0
 444.444335938 -24.861328125 469.317382812 0.01171875 500 0.01171875 c 0
 530.682617188 0.01171875 555.555664062 -24.861328125 555.555664062 -55.5439453125 c 0
 555.555664062 -86.2265625 530.682617188 -111.099609375 500 -111.099609375 c 0
 469.317382812 -111.099609375 444.444335938 -86.2265625 444.444335938 -55.5439453125 c 0
333.333007812 -55.5439453125 m 0
 333.333007812 -24.861328125 358.206054688 0.01171875 388.888671875 0.01171875 c 0
 419.571289062 0.01171875 444.444335938 -24.861328125 444.444335938 -55.5439453125 c 0
 444.444335938 -86.2265625 419.571289062 -111.099609375 388.888671875 -111.099609375 c 4
 358.206054688 -111.099609375 333.333007812 -86.2265625 333.333007812 -55.5439453125 c 0
555.555664062 -55.5439453125 m 0
 555.555664062 -24.861328125 580.428710938 0.01171875 611.111328125 0.01171875 c 0
 641.793945312 0.01171875 666.666992188 -24.861328125 666.666992188 -55.5439453125 c 0
 666.666992188 -86.2265625 641.793945312 -111.099609375 611.111328125 -111.099609375 c 0
 580.428710938 -111.099609375 555.555664062 -86.2265625 555.555664062 -55.5439453125 c 0
EndSplineSet
EndChar

StartChar: three
Encoding: 51 51 16
Width: 777
VWidth: 0
Flags: HW
LayerCount: 2
Fore
SplineSet
0 722.233398438 m 0
 0 752.916015625 24.873046875 777.7890625 55.5556640625 777.7890625 c 0
 86.23828125 777.7890625 111.111328125 752.916015625 111.111328125 722.233398438 c 0
 111.111328125 691.55078125 86.23828125 666.677734375 55.5556640625 666.677734375 c 0
 24.873046875 666.677734375 0 691.55078125 0 722.233398438 c 0
111.111328125 833.344726562 m 0
 111.111328125 864.02734375 135.984375 888.900390625 166.666992188 888.900390625 c 0
 197.349609375 888.900390625 222.22265625 864.02734375 222.22265625 833.344726562 c 0
 222.22265625 802.662109375 197.349609375 777.7890625 166.666992188 777.7890625 c 0
 135.984375 777.7890625 111.111328125 802.662109375 111.111328125 833.344726562 c 0
222.22265625 833.344726562 m 0
 222.22265625 864.02734375 247.095703125 888.900390625 277.77734375 888.900390625 c 0
 308.459960938 888.900390625 333.333007812 864.02734375 333.333007812 833.344726562 c 0
 333.333007812 802.662109375 308.459960938 777.7890625 277.77734375 777.7890625 c 0
 247.095703125 777.7890625 222.22265625 802.662109375 222.22265625 833.344726562 c 0
333.333007812 833.344726562 m 0
 333.333007812 864.02734375 358.206054688 888.900390625 388.888671875 888.900390625 c 0
 419.571289062 888.900390625 444.444335938 864.02734375 444.444335938 833.344726562 c 0
 444.444335938 802.662109375 419.571289062 777.7890625 388.888671875 777.7890625 c 0
 358.206054688 777.7890625 333.333007812 802.662109375 333.333007812 833.344726562 c 0
444.444335938 833.344726562 m 0
 444.444335938 864.02734375 469.317382812 888.900390625 500 888.900390625 c 0
 530.682617188 888.900390625 555.555664062 864.02734375 555.555664062 833.344726562 c 0
 555.555664062 802.662109375 530.682617188 777.7890625 500 777.7890625 c 0
 469.317382812 777.7890625 444.444335938 802.662109375 444.444335938 833.344726562 c 0
555.555664062 722.233398438 m 0
 555.555664062 752.916015625 580.428710938 777.7890625 611.111328125 777.7890625 c 0
 641.793945312 777.7890625 666.666992188 752.916015625 666.666992188 722.233398438 c 0
 666.666992188 691.55078125 641.793945312 666.677734375 611.111328125 666.677734375 c 0
 580.428710938 666.677734375 555.555664062 691.55078125 555.555664062 722.233398438 c 0
555.555664062 611.123046875 m 0
 555.555664062 641.8046875 580.428710938 666.677734375 611.111328125 666.677734375 c 0
 641.793945312 666.677734375 666.666992188 641.8046875 666.666992188 611.123046875 c 0
 666.666992188 580.440429688 641.793945312 555.567382812 611.111328125 555.567382812 c 0
 580.428710938 555.567382812 555.555664062 580.440429688 555.555664062 611.123046875 c 0
22.22265625 55.5673828125 m 0
 22.22265625 86.25 47.095703125 111.123046875 77.77734375 111.123046875 c 0
 108.459960938 111.123046875 133.333007812 86.25 133.333007812 55.5673828125 c 0
 133.333007812 24.884765625 108.459960938 0.01171875 77.77734375 0.01171875 c 0
 47.095703125 0.01171875 22.22265625 24.884765625 22.22265625 55.5673828125 c 0
111.111328125 -55.5439453125 m 0
 111.111328125 -24.861328125 135.984375 0.01171875 166.666992188 0.01171875 c 0
 197.349609375 0.01171875 222.22265625 -24.861328125 222.22265625 -55.5439453125 c 0
 222.22265625 -86.2265625 197.349609375 -111.099609375 166.666992188 -111.099609375 c 0
 135.984375 -111.099609375 111.111328125 -86.2265625 111.111328125 -55.5439453125 c 0
222.22265625 -55.5439453125 m 0
 222.22265625 -24.861328125 247.095703125 0.01171875 277.77734375 0.01171875 c 0
 308.459960938 0.01171875 333.333007812 -24.861328125 333.333007812 -55.5439453125 c 0
 333.333007812 -86.2265625 308.459960938 -111.099609375 277.77734375 -111.099609375 c 0
 247.095703125 -111.099609375 222.22265625 -86.2265625 222.22265625 -55.5439453125 c 0
333.333007812 -55.5439453125 m 0
 333.333007812 -24.861328125 358.206054688 0.01171875 388.888671875 0.01171875 c 0
 419.571289062 0.01171875 444.444335938 -24.861328125 444.444335938 -55.5439453125 c 0
 444.444335938 -86.2265625 419.571289062 -111.099609375 388.888671875 -111.099609375 c 0
 358.206054688 -111.099609375 333.333007812 -86.2265625 333.333007812 -55.5439453125 c 0
444.444335938 -55.5439453125 m 0
 444.444335938 -24.861328125 469.317382812 0.01171875 500 0.01171875 c 0
 530.682617188 0.01171875 555.555664062 -24.861328125 555.555664062 -55.5439453125 c 0
 555.555664062 -86.2265625 530.682617188 -111.099609375 500 -111.099609375 c 0
 469.317382812 -111.099609375 444.444335938 -86.2265625 444.444335938 -55.5439453125 c 0
555.555664062 55.5673828125 m 0
 555.555664062 86.25 580.428710938 111.123046875 611.111328125 111.123046875 c 0
 641.793945312 111.123046875 666.666992188 86.25 666.666992188 55.5673828125 c 0
 666.666992188 24.884765625 641.793945312 0.01171875 611.111328125 0.01171875 c 0
 580.428710938 0.01171875 555.555664062 24.884765625 555.555664062 55.5673828125 c 0
555.555664062 166.677734375 m 0
 555.555664062 197.360351562 580.428710938 222.233398438 611.111328125 222.233398438 c 0
 641.793945312 222.233398438 666.666992188 197.360351562 666.666992188 166.677734375 c 0
 666.666992188 135.99609375 641.793945312 111.123046875 611.111328125 111.123046875 c 0
 580.428710938 111.123046875 555.555664062 135.99609375 555.555664062 166.677734375 c 0
555.555664062 277.7890625 m 0
 555.555664062 308.471679688 580.428710938 333.344726562 611.111328125 333.344726562 c 0
 641.793945312 333.344726562 666.666992188 308.471679688 666.666992188 277.7890625 c 0
 666.666992188 247.106445312 641.793945312 222.233398438 611.111328125 222.233398438 c 0
 580.428710938 222.233398438 555.555664062 247.106445312 555.555664062 277.7890625 c 0
555.555664062 500.01171875 m 0
 555.555664062 530.694335938 580.428710938 555.567382812 611.111328125 555.567382812 c 0
 641.793945312 555.567382812 666.666992188 530.694335938 666.666992188 500.01171875 c 0
 666.666992188 469.329101562 641.793945312 444.456054688 611.111328125 444.456054688 c 0
 580.428710938 444.456054688 555.555664062 469.329101562 555.555664062 500.01171875 c 0
333.333007812 388.900390625 m 0
 333.333007812 419.583007812 358.206054688 444.456054688 388.888671875 444.456054688 c 0
 419.571289062 444.456054688 444.444335938 419.583007812 444.444335938 388.900390625 c 0
 444.444335938 358.217773438 419.571289062 333.344726562 388.888671875 333.344726562 c 0
 358.206054688 333.344726562 333.333007812 358.217773438 333.333007812 388.900390625 c 0
444.444335938 388.900390625 m 0
 444.444335938 419.583007812 469.317382812 444.456054688 500 444.456054688 c 0
 530.682617188 444.456054688 555.555664062 419.583007812 555.555664062 388.900390625 c 0
 555.555664062 358.217773438 530.682617188 333.344726562 500 333.344726562 c 0
 469.317382812 333.344726562 444.444335938 358.217773438 444.444335938 388.900390625 c 0
222.22265625 388.900390625 m 0
 222.22265625 419.583007812 247.095703125 444.456054688 277.77734375 444.456054688 c 0
 308.459960938 444.456054688 333.333007812 419.583007812 333.333007812 388.900390625 c 0
 333.333007812 358.217773438 308.459960938 333.344726562 277.77734375 333.344726562 c 0
 247.095703125 333.344726562 222.22265625 358.217773438 222.22265625 388.900390625 c 0
EndSplineSet
EndChar

StartChar: five
Encoding: 53 53 17
Width: 777
VWidth: 0
Flags: HW
LayerCount: 2
Fore
SplineSet
555.555664062 833.344726562 m 0
 555.555664062 864.02734375 580.428710938 888.900390625 611.111328125 888.900390625 c 0
 641.793945312 888.900390625 666.666992188 864.02734375 666.666992188 833.344726562 c 0
 666.666992188 802.662109375 641.793945312 777.7890625 611.111328125 777.7890625 c 0
 580.428710938 777.7890625 555.555664062 802.662109375 555.555664062 833.344726562 c 0
444.444335938 833.344726562 m 0
 444.444335938 864.02734375 469.317382812 888.900390625 500 888.900390625 c 0
 530.682617188 888.900390625 555.555664062 864.02734375 555.555664062 833.344726562 c 0
 555.555664062 802.662109375 530.682617188 777.7890625 500 777.7890625 c 0
 469.317382812 777.7890625 444.444335938 802.662109375 444.444335938 833.344726562 c 0
333.333007812 833.344726562 m 0
 333.333007812 864.02734375 358.206054688 888.900390625 388.888671875 888.900390625 c 0
 419.571289062 888.900390625 444.444335938 864.02734375 444.444335938 833.344726562 c 0
 444.444335938 802.662109375 419.571289062 777.7890625 388.888671875 777.7890625 c 0
 358.206054688 777.7890625 333.333007812 802.662109375 333.333007812 833.344726562 c 0
222.22265625 833.344726562 m 0
 222.22265625 864.02734375 247.095703125 888.900390625 277.77734375 888.900390625 c 0
 308.459960938 888.900390625 333.333007812 864.02734375 333.333007812 833.344726562 c 0
 333.333007812 802.662109375 308.459960938 777.7890625 277.77734375 777.7890625 c 0
 247.095703125 777.7890625 222.22265625 802.662109375 222.22265625 833.344726562 c 0
111.111328125 833.344726562 m 0
 111.111328125 864.02734375 135.984375 888.900390625 166.666992188 888.900390625 c 0
 197.349609375 888.900390625 222.22265625 864.02734375 222.22265625 833.344726562 c 0
 222.22265625 802.662109375 197.349609375 777.7890625 166.666992188 777.7890625 c 0
 135.984375 777.7890625 111.111328125 802.662109375 111.111328125 833.344726562 c 0
0 833.344726562 m 0
 0 864.02734375 24.873046875 888.900390625 55.5556640625 888.900390625 c 0
 86.23828125 888.900390625 111.111328125 864.02734375 111.111328125 833.344726562 c 0
 111.111328125 802.662109375 86.23828125 777.7890625 55.5556640625 777.7890625 c 0
 24.873046875 777.7890625 0 802.662109375 0 833.344726562 c 0
0 722.233398438 m 0
 0 752.916015625 24.873046875 777.7890625 55.5556640625 777.7890625 c 0
 86.23828125 777.7890625 111.111328125 752.916015625 111.111328125 722.233398438 c 0
 111.111328125 691.55078125 86.23828125 666.677734375 55.5556640625 666.677734375 c 0
 24.873046875 666.677734375 0 691.55078125 0 722.233398438 c 0
0 611.123046875 m 0
 0 641.8046875 24.873046875 666.677734375 55.5556640625 666.677734375 c 0
 86.23828125 666.677734375 111.111328125 641.8046875 111.111328125 611.123046875 c 0
 111.111328125 580.440429688 86.23828125 555.567382812 55.5556640625 555.567382812 c 0
 24.873046875 555.567382812 0 580.440429688 0 611.123046875 c 0
0 500.01171875 m 0
 0 530.694335938 24.873046875 555.567382812 55.5556640625 555.567382812 c 0
 86.23828125 555.567382812 111.111328125 530.694335938 111.111328125 500.01171875 c 0
 111.111328125 469.329101562 86.23828125 444.456054688 55.5556640625 444.456054688 c 0
 24.873046875 444.456054688 0 469.329101562 0 500.01171875 c 0
111.111328125 500.01171875 m 0
 111.111328125 530.694335938 135.984375 555.567382812 166.666992188 555.567382812 c 0
 197.349609375 555.567382812 222.22265625 530.694335938 222.22265625 500.01171875 c 0
 222.22265625 469.329101562 197.349609375 444.456054688 166.666992188 444.456054688 c 0
 135.984375 444.456054688 111.111328125 469.329101562 111.111328125 500.01171875 c 0
555.555664062 388.900390625 m 0
 555.555664062 419.583007812 580.428710938 444.456054688 611.111328125 444.456054688 c 0
 641.793945312 444.456054688 666.666992188 419.583007812 666.666992188 388.900390625 c 0
 666.666992188 358.217773438 641.793945312 333.344726562 611.111328125 333.344726562 c 0
 580.428710938 333.344726562 555.555664062 358.217773438 555.555664062 388.900390625 c 0
555.555664062 277.7890625 m 0
 555.555664062 308.471679688 580.428710938 333.344726562 611.111328125 333.344726562 c 0
 641.793945312 333.344726562 666.666992188 308.471679688 666.666992188 277.7890625 c 0
 666.666992188 247.106445312 641.793945312 222.233398438 611.111328125 222.233398438 c 0
 580.428710938 222.233398438 555.555664062 247.106445312 555.555664062 277.7890625 c 0
555.555664062 166.677734375 m 0
 555.555664062 197.360351562 580.428710938 222.233398438 611.111328125 222.233398438 c 0
 641.793945312 222.233398438 666.666992188 197.360351562 666.666992188 166.677734375 c 0
 666.666992188 135.99609375 641.793945312 111.123046875 611.111328125 111.123046875 c 0
 580.428710938 111.123046875 555.555664062 135.99609375 555.555664062 166.677734375 c 0
555.555664062 55.5673828125 m 0
 555.555664062 86.25 580.428710938 111.123046875 611.111328125 111.123046875 c 0
 641.793945312 111.123046875 666.666992188 86.25 666.666992188 55.5673828125 c 0
 666.666992188 24.884765625 641.793945312 0.01171875 611.111328125 0.01171875 c 0
 580.428710938 0.01171875 555.555664062 24.884765625 555.555664062 55.5673828125 c 0
444.444335938 -55.5439453125 m 0
 444.444335938 -24.861328125 469.317382812 0.01171875 500 0.01171875 c 0
 530.682617188 0.01171875 555.555664062 -24.861328125 555.555664062 -55.5439453125 c 0
 555.555664062 -86.2265625 530.682617188 -111.099609375 500 -111.099609375 c 0
 469.317382812 -111.099609375 444.444335938 -86.2265625 444.444335938 -55.5439453125 c 0
333.333007812 -55.5439453125 m 0
 333.333007812 -24.861328125 358.206054688 0.01171875 388.888671875 0.01171875 c 0
 419.571289062 0.01171875 444.444335938 -24.861328125 444.444335938 -55.5439453125 c 0
 444.444335938 -86.2265625 419.571289062 -111.099609375 388.888671875 -111.099609375 c 0
 358.206054688 -111.099609375 333.333007812 -86.2265625 333.333007812 -55.5439453125 c 0
222.22265625 -55.5439453125 m 0
 222.22265625 -24.861328125 247.095703125 0.01171875 277.77734375 0.01171875 c 0
 308.459960938 0.01171875 333.333007812 -24.861328125 333.333007812 -55.5439453125 c 0
 333.333007812 -86.2265625 308.459960938 -111.099609375 277.77734375 -111.099609375 c 0
 247.095703125 -111.099609375 222.22265625 -86.2265625 222.22265625 -55.5439453125 c 0
111.111328125 -55.5439453125 m 0
 111.111328125 -24.861328125 135.984375 0.01171875 166.666992188 0.01171875 c 0
 197.349609375 0.01171875 222.22265625 -24.861328125 222.22265625 -55.5439453125 c 0
 222.22265625 -86.2265625 197.349609375 -111.099609375 166.666992188 -111.099609375 c 0
 135.984375 -111.099609375 111.111328125 -86.2265625 111.111328125 -55.5439453125 c 0
0 55.5673828125 m 0
 0 86.25 24.873046875 111.123046875 55.5556640625 111.123046875 c 0
 86.23828125 111.123046875 111.111328125 86.25 111.111328125 55.5673828125 c 0
 111.111328125 24.884765625 86.23828125 0.01171875 55.5556640625 0.01171875 c 0
 24.873046875 0.01171875 0 24.884765625 0 55.5673828125 c 0
222.22265625 500.01171875 m 0
 222.22265625 530.694335938 247.095703125 555.567382812 277.77734375 555.567382812 c 0
 308.459960938 555.567382812 333.333007812 530.694335938 333.333007812 500.01171875 c 0
 333.333007812 469.329101562 308.459960938 444.456054688 277.77734375 444.456054688 c 0
 247.095703125 444.456054688 222.22265625 469.329101562 222.22265625 500.01171875 c 0
333.333007812 500.01171875 m 0
 333.333007812 530.694335938 358.206054688 555.567382812 388.888671875 555.567382812 c 0
 419.571289062 555.567382812 444.444335938 530.694335938 444.444335938 500.01171875 c 0
 444.444335938 469.329101562 419.571289062 444.456054688 388.888671875 444.456054688 c 0
 358.206054688 444.456054688 333.333007812 469.329101562 333.333007812 500.01171875 c 0
444.444335938 500.01171875 m 0
 444.444335938 530.694335938 469.317382812 555.567382812 500 555.567382812 c 0
 530.682617188 555.567382812 555.555664062 530.694335938 555.555664062 500.01171875 c 0
 555.555664062 469.329101562 530.682617188 444.456054688 500 444.456054688 c 0
 469.317382812 444.456054688 444.444335938 469.329101562 444.444335938 500.01171875 c 0
EndSplineSet
EndChar

StartChar: seven
Encoding: 55 55 18
Width: 777
VWidth: 0
Flags: HW
LayerCount: 2
Fore
SplineSet
0 833.344726562 m 0
 0 864.02734375 24.873046875 888.900390625 55.5556640625 888.900390625 c 0
 86.23828125 888.900390625 111.111328125 864.02734375 111.111328125 833.344726562 c 0
 111.111328125 802.662109375 86.23828125 777.7890625 55.5556640625 777.7890625 c 0
 24.873046875 777.7890625 0 802.662109375 0 833.344726562 c 0
111.111328125 833.344726562 m 0
 111.111328125 864.02734375 135.984375 888.900390625 166.666992188 888.900390625 c 0
 197.349609375 888.900390625 222.22265625 864.02734375 222.22265625 833.344726562 c 0
 222.22265625 802.662109375 197.349609375 777.7890625 166.666992188 777.7890625 c 0
 135.984375 777.7890625 111.111328125 802.662109375 111.111328125 833.344726562 c 0
222.22265625 833.344726562 m 0
 222.22265625 864.02734375 247.095703125 888.900390625 277.77734375 888.900390625 c 0
 308.459960938 888.900390625 333.333007812 864.02734375 333.333007812 833.344726562 c 0
 333.333007812 802.662109375 308.459960938 777.7890625 277.77734375 777.7890625 c 0
 247.095703125 777.7890625 222.22265625 802.662109375 222.22265625 833.344726562 c 0
333.333007812 833.344726562 m 0
 333.333007812 864.02734375 358.206054688 888.900390625 388.888671875 888.900390625 c 0
 419.571289062 888.900390625 444.444335938 864.02734375 444.444335938 833.344726562 c 0
 444.444335938 802.662109375 419.571289062 777.7890625 388.888671875 777.7890625 c 0
 358.206054688 777.7890625 333.333007812 802.662109375 333.333007812 833.344726562 c 0
444.444335938 833.344726562 m 0
 444.444335938 864.02734375 469.317382812 888.900390625 500 888.900390625 c 0
 530.682617188 888.900390625 555.555664062 864.02734375 555.555664062 833.344726562 c 0
 555.555664062 802.662109375 530.682617188 777.7890625 500 777.7890625 c 0
 469.317382812 777.7890625 444.444335938 802.662109375 444.444335938 833.344726562 c 0
555.555664062 833.344726562 m 0
 555.555664062 864.02734375 580.428710938 888.900390625 611.111328125 888.900390625 c 0
 641.793945312 888.900390625 666.666992188 864.02734375 666.666992188 833.344726562 c 0
 666.666992188 802.662109375 641.793945312 777.7890625 611.111328125 777.7890625 c 0
 580.428710938 777.7890625 555.555664062 802.662109375 555.555664062 833.344726562 c 0
555.555664062 722.233398438 m 0
 555.555664062 752.916015625 580.428710938 777.7890625 611.111328125 777.7890625 c 0
 641.793945312 777.7890625 666.666992188 752.916015625 666.666992188 722.233398438 c 0
 666.666992188 691.55078125 641.793945312 666.677734375 611.111328125 666.677734375 c 0
 580.428710938 666.677734375 555.555664062 691.55078125 555.555664062 722.233398438 c 0
0 -55.5439453125 m 0
 0 -24.861328125 24.873046875 0.01171875 55.5556640625 0.01171875 c 0
 86.23828125 0.01171875 111.111328125 -24.861328125 111.111328125 -55.5439453125 c 0
 111.111328125 -86.2265625 86.23828125 -111.099609375 55.5556640625 -111.099609375 c 0
 24.873046875 -111.099609375 0 -86.2265625 0 -55.5439453125 c 0
0 55.5673828125 m 0
 0 86.25 24.873046875 111.123046875 55.5556640625 111.123046875 c 0
 86.23828125 111.123046875 111.111328125 86.25 111.111328125 55.5673828125 c 0
 111.111328125 24.884765625 86.23828125 0.01171875 55.5556640625 0.01171875 c 0
 24.873046875 0.01171875 0 24.884765625 0 55.5673828125 c 0
111.111328125 166.677734375 m 0
 111.111328125 197.360351562 135.984375 222.233398438 166.666992188 222.233398438 c 0
 197.349609375 222.233398438 222.22265625 197.360351562 222.22265625 166.677734375 c 0
 222.22265625 135.99609375 197.349609375 111.123046875 166.666992188 111.123046875 c 0
 135.984375 111.123046875 111.111328125 135.99609375 111.111328125 166.677734375 c 0
222.22265625 277.7890625 m 0
 222.22265625 308.471679688 247.095703125 333.344726562 277.77734375 333.344726562 c 0
 308.459960938 333.344726562 333.333007812 308.471679688 333.333007812 277.7890625 c 0
 333.333007812 247.106445312 308.459960938 222.233398438 277.77734375 222.233398438 c 0
 247.095703125 222.233398438 222.22265625 247.106445312 222.22265625 277.7890625 c 0
333.333007812 388.900390625 m 0
 333.333007812 419.583007812 358.206054688 444.456054688 388.888671875 444.456054688 c 0
 419.571289062 444.456054688 444.444335938 419.583007812 444.444335938 388.900390625 c 0
 444.444335938 358.217773438 419.571289062 333.344726562 388.888671875 333.344726562 c 0
 358.206054688 333.344726562 333.333007812 358.217773438 333.333007812 388.900390625 c 0
444.444335938 500.01171875 m 0
 444.444335938 530.694335938 469.317382812 555.567382812 500 555.567382812 c 0
 530.682617188 555.567382812 555.555664062 530.694335938 555.555664062 500.01171875 c 0
 555.555664062 469.329101562 530.682617188 444.456054688 500 444.456054688 c 0
 469.317382812 444.456054688 444.444335938 469.329101562 444.444335938 500.01171875 c 0
555.555664062 611.123046875 m 0
 555.555664062 641.8046875 580.428710938 666.677734375 611.111328125 666.677734375 c 0
 641.793945312 666.677734375 666.666992188 641.8046875 666.666992188 611.123046875 c 0
 666.666992188 580.440429688 641.793945312 555.567382812 611.111328125 555.567382812 c 0
 580.428710938 555.567382812 555.555664062 580.440429688 555.555664062 611.123046875 c 0
EndSplineSet
EndChar

StartChar: g
Encoding: 103 103 19
Width: 666
VWidth: 0
Flags: HW
LayerCount: 2
Fore
SplineSet
111 55.5 m 0
 111 86.1513671875 135.848632812 111 166.5 111 c 0
 197.151367188 111 222 86.1513671875 222 55.5 c 0
 222 24.8486328125 197.151367188 0 166.5 0 c 0
 135.848632812 0 111 24.8486328125 111 55.5 c 0
222 55.5 m 0
 222 86.1513671875 246.848632812 111 277.5 111 c 0
 308.151367188 111 333 86.1513671875 333 55.5 c 0
 333 24.8486328125 308.151367188 0 277.5 0 c 0
 246.848632812 0 222 24.8486328125 222 55.5 c 0
333 55.5 m 0
 333 86.1513671875 357.848632812 111 388.5 111 c 0
 419.151367188 111 444 86.1513671875 444 55.5 c 0
 444 24.8486328125 419.151367188 0 388.5 0 c 0
 357.848632812 0 333 24.8486328125 333 55.5 c 0
0 166.5 m 0
 0 197.151367188 24.8486328125 222 55.5 222 c 0
 86.1513671875 222 111 197.151367188 111 166.5 c 0
 111 135.848632812 86.1513671875 111 55.5 111 c 0
 24.8486328125 111 0 135.848632812 0 166.5 c 0
0 277.5 m 0
 0 308.151367188 24.8486328125 333 55.5 333 c 0
 86.1513671875 333 111 308.151367188 111 277.5 c 0
 111 246.848632812 86.1513671875 222 55.5 222 c 0
 24.8486328125 222 0 246.848632812 0 277.5 c 0
0 388.5 m 0
 0 419.151367188 24.8486328125 444 55.5 444 c 0
 86.1513671875 444 111 419.151367188 111 388.5 c 0
 111 357.848632812 86.1513671875 333 55.5 333 c 0
 24.8486328125 333 0 357.848632812 0 388.5 c 0
0 499.5 m 0
 0 530.151367188 24.8486328125 555 55.5 555 c 0
 86.1513671875 555 111 530.151367188 111 499.5 c 0
 111 468.848632812 86.1513671875 444 55.5 444 c 0
 24.8486328125 444 0 468.848632812 0 499.5 c 0
111 610.5 m 0
 111 641.151367188 135.848632812 666 166.5 666 c 0
 197.151367188 666 222 641.151367188 222 610.5 c 0
 222 579.848632812 197.151367188 555 166.5 555 c 0
 135.848632812 555 111 579.848632812 111 610.5 c 0
222 610.5 m 0
 222 641.151367188 246.848632812 666 277.5 666 c 0
 308.151367188 666 333 641.151367188 333 610.5 c 0
 333 579.848632812 308.151367188 555 277.5 555 c 0
 246.848632812 555 222 579.848632812 222 610.5 c 0
333 610.5 m 0
 333 641.151367188 357.848632812 666 388.5 666 c 0
 419.151367188 666 444 641.151367188 444 610.5 c 0
 444 579.848632812 419.151367188 555 388.5 555 c 0
 357.848632812 555 333 579.848632812 333 610.5 c 0
444 499.5 m 0
 444 530.151367188 468.848632812 555 499.5 555 c 0
 530.151367188 555 555 530.151367188 555 499.5 c 4
 555 468.848632812 530.151367188 444 499.5 444 c 0
 468.848632812 444 444 468.848632812 444 499.5 c 0
444 388.5 m 0
 444 419.151367188 468.848632812 444 499.5 444 c 0
 530.151367188 444 555 419.151367188 555 388.5 c 0
 555 357.848632812 530.151367188 333 499.5 333 c 0
 468.848632812 333 444 357.848632812 444 388.5 c 0
444 277.5 m 0
 444 308.151367188 468.848632812 333 499.5 333 c 0
 530.151367188 333 555 308.151367188 555 277.5 c 0
 555 246.848632812 530.151367188 222 499.5 222 c 0
 468.848632812 222 444 246.848632812 444 277.5 c 0
444 166.5 m 0
 444 197.151367188 468.848632812 222 499.5 222 c 0
 530.151367188 222 555 197.151367188 555 166.5 c 0
 555 135.848632812 530.151367188 111 499.5 111 c 0
 468.848632812 111 444 135.848632812 444 166.5 c 0
444 55.5 m 0
 444 86.1513671875 468.848632812 111 499.5 111 c 0
 530.151367188 111 555 86.1513671875 555 55.5 c 0
 555 24.8486328125 530.151367188 0 499.5 0 c 0
 468.848632812 0 444 24.8486328125 444 55.5 c 0
444 -55.5 m 0
 444 -24.8486328125 468.848632812 0 499.5 0 c 0
 530.151367188 0 555 -24.8486328125 555 -55.5 c 0
 555 -86.1513671875 530.151367188 -111 499.5 -111 c 0
 468.848632812 -111 444 -86.1513671875 444 -55.5 c 0
333 -166.5 m 0
 333 -135.848632812 357.848632812 -111 388.5 -111 c 0
 419.151367188 -111 444 -135.848632812 444 -166.5 c 0
 444 -197.151367188 419.151367188 -222 388.5 -222 c 0
 357.848632812 -222 333 -197.151367188 333 -166.5 c 0
222 -166.5 m 0
 222 -135.848632812 246.848632812 -111 277.5 -111 c 0
 308.151367188 -111 333 -135.848632812 333 -166.5 c 0
 333 -197.151367188 308.151367188 -222 277.5 -222 c 0
 246.848632812 -222 222 -197.151367188 222 -166.5 c 0
111 -166.5 m 0
 111 -135.848632812 135.848632812 -111 166.5 -111 c 0
 197.151367188 -111 222 -135.848632812 222 -166.5 c 0
 222 -197.151367188 197.151367188 -222 166.5 -222 c 0
 135.848632812 -222 111 -197.151367188 111 -166.5 c 0
EndSplineSet
Validated: 5
EndChar

StartChar: l
Encoding: 108 108 20
Width: 444
VWidth: 0
Flags: HW
LayerCount: 2
Fore
SplineSet
0 833.444335938 m 0
 0 864.126953125 24.873046875 889 55.5556640625 889 c 0
 86.23828125 889 111.111328125 864.126953125 111.111328125 833.444335938 c 0
 111.111328125 802.76171875 86.23828125 777.888671875 55.5556640625 777.888671875 c 0
 24.873046875 777.888671875 0 802.76171875 0 833.444335938 c 0
0 722.333007812 m 0
 0 753.015625 24.873046875 777.888671875 55.5556640625 777.888671875 c 0
 86.23828125 777.888671875 111.111328125 753.015625 111.111328125 722.333007812 c 0
 111.111328125 691.650390625 86.23828125 666.77734375 55.5556640625 666.77734375 c 0
 24.873046875 666.77734375 0 691.650390625 0 722.333007812 c 0
0 611.22265625 m 0
 0 641.904296875 24.873046875 666.77734375 55.5556640625 666.77734375 c 0
 86.23828125 666.77734375 111.111328125 641.904296875 111.111328125 611.22265625 c 0
 111.111328125 580.540039062 86.23828125 555.666992188 55.5556640625 555.666992188 c 0
 24.873046875 555.666992188 0 580.540039062 0 611.22265625 c 0
0 500.111328125 m 0
 0 530.793945312 24.873046875 555.666992188 55.5556640625 555.666992188 c 0
 86.23828125 555.666992188 111.111328125 530.793945312 111.111328125 500.111328125 c 0
 111.111328125 469.428710938 86.23828125 444.555664062 55.5556640625 444.555664062 c 0
 24.873046875 444.555664062 0 469.428710938 0 500.111328125 c 0
0 389 m 0
 0 419.682617188 24.873046875 444.555664062 55.5556640625 444.555664062 c 0
 86.23828125 444.555664062 111.111328125 419.682617188 111.111328125 389 c 0
 111.111328125 358.317382812 86.23828125 333.444335938 55.5556640625 333.444335938 c 0
 24.873046875 333.444335938 0 358.317382812 0 389 c 0
0 277.888671875 m 0
 0 308.571289062 24.873046875 333.444335938 55.5556640625 333.444335938 c 0
 86.23828125 333.444335938 111.111328125 308.571289062 111.111328125 277.888671875 c 0
 111.111328125 247.206054688 86.23828125 222.333007812 55.5556640625 222.333007812 c 0
 24.873046875 222.333007812 0 247.206054688 0 277.888671875 c 0
0 166.77734375 m 0
 0 197.459960938 24.873046875 222.333007812 55.5556640625 222.333007812 c 0
 86.23828125 222.333007812 111.111328125 197.459960938 111.111328125 166.77734375 c 0
 111.111328125 136.095703125 86.23828125 111.22265625 55.5556640625 111.22265625 c 0
 24.873046875 111.22265625 0 136.095703125 0 166.77734375 c 0
111.111328125 55.6669921875 m 0
 111.111328125 86.349609375 135.984375 111.22265625 166.666992188 111.22265625 c 0
 197.349609375 111.22265625 222.22265625 86.349609375 222.22265625 55.6669921875 c 0
 222.22265625 24.984375 197.349609375 0.111328125 166.666992188 0.111328125 c 0
 135.984375 0.111328125 111.111328125 24.984375 111.111328125 55.6669921875 c 0
222.22265625 55.6669921875 m 0
 222.22265625 86.349609375 247.095703125 111.22265625 277.77734375 111.22265625 c 0
 308.459960938 111.22265625 333.333007812 86.349609375 333.333007812 55.6669921875 c 0
 333.333007812 24.984375 308.459960938 0.111328125 277.77734375 0.111328125 c 4
 247.095703125 0.111328125 222.22265625 24.984375 222.22265625 55.6669921875 c 0
EndSplineSet
Validated: 5
EndChar

StartChar: ampersand
Encoding: 38 38 22
Width: 777
VWidth: 0
Flags: HW
LayerCount: 2
Fore
SplineSet
0 166.677734375 m 4
 0 197.360351562 24.873046875 222.233398438 55.5556640625 222.233398438 c 4
 86.23828125 222.233398438 111.111328125 197.360351562 111.111328125 166.677734375 c 4
 111.111328125 135.99609375 86.23828125 111.123046875 55.5556640625 111.123046875 c 4
 24.873046875 111.123046875 0 135.99609375 0 166.677734375 c 4
0 55.5673828125 m 4
 0 86.25 24.873046875 111.123046875 55.5556640625 111.123046875 c 4
 86.23828125 111.123046875 111.111328125 86.25 111.111328125 55.5673828125 c 4
 111.111328125 24.884765625 86.23828125 0.01171875 55.5556640625 0.01171875 c 4
 24.873046875 0.01171875 0 24.884765625 0 55.5673828125 c 4
111.111328125 -55.5439453125 m 4
 111.111328125 -24.861328125 135.984375 0.01171875 166.666992188 0.01171875 c 4
 197.349609375 0.01171875 222.22265625 -24.861328125 222.22265625 -55.5439453125 c 4
 222.22265625 -86.2265625 197.349609375 -111.099609375 166.666992188 -111.099609375 c 4
 135.984375 -111.099609375 111.111328125 -86.2265625 111.111328125 -55.5439453125 c 4
222.22265625 -55.5439453125 m 4
 222.22265625 -24.861328125 247.095703125 0.01171875 277.77734375 0.01171875 c 4
 308.459960938 0.01171875 333.333007812 -24.861328125 333.333007812 -55.5439453125 c 4
 333.333007812 -86.2265625 308.459960938 -111.099609375 277.77734375 -111.099609375 c 4
 247.095703125 -111.099609375 222.22265625 -86.2265625 222.22265625 -55.5439453125 c 4
333.333007812 -55.5439453125 m 4
 333.333007812 -24.861328125 358.206054688 0.01171875 388.888671875 0.01171875 c 4
 419.571289062 0.01171875 444.444335938 -24.861328125 444.444335938 -55.5439453125 c 4
 444.444335938 -86.2265625 419.571289062 -111.099609375 388.888671875 -111.099609375 c 4
 358.206054688 -111.099609375 333.333007812 -86.2265625 333.333007812 -55.5439453125 c 4
444.444335938 55.5673828125 m 4
 444.444335938 86.25 469.317382812 111.123046875 500 111.123046875 c 4
 530.682617188 111.123046875 555.555664062 86.25 555.555664062 55.5673828125 c 4
 555.555664062 24.884765625 530.682617188 0.01171875 500 0.01171875 c 4
 469.317382812 0.01171875 444.444335938 24.884765625 444.444335938 55.5673828125 c 4
555.555664062 166.677734375 m 4
 555.555664062 197.360351562 580.428710938 222.233398438 611.111328125 222.233398438 c 4
 641.793945312 222.233398438 666.666992188 197.360351562 666.666992188 166.677734375 c 4
 666.666992188 135.99609375 641.793945312 111.123046875 611.111328125 111.123046875 c 4
 580.428710938 111.123046875 555.555664062 135.99609375 555.555664062 166.677734375 c 4
555.555664062 -55.5439453125 m 4
 555.555664062 -24.861328125 580.428710938 0.01171875 611.111328125 0.01171875 c 4
 641.793945312 0.01171875 666.666992188 -24.861328125 666.666992188 -55.5439453125 c 4
 666.666992188 -86.2265625 641.793945312 -111.099609375 611.111328125 -111.099609375 c 4
 580.428710938 -111.099609375 555.555664062 -86.2265625 555.555664062 -55.5439453125 c 4
333.333007812 166.677734375 m 4
 333.333007812 197.360351562 358.206054688 222.233398438 388.888671875 222.233398438 c 4
 419.571289062 222.233398438 444.444335938 197.360351562 444.444335938 166.677734375 c 4
 444.444335938 135.99609375 419.571289062 111.123046875 388.888671875 111.123046875 c 4
 358.206054688 111.123046875 333.333007812 135.99609375 333.333007812 166.677734375 c 4
222.22265625 277.7890625 m 4
 222.22265625 308.471679688 247.095703125 333.344726562 277.77734375 333.344726562 c 4
 308.459960938 333.344726562 333.333007812 308.471679688 333.333007812 277.7890625 c 4
 333.333007812 247.106445312 308.459960938 222.233398438 277.77734375 222.233398438 c 4
 247.095703125 222.233398438 222.22265625 247.106445312 222.22265625 277.7890625 c 4
111.111328125 277.7890625 m 4
 111.111328125 308.471679688 135.984375 333.344726562 166.666992188 333.344726562 c 4
 197.349609375 333.344726562 222.22265625 308.471679688 222.22265625 277.7890625 c 4
 222.22265625 247.106445312 197.349609375 222.233398438 166.666992188 222.233398438 c 4
 135.984375 222.233398438 111.111328125 247.106445312 111.111328125 277.7890625 c 4
111.111328125 388.900390625 m 4
 111.111328125 419.583007812 135.984375 444.456054688 166.666992188 444.456054688 c 4
 197.349609375 444.456054688 222.22265625 419.583007812 222.22265625 388.900390625 c 4
 222.22265625 358.217773438 197.349609375 333.344726562 166.666992188 333.344726562 c 4
 135.984375 333.344726562 111.111328125 358.217773438 111.111328125 388.900390625 c 4
222.22265625 388.900390625 m 4
 222.22265625 419.583007812 247.095703125 444.456054688 277.77734375 444.456054688 c 4
 308.459960938 444.456054688 333.333007812 419.583007812 333.333007812 388.900390625 c 4
 333.333007812 358.217773438 308.459960938 333.344726562 277.77734375 333.344726562 c 4
 247.095703125 333.344726562 222.22265625 358.217773438 222.22265625 388.900390625 c 4
333.333007812 500.01171875 m 4
 333.333007812 530.694335938 358.206054688 555.567382812 388.888671875 555.567382812 c 4
 419.571289062 555.567382812 444.444335938 530.694335938 444.444335938 500.01171875 c 4
 444.444335938 469.329101562 419.571289062 444.456054688 388.888671875 444.456054688 c 4
 358.206054688 444.456054688 333.333007812 469.329101562 333.333007812 500.01171875 c 4
0 500.01171875 m 4
 0 530.694335938 24.873046875 555.567382812 55.5556640625 555.567382812 c 4
 86.23828125 555.567382812 111.111328125 530.694335938 111.111328125 500.01171875 c 4
 111.111328125 469.329101562 86.23828125 444.456054688 55.5556640625 444.456054688 c 4
 24.873046875 444.456054688 0 469.329101562 0 500.01171875 c 4
0 611.123046875 m 4
 0 641.8046875 24.873046875 666.677734375 55.5556640625 666.677734375 c 4
 86.23828125 666.677734375 111.111328125 641.8046875 111.111328125 611.123046875 c 4
 111.111328125 580.440429688 86.23828125 555.567382812 55.5556640625 555.567382812 c 4
 24.873046875 555.567382812 0 580.440429688 0 611.123046875 c 4
333.333007812 611.123046875 m 4
 333.333007812 641.8046875 358.206054688 666.677734375 388.888671875 666.677734375 c 4
 419.571289062 666.677734375 444.444335938 641.8046875 444.444335938 611.123046875 c 4
 444.444335938 580.440429688 419.571289062 555.567382812 388.888671875 555.567382812 c 4
 358.206054688 555.567382812 333.333007812 580.440429688 333.333007812 611.123046875 c 4
222.22265625 722.233398438 m 4
 222.22265625 752.916015625 247.095703125 777.7890625 277.77734375 777.7890625 c 4
 308.459960938 777.7890625 333.333007812 752.916015625 333.333007812 722.233398438 c 4
 333.333007812 691.55078125 308.459960938 666.677734375 277.77734375 666.677734375 c 4
 247.095703125 666.677734375 222.22265625 691.55078125 222.22265625 722.233398438 c 4
111.111328125 722.233398438 m 4
 111.111328125 752.916015625 135.984375 777.7890625 166.666992188 777.7890625 c 4
 197.349609375 777.7890625 222.22265625 752.916015625 222.22265625 722.233398438 c 4
 222.22265625 691.55078125 197.349609375 666.677734375 166.666992188 666.677734375 c 4
 135.984375 666.677734375 111.111328125 691.55078125 111.111328125 722.233398438 c 4
EndSplineSet
EndChar

StartChar: C
Encoding: 67 67 23
Width: 777
VWidth: 0
Flags: HW
LayerCount: 2
Fore
SplineSet
0 722.1328125 m 0
 0 752.815429688 24.873046875 777.688476562 55.5556640625 777.688476562 c 0
 86.23828125 777.688476562 111.111328125 752.815429688 111.111328125 722.1328125 c 0
 111.111328125 691.450195312 86.23828125 666.577148438 55.5556640625 666.577148438 c 0
 24.873046875 666.577148438 0 691.450195312 0 722.1328125 c 0
111.111328125 833.244140625 m 0
 111.111328125 863.926757812 135.984375 888.799804688 166.666992188 888.799804688 c 0
 197.349609375 888.799804688 222.22265625 863.926757812 222.22265625 833.244140625 c 0
 222.22265625 802.561523438 197.349609375 777.688476562 166.666992188 777.688476562 c 0
 135.984375 777.688476562 111.111328125 802.561523438 111.111328125 833.244140625 c 0
222.22265625 833.244140625 m 0
 222.22265625 863.926757812 247.095703125 888.799804688 277.77734375 888.799804688 c 0
 308.459960938 888.799804688 333.333007812 863.926757812 333.333007812 833.244140625 c 0
 333.333007812 802.561523438 308.459960938 777.688476562 277.77734375 777.688476562 c 0
 247.095703125 777.688476562 222.22265625 802.561523438 222.22265625 833.244140625 c 0
333.333007812 833.244140625 m 0
 333.333007812 863.926757812 358.206054688 888.799804688 388.888671875 888.799804688 c 0
 419.571289062 888.799804688 444.444335938 863.926757812 444.444335938 833.244140625 c 0
 444.444335938 802.561523438 419.571289062 777.688476562 388.888671875 777.688476562 c 0
 358.206054688 777.688476562 333.333007812 802.561523438 333.333007812 833.244140625 c 0
444.444335938 833.244140625 m 0
 444.444335938 863.926757812 469.317382812 888.799804688 500 888.799804688 c 0
 530.682617188 888.799804688 555.555664062 863.926757812 555.555664062 833.244140625 c 0
 555.555664062 802.561523438 530.682617188 777.688476562 500 777.688476562 c 0
 469.317382812 777.688476562 444.444335938 802.561523438 444.444335938 833.244140625 c 0
555.555664062 722.1328125 m 0
 555.555664062 752.815429688 580.428710938 777.688476562 611.111328125 777.688476562 c 0
 641.793945312 777.688476562 666.666992188 752.815429688 666.666992188 722.1328125 c 4
 666.666992188 691.450195312 641.793945312 666.577148438 611.111328125 666.577148438 c 0
 580.428710938 666.577148438 555.555664062 691.450195312 555.555664062 722.1328125 c 0
555.555664062 55.466796875 m 0
 555.555664062 86.1494140625 580.428710938 111.022460938 611.111328125 111.022460938 c 0
 641.793945312 111.022460938 666.666992188 86.1494140625 666.666992188 55.466796875 c 0
 666.666992188 24.7841796875 641.793945312 -0.0888671875 611.111328125 -0.0888671875 c 0
 580.428710938 -0.0888671875 555.555664062 24.7841796875 555.555664062 55.466796875 c 0
444.444335938 -55.64453125 m 0
 444.444335938 -24.9619140625 469.317382812 -0.0888671875 500 -0.0888671875 c 0
 530.682617188 -0.0888671875 555.555664062 -24.9619140625 555.555664062 -55.64453125 c 0
 555.555664062 -86.3271484375 530.682617188 -111.200195312 500 -111.200195312 c 0
 469.317382812 -111.200195312 444.444335938 -86.3271484375 444.444335938 -55.64453125 c 0
333.333007812 -55.64453125 m 0
 333.333007812 -24.9619140625 358.206054688 -0.0888671875 388.888671875 -0.0888671875 c 0
 419.571289062 -0.0888671875 444.444335938 -24.9619140625 444.444335938 -55.64453125 c 0
 444.444335938 -86.3271484375 419.571289062 -111.200195312 388.888671875 -111.200195312 c 0
 358.206054688 -111.200195312 333.333007812 -86.3271484375 333.333007812 -55.64453125 c 0
222.22265625 -55.64453125 m 0
 222.22265625 -24.9619140625 247.095703125 -0.0888671875 277.77734375 -0.0888671875 c 0
 308.459960938 -0.0888671875 333.333007812 -24.9619140625 333.333007812 -55.64453125 c 0
 333.333007812 -86.3271484375 308.459960938 -111.200195312 277.77734375 -111.200195312 c 0
 247.095703125 -111.200195312 222.22265625 -86.3271484375 222.22265625 -55.64453125 c 0
111.111328125 -55.64453125 m 0
 111.111328125 -24.9619140625 135.984375 -0.0888671875 166.666992188 -0.0888671875 c 0
 197.349609375 -0.0888671875 222.22265625 -24.9619140625 222.22265625 -55.64453125 c 0
 222.22265625 -86.3271484375 197.349609375 -111.200195312 166.666992188 -111.200195312 c 0
 135.984375 -111.200195312 111.111328125 -86.3271484375 111.111328125 -55.64453125 c 0
0 55.466796875 m 0
 0 86.1494140625 24.873046875 111.022460938 55.5556640625 111.022460938 c 0
 86.23828125 111.022460938 111.111328125 86.1494140625 111.111328125 55.466796875 c 0
 111.111328125 24.7841796875 86.23828125 -0.0888671875 55.5556640625 -0.0888671875 c 0
 24.873046875 -0.0888671875 0 24.7841796875 0 55.466796875 c 0
0 166.577148438 m 0
 0 197.259765625 24.873046875 222.1328125 55.5556640625 222.1328125 c 0
 86.23828125 222.1328125 111.111328125 197.259765625 111.111328125 166.577148438 c 0
 111.111328125 135.895507812 86.23828125 111.022460938 55.5556640625 111.022460938 c 0
 24.873046875 111.022460938 0 135.895507812 0 166.577148438 c 0
0 277.688476562 m 0
 0 308.37109375 24.873046875 333.244140625 55.5556640625 333.244140625 c 0
 86.23828125 333.244140625 111.111328125 308.37109375 111.111328125 277.688476562 c 0
 111.111328125 247.005859375 86.23828125 222.1328125 55.5556640625 222.1328125 c 0
 24.873046875 222.1328125 0 247.005859375 0 277.688476562 c 0
0 388.799804688 m 0
 0 419.482421875 24.873046875 444.35546875 55.5556640625 444.35546875 c 0
 86.23828125 444.35546875 111.111328125 419.482421875 111.111328125 388.799804688 c 0
 111.111328125 358.1171875 86.23828125 333.244140625 55.5556640625 333.244140625 c 0
 24.873046875 333.244140625 0 358.1171875 0 388.799804688 c 0
0 499.911132812 m 0
 0 530.59375 24.873046875 555.466796875 55.5556640625 555.466796875 c 0
 86.23828125 555.466796875 111.111328125 530.59375 111.111328125 499.911132812 c 0
 111.111328125 469.228515625 86.23828125 444.35546875 55.5556640625 444.35546875 c 0
 24.873046875 444.35546875 0 469.228515625 0 499.911132812 c 0
0 611.022460938 m 0
 0 641.704101562 24.873046875 666.577148438 55.5556640625 666.577148438 c 0
 86.23828125 666.577148438 111.111328125 641.704101562 111.111328125 611.022460938 c 0
 111.111328125 580.33984375 86.23828125 555.466796875 55.5556640625 555.466796875 c 0
 24.873046875 555.466796875 0 580.33984375 0 611.022460938 c 0
EndSplineSet
Validated: 5
EndChar

StartChar: b
Encoding: 98 98 24
Width: 666
VWidth: 0
Flags: HW
LayerCount: 2
Fore
SplineSet
111.111328125 55.466796875 m 0
 111.111328125 86.1494140625 135.984375 111.022460938 166.666992188 111.022460938 c 0
 197.349609375 111.022460938 222.22265625 86.1494140625 222.22265625 55.466796875 c 0
 222.22265625 24.7841796875 197.349609375 -0.0888671875 166.666992188 -0.0888671875 c 0
 135.984375 -0.0888671875 111.111328125 24.7841796875 111.111328125 55.466796875 c 0
222.22265625 55.466796875 m 0
 222.22265625 86.1494140625 247.095703125 111.022460938 277.77734375 111.022460938 c 0
 308.459960938 111.022460938 333.333007812 86.1494140625 333.333007812 55.466796875 c 0
 333.333007812 24.7841796875 308.459960938 -0.0888671875 277.77734375 -0.0888671875 c 0
 247.095703125 -0.0888671875 222.22265625 24.7841796875 222.22265625 55.466796875 c 0
333.333007812 55.466796875 m 0
 333.333007812 86.1494140625 358.206054688 111.022460938 388.888671875 111.022460938 c 0
 419.571289062 111.022460938 444.444335938 86.1494140625 444.444335938 55.466796875 c 0
 444.444335938 24.7841796875 419.571289062 -0.0888671875 388.888671875 -0.0888671875 c 0
 358.206054688 -0.0888671875 333.333007812 24.7841796875 333.333007812 55.466796875 c 0
0 55.466796875 m 0
 0 86.1494140625 24.873046875 111.022460938 55.5556640625 111.022460938 c 0
 86.23828125 111.022460938 111.111328125 86.1494140625 111.111328125 55.466796875 c 0
 111.111328125 24.7841796875 86.23828125 -0.0888671875 55.5556640625 -0.0888671875 c 0
 24.873046875 -0.0888671875 0 24.7841796875 0 55.466796875 c 0
444.444335938 166.577148438 m 0
 444.444335938 197.259765625 469.317382812 222.1328125 500 222.1328125 c 0
 530.682617188 222.1328125 555.555664062 197.259765625 555.555664062 166.577148438 c 0
 555.555664062 135.895507812 530.682617188 111.022460938 500 111.022460938 c 0
 469.317382812 111.022460938 444.444335938 135.895507812 444.444335938 166.577148438 c 0
444.444335938 277.688476562 m 0
 444.444335938 308.37109375 469.317382812 333.244140625 500 333.244140625 c 0
 530.682617188 333.244140625 555.555664062 308.37109375 555.555664062 277.688476562 c 0
 555.555664062 247.005859375 530.682617188 222.1328125 500 222.1328125 c 0
 469.317382812 222.1328125 444.444335938 247.005859375 444.444335938 277.688476562 c 0
444.444335938 388.799804688 m 0
 444.444335938 419.482421875 469.317382812 444.35546875 500 444.35546875 c 0
 530.682617188 444.35546875 555.555664062 419.482421875 555.555664062 388.799804688 c 0
 555.555664062 358.1171875 530.682617188 333.244140625 500 333.244140625 c 0
 469.317382812 333.244140625 444.444335938 358.1171875 444.444335938 388.799804688 c 0
444.444335938 499.911132812 m 0
 444.444335938 530.59375 469.317382812 555.466796875 500 555.466796875 c 0
 530.682617188 555.466796875 555.555664062 530.59375 555.555664062 499.911132812 c 0
 555.555664062 469.228515625 530.682617188 444.35546875 500 444.35546875 c 0
 469.317382812 444.35546875 444.444335938 469.228515625 444.444335938 499.911132812 c 0
0 611.022460938 m 0
 0 641.704101562 24.873046875 666.577148438 55.5556640625 666.577148438 c 0
 86.23828125 666.577148438 111.111328125 641.704101562 111.111328125 611.022460938 c 0
 111.111328125 580.33984375 86.23828125 555.466796875 55.5556640625 555.466796875 c 0
 24.873046875 555.466796875 0 580.33984375 0 611.022460938 c 0
0 722.1328125 m 0
 0 752.815429688 24.873046875 777.688476562 55.5556640625 777.688476562 c 0
 86.23828125 777.688476562 111.111328125 752.815429688 111.111328125 722.1328125 c 0
 111.111328125 691.450195312 86.23828125 666.577148438 55.5556640625 666.577148438 c 0
 24.873046875 666.577148438 0 691.450195312 0 722.1328125 c 0
0 833.244140625 m 0
 0 863.926757812 24.873046875 888.799804688 55.5556640625 888.799804688 c 0
 86.23828125 888.799804688 111.111328125 863.926757812 111.111328125 833.244140625 c 0
 111.111328125 802.561523438 86.23828125 777.688476562 55.5556640625 777.688476562 c 0
 24.873046875 777.688476562 0 802.561523438 0 833.244140625 c 0
333.333007812 611.022460938 m 0
 333.333007812 641.704101562 358.206054688 666.577148438 388.888671875 666.577148438 c 0
 419.571289062 666.577148438 444.444335938 641.704101562 444.444335938 611.022460938 c 0
 444.444335938 580.33984375 419.571289062 555.466796875 388.888671875 555.466796875 c 0
 358.206054688 555.466796875 333.333007812 580.33984375 333.333007812 611.022460938 c 0
222.22265625 611.022460938 m 0
 222.22265625 641.704101562 247.095703125 666.577148438 277.77734375 666.577148438 c 0
 308.459960938 666.577148438 333.333007812 641.704101562 333.333007812 611.022460938 c 0
 333.333007812 580.33984375 308.459960938 555.466796875 277.77734375 555.466796875 c 0
 247.095703125 555.466796875 222.22265625 580.33984375 222.22265625 611.022460938 c 0
111.111328125 611.022460938 m 0
 111.111328125 641.704101562 135.984375 666.577148438 166.666992188 666.577148438 c 0
 197.349609375 666.577148438 222.22265625 641.704101562 222.22265625 611.022460938 c 0
 222.22265625 580.33984375 197.349609375 555.466796875 166.666992188 555.466796875 c 0
 135.984375 555.466796875 111.111328125 580.33984375 111.111328125 611.022460938 c 0
0 499.911132812 m 0
 0 530.59375 24.873046875 555.466796875 55.5556640625 555.466796875 c 0
 86.23828125 555.466796875 111.111328125 530.59375 111.111328125 499.911132812 c 0
 111.111328125 469.228515625 86.23828125 444.35546875 55.5556640625 444.35546875 c 0
 24.873046875 444.35546875 0 469.228515625 0 499.911132812 c 0
0 388.799804688 m 0
 0 419.482421875 24.873046875 444.35546875 55.5556640625 444.35546875 c 0
 86.23828125 444.35546875 111.111328125 419.482421875 111.111328125 388.799804688 c 0
 111.111328125 358.1171875 86.23828125 333.244140625 55.5556640625 333.244140625 c 0
 24.873046875 333.244140625 0 358.1171875 0 388.799804688 c 0
0 277.688476562 m 0
 0 308.37109375 24.873046875 333.244140625 55.5556640625 333.244140625 c 0
 86.23828125 333.244140625 111.111328125 308.37109375 111.111328125 277.688476562 c 0
 111.111328125 247.005859375 86.23828125 222.1328125 55.5556640625 222.1328125 c 0
 24.873046875 222.1328125 0 247.005859375 0 277.688476562 c 0
0 166.577148438 m 0
 0 197.259765625 24.873046875 222.1328125 55.5556640625 222.1328125 c 0
 86.23828125 222.1328125 111.111328125 197.259765625 111.111328125 166.577148438 c 0
 111.111328125 135.895507812 86.23828125 111.022460938 55.5556640625 111.022460938 c 0
 24.873046875 111.022460938 0 135.895507812 0 166.577148438 c 0
EndSplineSet
Validated: 5
EndChar

StartChar: e
Encoding: 101 101 25
Width: 666
VWidth: 0
Flags: HW
LayerCount: 2
Fore
SplineSet
333.333007812 55.466796875 m 0
 333.333007812 86.1494140625 358.206054688 111.022460938 388.888671875 111.022460938 c 0
 419.571289062 111.022460938 444.444335938 86.1494140625 444.444335938 55.466796875 c 0
 444.444335938 24.7841796875 419.571289062 -0.0888671875 388.888671875 -0.0888671875 c 0
 358.206054688 -0.0888671875 333.333007812 24.7841796875 333.333007812 55.466796875 c 0
444.444335938 166.577148438 m 0
 444.444335938 197.259765625 469.317382812 222.1328125 500 222.1328125 c 0
 530.682617188 222.1328125 555.555664062 197.259765625 555.555664062 166.577148438 c 0
 555.555664062 135.895507812 530.682617188 111.022460938 500 111.022460938 c 0
 469.317382812 111.022460938 444.444335938 135.895507812 444.444335938 166.577148438 c 0
0 166.577148438 m 0
 0 197.259765625 24.873046875 222.1328125 55.5556640625 222.1328125 c 0
 86.23828125 222.1328125 111.111328125 197.259765625 111.111328125 166.577148438 c 0
 111.111328125 135.895507812 86.23828125 111.022460938 55.5556640625 111.022460938 c 0
 24.873046875 111.022460938 0 135.895507812 0 166.577148438 c 0
0 277.688476562 m 0
 0 308.37109375 24.873046875 333.244140625 55.5556640625 333.244140625 c 0
 86.23828125 333.244140625 111.111328125 308.37109375 111.111328125 277.688476562 c 0
 111.111328125 247.005859375 86.23828125 222.1328125 55.5556640625 222.1328125 c 0
 24.873046875 222.1328125 0 247.005859375 0 277.688476562 c 0
0 388.799804688 m 0
 0 419.482421875 24.873046875 444.35546875 55.5556640625 444.35546875 c 0
 86.23828125 444.35546875 111.111328125 419.482421875 111.111328125 388.799804688 c 0
 111.111328125 358.1171875 86.23828125 333.244140625 55.5556640625 333.244140625 c 0
 24.873046875 333.244140625 0 358.1171875 0 388.799804688 c 0
0 499.911132812 m 0
 0 530.59375 24.873046875 555.466796875 55.5556640625 555.466796875 c 0
 86.23828125 555.466796875 111.111328125 530.59375 111.111328125 499.911132812 c 0
 111.111328125 469.228515625 86.23828125 444.35546875 55.5556640625 444.35546875 c 0
 24.873046875 444.35546875 0 469.228515625 0 499.911132812 c 0
111.111328125 611.022460938 m 0
 111.111328125 641.704101562 135.984375 666.577148438 166.666992188 666.577148438 c 0
 197.349609375 666.577148438 222.22265625 641.704101562 222.22265625 611.022460938 c 0
 222.22265625 580.33984375 197.349609375 555.466796875 166.666992188 555.466796875 c 0
 135.984375 555.466796875 111.111328125 580.33984375 111.111328125 611.022460938 c 0
222.22265625 611.022460938 m 0
 222.22265625 641.704101562 247.095703125 666.577148438 277.77734375 666.577148438 c 0
 308.459960938 666.577148438 333.333007812 641.704101562 333.333007812 611.022460938 c 0
 333.333007812 580.33984375 308.459960938 555.466796875 277.77734375 555.466796875 c 0
 247.095703125 555.466796875 222.22265625 580.33984375 222.22265625 611.022460938 c 0
333.333007812 611.022460938 m 0
 333.333007812 641.704101562 358.206054688 666.577148438 388.888671875 666.577148438 c 0
 419.571289062 666.577148438 444.444335938 641.704101562 444.444335938 611.022460938 c 0
 444.444335938 580.33984375 419.571289062 555.466796875 388.888671875 555.466796875 c 0
 358.206054688 555.466796875 333.333007812 580.33984375 333.333007812 611.022460938 c 0
444.444335938 499.911132812 m 0
 444.444335938 530.59375 469.317382812 555.466796875 500 555.466796875 c 0
 530.682617188 555.466796875 555.555664062 530.59375 555.555664062 499.911132812 c 0
 555.555664062 469.228515625 530.682617188 444.35546875 500 444.35546875 c 0
 469.317382812 444.35546875 444.444335938 469.228515625 444.444335938 499.911132812 c 0
444.444335938 388.799804688 m 0
 444.444335938 419.482421875 469.317382812 444.35546875 500 444.35546875 c 0
 530.682617188 444.35546875 555.555664062 419.482421875 555.555664062 388.799804688 c 0
 555.555664062 358.1171875 530.682617188 333.244140625 500 333.244140625 c 0
 469.317382812 333.244140625 444.444335938 358.1171875 444.444335938 388.799804688 c 0
333.333007812 388.799804688 m 0
 333.333007812 419.482421875 358.206054688 444.35546875 388.888671875 444.35546875 c 0
 419.571289062 444.35546875 444.444335938 419.482421875 444.444335938 388.799804688 c 0
 444.444335938 358.1171875 419.571289062 333.244140625 388.888671875 333.244140625 c 0
 358.206054688 333.244140625 333.333007812 358.1171875 333.333007812 388.799804688 c 0
222.22265625 388.799804688 m 0
 222.22265625 419.482421875 247.095703125 444.35546875 277.77734375 444.35546875 c 0
 308.459960938 444.35546875 333.333007812 419.482421875 333.333007812 388.799804688 c 0
 333.333007812 358.1171875 308.459960938 333.244140625 277.77734375 333.244140625 c 0
 247.095703125 333.244140625 222.22265625 358.1171875 222.22265625 388.799804688 c 0
111.111328125 388.799804688 m 0
 111.111328125 419.482421875 135.984375 444.35546875 166.666992188 444.35546875 c 0
 197.349609375 444.35546875 222.22265625 419.482421875 222.22265625 388.799804688 c 0
 222.22265625 358.1171875 197.349609375 333.244140625 166.666992188 333.244140625 c 0
 135.984375 333.244140625 111.111328125 358.1171875 111.111328125 388.799804688 c 0
111.111328125 55.466796875 m 0
 111.111328125 86.1494140625 135.984375 111.022460938 166.666992188 111.022460938 c 0
 197.349609375 111.022460938 222.22265625 86.1494140625 222.22265625 55.466796875 c 0
 222.22265625 24.7841796875 197.349609375 -0.0888671875 166.666992188 -0.0888671875 c 0
 135.984375 -0.0888671875 111.111328125 24.7841796875 111.111328125 55.466796875 c 0
222.22265625 55.466796875 m 0
 222.22265625 86.1494140625 247.095703125 111.022460938 277.77734375 111.022460938 c 0
 308.459960938 111.022460938 333.333007812 86.1494140625 333.333007812 55.466796875 c 0
 333.333007812 24.7841796875 308.459960938 -0.0888671875 277.77734375 -0.0888671875 c 0
 247.095703125 -0.0888671875 222.22265625 24.7841796875 222.22265625 55.466796875 c 0
EndSplineSet
Validated: 5
EndChar

StartChar: p
Encoding: 112 112 26
Width: 666
VWidth: 0
Flags: HW
LayerCount: 2
Fore
SplineSet
0 610.5 m 0
 0 641.151367188 24.8486328125 666 55.5 666 c 0
 86.1513671875 666 111 641.151367188 111 610.5 c 0
 111 579.848632812 86.1513671875 555 55.5 555 c 0
 24.8486328125 555 0 579.848632812 0 610.5 c 0
111 610.5 m 0
 111 641.151367188 135.848632812 666 166.5 666 c 0
 197.151367188 666 222 641.151367188 222 610.5 c 0
 222 579.848632812 197.151367188 555 166.5 555 c 0
 135.848632812 555 111 579.848632812 111 610.5 c 0
222 610.5 m 0
 222 641.151367188 246.848632812 666 277.5 666 c 0
 308.151367188 666 333 641.151367188 333 610.5 c 0
 333 579.848632812 308.151367188 555 277.5 555 c 0
 246.848632812 555 222 579.848632812 222 610.5 c 0
333 610.5 m 0
 333 641.151367188 357.848632812 666 388.5 666 c 0
 419.151367188 666 444 641.151367188 444 610.5 c 0
 444 579.848632812 419.151367188 555 388.5 555 c 0
 357.848632812 555 333 579.848632812 333 610.5 c 0
444 499.5 m 0
 444 530.151367188 468.848632812 555 499.5 555 c 0
 530.151367188 555 555 530.151367188 555 499.5 c 0
 555 468.848632812 530.151367188 444 499.5 444 c 0
 468.848632812 444 444 468.848632812 444 499.5 c 0
444 388.5 m 0
 444 419.151367188 468.848632812 444 499.5 444 c 0
 530.151367188 444 555 419.151367188 555 388.5 c 0
 555 357.848632812 530.151367188 333 499.5 333 c 0
 468.848632812 333 444 357.848632812 444 388.5 c 0
444 277.5 m 0
 444 308.151367188 468.848632812 333 499.5 333 c 0
 530.151367188 333 555 308.151367188 555 277.5 c 0
 555 246.848632812 530.151367188 222 499.5 222 c 0
 468.848632812 222 444 246.848632812 444 277.5 c 0
444 166.5 m 0
 444 197.151367188 468.848632812 222 499.5 222 c 0
 530.151367188 222 555 197.151367188 555 166.5 c 0
 555 135.848632812 530.151367188 111 499.5 111 c 0
 468.848632812 111 444 135.848632812 444 166.5 c 0
333 55.5 m 0
 333 86.1513671875 357.848632812 111 388.5 111 c 0
 419.151367188 111 444 86.1513671875 444 55.5 c 0
 444 24.8486328125 419.151367188 0 388.5 0 c 0
 357.848632812 0 333 24.8486328125 333 55.5 c 0
222 55.5 m 0
 222 86.1513671875 246.848632812 111 277.5 111 c 0
 308.151367188 111 333 86.1513671875 333 55.5 c 0
 333 24.8486328125 308.151367188 0 277.5 0 c 0
 246.848632812 0 222 24.8486328125 222 55.5 c 0
111 55.5 m 0
 111 86.1513671875 135.848632812 111 166.5 111 c 0
 197.151367188 111 222 86.1513671875 222 55.5 c 0
 222 24.8486328125 197.151367188 0 166.5 0 c 0
 135.848632812 0 111 24.8486328125 111 55.5 c 0
0 55.5 m 0
 0 86.1513671875 24.8486328125 111 55.5 111 c 0
 86.1513671875 111 111 86.1513671875 111 55.5 c 0
 111 24.8486328125 86.1513671875 0 55.5 0 c 0
 24.8486328125 0 0 24.8486328125 0 55.5 c 0
0 -55.5 m 0
 0 -24.8486328125 24.8486328125 0 55.5 0 c 0
 86.1513671875 0 111 -24.8486328125 111 -55.5 c 0
 111 -86.1513671875 86.1513671875 -111 55.5 -111 c 0
 24.8486328125 -111 0 -86.1513671875 0 -55.5 c 0
0 -166.5 m 0
 0 -135.848632812 24.8486328125 -111 55.5 -111 c 0
 86.1513671875 -111 111 -135.848632812 111 -166.5 c 0
 111 -197.151367188 86.1513671875 -222 55.5 -222 c 0
 24.8486328125 -222 0 -197.151367188 0 -166.5 c 0
0 166.5 m 0
 0 197.151367188 24.8486328125 222 55.5 222 c 0
 86.1513671875 222 111 197.151367188 111 166.5 c 0
 111 135.848632812 86.1513671875 111 55.5 111 c 0
 24.8486328125 111 0 135.848632812 0 166.5 c 0
0 277.5 m 0
 0 308.151367188 24.8486328125 333 55.5 333 c 0
 86.1513671875 333 111 308.151367188 111 277.5 c 0
 111 246.848632812 86.1513671875 222 55.5 222 c 0
 24.8486328125 222 0 246.848632812 0 277.5 c 0
0 388.5 m 0
 0 419.151367188 24.8486328125 444 55.5 444 c 0
 86.1513671875 444 111 419.151367188 111 388.5 c 0
 111 357.848632812 86.1513671875 333 55.5 333 c 0
 24.8486328125 333 0 357.848632812 0 388.5 c 0
0 499.5 m 0
 0 530.151367188 24.8486328125 555 55.5 555 c 0
 86.1513671875 555 111 530.151367188 111 499.5 c 0
 111 468.848632812 86.1513671875 444 55.5 444 c 0
 24.8486328125 444 0 468.848632812 0 499.5 c 0
EndSplineSet
Validated: 5
EndChar

StartChar: s
Encoding: 115 115 27
Width: 666
VWidth: 0
Flags: HW
LayerCount: 2
Fore
SplineSet
111.111328125 611.022460938 m 0
 111.111328125 641.704101562 135.984375 666.577148438 166.666992188 666.577148438 c 0
 197.349609375 666.577148438 222.22265625 641.704101562 222.22265625 611.022460938 c 0
 222.22265625 580.33984375 197.349609375 555.466796875 166.666992188 555.466796875 c 0
 135.984375 555.466796875 111.111328125 580.33984375 111.111328125 611.022460938 c 0
222.22265625 611.022460938 m 0
 222.22265625 641.704101562 247.095703125 666.577148438 277.77734375 666.577148438 c 0
 308.459960938 666.577148438 333.333007812 641.704101562 333.333007812 611.022460938 c 0
 333.333007812 580.33984375 308.459960938 555.466796875 277.77734375 555.466796875 c 0
 247.095703125 555.466796875 222.22265625 580.33984375 222.22265625 611.022460938 c 0
333.333007812 611.022460938 m 0
 333.333007812 641.704101562 358.206054688 666.577148438 388.888671875 666.577148438 c 0
 419.571289062 666.577148438 444.444335938 641.704101562 444.444335938 611.022460938 c 0
 444.444335938 580.33984375 419.571289062 555.466796875 388.888671875 555.466796875 c 0
 358.206054688 555.466796875 333.333007812 580.33984375 333.333007812 611.022460938 c 0
0 499.911132812 m 0
 0 530.59375 24.873046875 555.466796875 55.5556640625 555.466796875 c 0
 86.23828125 555.466796875 111.111328125 530.59375 111.111328125 499.911132812 c 0
 111.111328125 469.228515625 86.23828125 444.35546875 55.5556640625 444.35546875 c 0
 24.873046875 444.35546875 0 469.228515625 0 499.911132812 c 0
111.111328125 388.799804688 m 0
 111.111328125 419.482421875 135.984375 444.35546875 166.666992188 444.35546875 c 0
 197.349609375 444.35546875 222.22265625 419.482421875 222.22265625 388.799804688 c 0
 222.22265625 358.1171875 197.349609375 333.244140625 166.666992188 333.244140625 c 0
 135.984375 333.244140625 111.111328125 358.1171875 111.111328125 388.799804688 c 0
222.22265625 388.799804688 m 0
 222.22265625 419.482421875 247.095703125 444.35546875 277.77734375 444.35546875 c 0
 308.459960938 444.35546875 333.333007812 419.482421875 333.333007812 388.799804688 c 0
 333.333007812 358.1171875 308.459960938 333.244140625 277.77734375 333.244140625 c 0
 247.095703125 333.244140625 222.22265625 358.1171875 222.22265625 388.799804688 c 0
333.333007812 388.799804688 m 0
 333.333007812 419.482421875 358.206054688 444.35546875 388.888671875 444.35546875 c 0
 419.571289062 444.35546875 444.444335938 419.482421875 444.444335938 388.799804688 c 0
 444.444335938 358.1171875 419.571289062 333.244140625 388.888671875 333.244140625 c 0
 358.206054688 333.244140625 333.333007812 358.1171875 333.333007812 388.799804688 c 0
444.444335938 277.688476562 m 0
 444.444335938 308.37109375 469.317382812 333.244140625 500 333.244140625 c 0
 530.682617188 333.244140625 555.555664062 308.37109375 555.555664062 277.688476562 c 0
 555.555664062 247.005859375 530.682617188 222.1328125 500 222.1328125 c 0
 469.317382812 222.1328125 444.444335938 247.005859375 444.444335938 277.688476562 c 0
444.444335938 166.577148438 m 0
 444.444335938 197.259765625 469.317382812 222.1328125 500 222.1328125 c 0
 530.682617188 222.1328125 555.555664062 197.259765625 555.555664062 166.577148438 c 0
 555.555664062 135.895507812 530.682617188 111.022460938 500 111.022460938 c 0
 469.317382812 111.022460938 444.444335938 135.895507812 444.444335938 166.577148438 c 0
333.333007812 55.466796875 m 0
 333.333007812 86.1494140625 358.206054688 111.022460938 388.888671875 111.022460938 c 0
 419.571289062 111.022460938 444.444335938 86.1494140625 444.444335938 55.466796875 c 0
 444.444335938 24.7841796875 419.571289062 -0.0888671875 388.888671875 -0.0888671875 c 0
 358.206054688 -0.0888671875 333.333007812 24.7841796875 333.333007812 55.466796875 c 0
222.22265625 55.466796875 m 0
 222.22265625 86.1494140625 247.095703125 111.022460938 277.77734375 111.022460938 c 0
 308.459960938 111.022460938 333.333007812 86.1494140625 333.333007812 55.466796875 c 0
 333.333007812 24.7841796875 308.459960938 -0.0888671875 277.77734375 -0.0888671875 c 0
 247.095703125 -0.0888671875 222.22265625 24.7841796875 222.22265625 55.466796875 c 0
111.111328125 55.466796875 m 0
 111.111328125 86.1494140625 135.984375 111.022460938 166.666992188 111.022460938 c 0
 197.349609375 111.022460938 222.22265625 86.1494140625 222.22265625 55.466796875 c 0
 222.22265625 24.7841796875 197.349609375 -0.0888671875 166.666992188 -0.0888671875 c 0
 135.984375 -0.0888671875 111.111328125 24.7841796875 111.111328125 55.466796875 c 0
0 166.577148438 m 0
 0 197.259765625 24.873046875 222.1328125 55.5556640625 222.1328125 c 0
 86.23828125 222.1328125 111.111328125 197.259765625 111.111328125 166.577148438 c 0
 111.111328125 135.895507812 86.23828125 111.022460938 55.5556640625 111.022460938 c 0
 24.873046875 111.022460938 0 135.895507812 0 166.577148438 c 0
EndSplineSet
Validated: 5
EndChar

StartChar: t
Encoding: 116 116 28
Width: 555
VWidth: 0
Flags: HW
LayerCount: 2
Fore
SplineSet
0 611.022460938 m 0
 0 641.704101562 24.873046875 666.577148438 55.5556640625 666.577148438 c 0
 86.23828125 666.577148438 111.111328125 641.704101562 111.111328125 611.022460938 c 4
 111.111328125 580.33984375 86.23828125 555.466796875 55.5556640625 555.466796875 c 0
 24.873046875 555.466796875 0 580.33984375 0 611.022460938 c 0
111.111328125 611.022460938 m 0
 111.111328125 641.704101562 135.984375 666.577148438 166.666992188 666.577148438 c 0
 197.349609375 666.577148438 222.22265625 641.704101562 222.22265625 611.022460938 c 0
 222.22265625 580.33984375 197.349609375 555.466796875 166.666992188 555.466796875 c 0
 135.984375 555.466796875 111.111328125 580.33984375 111.111328125 611.022460938 c 0
111.111328125 722.1328125 m 0
 111.111328125 752.815429688 135.984375 777.688476562 166.666992188 777.688476562 c 0
 197.349609375 777.688476562 222.22265625 752.815429688 222.22265625 722.1328125 c 0
 222.22265625 691.450195312 197.349609375 666.577148438 166.666992188 666.577148438 c 0
 135.984375 666.577148438 111.111328125 691.450195312 111.111328125 722.1328125 c 0
111.111328125 833.244140625 m 0
 111.111328125 863.926757812 135.984375 888.799804688 166.666992188 888.799804688 c 0
 197.349609375 888.799804688 222.22265625 863.926757812 222.22265625 833.244140625 c 0
 222.22265625 802.561523438 197.349609375 777.688476562 166.666992188 777.688476562 c 0
 135.984375 777.688476562 111.111328125 802.561523438 111.111328125 833.244140625 c 0
222.22265625 611.022460938 m 0
 222.22265625 641.704101562 247.095703125 666.577148438 277.77734375 666.577148438 c 0
 308.459960938 666.577148438 333.333007812 641.704101562 333.333007812 611.022460938 c 0
 333.333007812 580.33984375 308.459960938 555.466796875 277.77734375 555.466796875 c 0
 247.095703125 555.466796875 222.22265625 580.33984375 222.22265625 611.022460938 c 0
333.333007812 611.022460938 m 0
 333.333007812 641.704101562 358.206054688 666.577148438 388.888671875 666.577148438 c 0
 419.571289062 666.577148438 444.444335938 641.704101562 444.444335938 611.022460938 c 0
 444.444335938 580.33984375 419.571289062 555.466796875 388.888671875 555.466796875 c 0
 358.206054688 555.466796875 333.333007812 580.33984375 333.333007812 611.022460938 c 0
111.111328125 499.911132812 m 0
 111.111328125 530.59375 135.984375 555.466796875 166.666992188 555.466796875 c 0
 197.349609375 555.466796875 222.22265625 530.59375 222.22265625 499.911132812 c 0
 222.22265625 469.228515625 197.349609375 444.35546875 166.666992188 444.35546875 c 0
 135.984375 444.35546875 111.111328125 469.228515625 111.111328125 499.911132812 c 0
111.111328125 388.799804688 m 0
 111.111328125 419.482421875 135.984375 444.35546875 166.666992188 444.35546875 c 0
 197.349609375 444.35546875 222.22265625 419.482421875 222.22265625 388.799804688 c 0
 222.22265625 358.1171875 197.349609375 333.244140625 166.666992188 333.244140625 c 0
 135.984375 333.244140625 111.111328125 358.1171875 111.111328125 388.799804688 c 0
111.111328125 277.688476562 m 0
 111.111328125 308.37109375 135.984375 333.244140625 166.666992188 333.244140625 c 0
 197.349609375 333.244140625 222.22265625 308.37109375 222.22265625 277.688476562 c 0
 222.22265625 247.005859375 197.349609375 222.1328125 166.666992188 222.1328125 c 0
 135.984375 222.1328125 111.111328125 247.005859375 111.111328125 277.688476562 c 0
111.111328125 166.577148438 m 0
 111.111328125 197.259765625 135.984375 222.1328125 166.666992188 222.1328125 c 0
 197.349609375 222.1328125 222.22265625 197.259765625 222.22265625 166.577148438 c 0
 222.22265625 135.895507812 197.349609375 111.022460938 166.666992188 111.022460938 c 0
 135.984375 111.022460938 111.111328125 135.895507812 111.111328125 166.577148438 c 0
222.22265625 55.466796875 m 0
 222.22265625 86.1494140625 247.095703125 111.022460938 277.77734375 111.022460938 c 0
 308.459960938 111.022460938 333.333007812 86.1494140625 333.333007812 55.466796875 c 0
 333.333007812 24.7841796875 308.459960938 -0.0888671875 277.77734375 -0.0888671875 c 0
 247.095703125 -0.0888671875 222.22265625 24.7841796875 222.22265625 55.466796875 c 0
333.333007812 55.466796875 m 0
 333.333007812 86.1494140625 358.206054688 111.022460938 388.888671875 111.022460938 c 0
 419.571289062 111.022460938 444.444335938 86.1494140625 444.444335938 55.466796875 c 0
 444.444335938 24.7841796875 419.571289062 -0.0888671875 388.888671875 -0.0888671875 c 0
 358.206054688 -0.0888671875 333.333007812 24.7841796875 333.333007812 55.466796875 c 0
EndSplineSet
Validated: 5
EndChar

StartChar: zero
Encoding: 48 48 29
Width: 777
VWidth: 0
Flags: HW
LayerCount: 2
Fore
SplineSet
555.555664062 722.233398438 m 0
 555.555664062 752.916015625 580.428710938 777.7890625 611.111328125 777.7890625 c 0
 641.793945312 777.7890625 666.666992188 752.916015625 666.666992188 722.233398438 c 0
 666.666992188 691.55078125 641.793945312 666.677734375 611.111328125 666.677734375 c 0
 580.428710938 666.677734375 555.555664062 691.55078125 555.555664062 722.233398438 c 0
444.444335938 833.344726562 m 0
 444.444335938 864.02734375 469.317382812 888.900390625 500 888.900390625 c 0
 530.682617188 888.900390625 555.555664062 864.02734375 555.555664062 833.344726562 c 0
 555.555664062 802.662109375 530.682617188 777.7890625 500 777.7890625 c 0
 469.317382812 777.7890625 444.444335938 802.662109375 444.444335938 833.344726562 c 0
333.333007812 833.344726562 m 0
 333.333007812 864.02734375 358.206054688 888.900390625 388.888671875 888.900390625 c 0
 419.571289062 888.900390625 444.444335938 864.02734375 444.444335938 833.344726562 c 0
 444.444335938 802.662109375 419.571289062 777.7890625 388.888671875 777.7890625 c 0
 358.206054688 777.7890625 333.333007812 802.662109375 333.333007812 833.344726562 c 0
222.22265625 833.344726562 m 0
 222.22265625 864.02734375 247.095703125 888.900390625 277.77734375 888.900390625 c 0
 308.459960938 888.900390625 333.333007812 864.02734375 333.333007812 833.344726562 c 0
 333.333007812 802.662109375 308.459960938 777.7890625 277.77734375 777.7890625 c 0
 247.095703125 777.7890625 222.22265625 802.662109375 222.22265625 833.344726562 c 0
111.111328125 833.344726562 m 0
 111.111328125 864.02734375 135.984375 888.900390625 166.666992188 888.900390625 c 0
 197.349609375 888.900390625 222.22265625 864.02734375 222.22265625 833.344726562 c 0
 222.22265625 802.662109375 197.349609375 777.7890625 166.666992188 777.7890625 c 0
 135.984375 777.7890625 111.111328125 802.662109375 111.111328125 833.344726562 c 0
0 388.900390625 m 0
 0 419.583007812 24.873046875 444.456054688 55.5556640625 444.456054688 c 0
 86.23828125 444.456054688 111.111328125 419.583007812 111.111328125 388.900390625 c 0
 111.111328125 358.217773438 86.23828125 333.344726562 55.5556640625 333.344726562 c 0
 24.873046875 333.344726562 0 358.217773438 0 388.900390625 c 0
0 277.7890625 m 0
 0 308.471679688 24.873046875 333.344726562 55.5556640625 333.344726562 c 0
 86.23828125 333.344726562 111.111328125 308.471679688 111.111328125 277.7890625 c 0
 111.111328125 247.106445312 86.23828125 222.233398438 55.5556640625 222.233398438 c 0
 24.873046875 222.233398438 0 247.106445312 0 277.7890625 c 0
0 166.677734375 m 0
 0 197.360351562 24.873046875 222.233398438 55.5556640625 222.233398438 c 0
 86.23828125 222.233398438 111.111328125 197.360351562 111.111328125 166.677734375 c 0
 111.111328125 135.99609375 86.23828125 111.123046875 55.5556640625 111.123046875 c 0
 24.873046875 111.123046875 0 135.99609375 0 166.677734375 c 0
0 722.233398438 m 0
 0 752.916015625 24.873046875 777.7890625 55.5556640625 777.7890625 c 0
 86.23828125 777.7890625 111.111328125 752.916015625 111.111328125 722.233398438 c 0
 111.111328125 691.55078125 86.23828125 666.677734375 55.5556640625 666.677734375 c 0
 24.873046875 666.677734375 0 691.55078125 0 722.233398438 c 0
0 611.123046875 m 0
 0 641.8046875 24.873046875 666.677734375 55.5556640625 666.677734375 c 0
 86.23828125 666.677734375 111.111328125 641.8046875 111.111328125 611.123046875 c 0
 111.111328125 580.440429688 86.23828125 555.567382812 55.5556640625 555.567382812 c 0
 24.873046875 555.567382812 0 580.440429688 0 611.123046875 c 0
0 500.01171875 m 0
 0 530.694335938 24.873046875 555.567382812 55.5556640625 555.567382812 c 0
 86.23828125 555.567382812 111.111328125 530.694335938 111.111328125 500.01171875 c 0
 111.111328125 469.329101562 86.23828125 444.456054688 55.5556640625 444.456054688 c 0
 24.873046875 444.456054688 0 469.329101562 0 500.01171875 c 0
555.555664062 388.900390625 m 0
 555.555664062 419.583007812 580.428710938 444.456054688 611.111328125 444.456054688 c 0
 641.793945312 444.456054688 666.666992188 419.583007812 666.666992188 388.900390625 c 0
 666.666992188 358.217773438 641.793945312 333.344726562 611.111328125 333.344726562 c 0
 580.428710938 333.344726562 555.555664062 358.217773438 555.555664062 388.900390625 c 0
555.555664062 277.7890625 m 0
 555.555664062 308.471679688 580.428710938 333.344726562 611.111328125 333.344726562 c 0
 641.793945312 333.344726562 666.666992188 308.471679688 666.666992188 277.7890625 c 0
 666.666992188 247.106445312 641.793945312 222.233398438 611.111328125 222.233398438 c 0
 580.428710938 222.233398438 555.555664062 247.106445312 555.555664062 277.7890625 c 0
555.555664062 166.677734375 m 0
 555.555664062 197.360351562 580.428710938 222.233398438 611.111328125 222.233398438 c 0
 641.793945312 222.233398438 666.666992188 197.360351562 666.666992188 166.677734375 c 0
 666.666992188 135.99609375 641.793945312 111.123046875 611.111328125 111.123046875 c 0
 580.428710938 111.123046875 555.555664062 135.99609375 555.555664062 166.677734375 c 0
555.555664062 55.5673828125 m 0
 555.555664062 86.25 580.428710938 111.123046875 611.111328125 111.123046875 c 0
 641.793945312 111.123046875 666.666992188 86.25 666.666992188 55.5673828125 c 0
 666.666992188 24.884765625 641.793945312 0.01171875 611.111328125 0.01171875 c 0
 580.428710938 0.01171875 555.555664062 24.884765625 555.555664062 55.5673828125 c 0
444.444335938 -55.5439453125 m 0
 444.444335938 -24.861328125 469.317382812 0.01171875 500 0.01171875 c 0
 530.682617188 0.01171875 555.555664062 -24.861328125 555.555664062 -55.5439453125 c 0
 555.555664062 -86.2265625 530.682617188 -111.099609375 500 -111.099609375 c 0
 469.317382812 -111.099609375 444.444335938 -86.2265625 444.444335938 -55.5439453125 c 0
333.333007812 -55.5439453125 m 0
 333.333007812 -24.861328125 358.206054688 0.01171875 388.888671875 0.01171875 c 0
 419.571289062 0.01171875 444.444335938 -24.861328125 444.444335938 -55.5439453125 c 0
 444.444335938 -86.2265625 419.571289062 -111.099609375 388.888671875 -111.099609375 c 0
 358.206054688 -111.099609375 333.333007812 -86.2265625 333.333007812 -55.5439453125 c 0
222.22265625 -55.5439453125 m 0
 222.22265625 -24.861328125 247.095703125 0.01171875 277.77734375 0.01171875 c 0
 308.459960938 0.01171875 333.333007812 -24.861328125 333.333007812 -55.5439453125 c 0
 333.333007812 -86.2265625 308.459960938 -111.099609375 277.77734375 -111.099609375 c 0
 247.095703125 -111.099609375 222.22265625 -86.2265625 222.22265625 -55.5439453125 c 0
111.111328125 -55.5439453125 m 0
 111.111328125 -24.861328125 135.984375 0.01171875 166.666992188 0.01171875 c 4
 197.349609375 0.01171875 222.22265625 -24.861328125 222.22265625 -55.5439453125 c 0
 222.22265625 -86.2265625 197.349609375 -111.099609375 166.666992188 -111.099609375 c 0
 135.984375 -111.099609375 111.111328125 -86.2265625 111.111328125 -55.5439453125 c 0
0 55.5673828125 m 0
 0 86.25 24.873046875 111.123046875 55.5556640625 111.123046875 c 0
 86.23828125 111.123046875 111.111328125 86.25 111.111328125 55.5673828125 c 0
 111.111328125 24.884765625 86.23828125 0.01171875 55.5556640625 0.01171875 c 0
 24.873046875 0.01171875 0 24.884765625 0 55.5673828125 c 0
555.555664062 500.01171875 m 0
 555.555664062 530.694335938 580.428710938 555.567382812 611.111328125 555.567382812 c 0
 641.793945312 555.567382812 666.666992188 530.694335938 666.666992188 500.01171875 c 0
 666.666992188 469.329101562 641.793945312 444.456054688 611.111328125 444.456054688 c 0
 580.428710938 444.456054688 555.555664062 469.329101562 555.555664062 500.01171875 c 0
555.555664062 611.123046875 m 0
 555.555664062 641.8046875 580.428710938 666.677734375 611.111328125 666.677734375 c 0
 641.793945312 666.677734375 666.666992188 641.8046875 666.666992188 611.123046875 c 0
 666.666992188 580.440429688 641.793945312 555.567382812 611.111328125 555.567382812 c 0
 580.428710938 555.567382812 555.555664062 580.440429688 555.555664062 611.123046875 c 0
EndSplineSet
EndChar

StartChar: six
Encoding: 54 54 30
Width: 777
VWidth: 0
Flags: HW
LayerCount: 2
Fore
SplineSet
555.555664062 722.233398438 m 0
 555.555664062 752.916015625 580.428710938 777.7890625 611.111328125 777.7890625 c 0
 641.793945312 777.7890625 666.666992188 752.916015625 666.666992188 722.233398438 c 0
 666.666992188 691.55078125 641.793945312 666.677734375 611.111328125 666.677734375 c 0
 580.428710938 666.677734375 555.555664062 691.55078125 555.555664062 722.233398438 c 0
444.444335938 833.344726562 m 0
 444.444335938 864.02734375 469.317382812 888.900390625 500 888.900390625 c 0
 530.682617188 888.900390625 555.555664062 864.02734375 555.555664062 833.344726562 c 0
 555.555664062 802.662109375 530.682617188 777.7890625 500 777.7890625 c 0
 469.317382812 777.7890625 444.444335938 802.662109375 444.444335938 833.344726562 c 0
333.333007812 833.344726562 m 0
 333.333007812 864.02734375 358.206054688 888.900390625 388.888671875 888.900390625 c 0
 419.571289062 888.900390625 444.444335938 864.02734375 444.444335938 833.344726562 c 0
 444.444335938 802.662109375 419.571289062 777.7890625 388.888671875 777.7890625 c 0
 358.206054688 777.7890625 333.333007812 802.662109375 333.333007812 833.344726562 c 0
222.22265625 833.344726562 m 0
 222.22265625 864.02734375 247.095703125 888.900390625 277.77734375 888.900390625 c 0
 308.459960938 888.900390625 333.333007812 864.02734375 333.333007812 833.344726562 c 0
 333.333007812 802.662109375 308.459960938 777.7890625 277.77734375 777.7890625 c 0
 247.095703125 777.7890625 222.22265625 802.662109375 222.22265625 833.344726562 c 0
111.111328125 833.344726562 m 0
 111.111328125 864.02734375 135.984375 888.900390625 166.666992188 888.900390625 c 0
 197.349609375 888.900390625 222.22265625 864.02734375 222.22265625 833.344726562 c 0
 222.22265625 802.662109375 197.349609375 777.7890625 166.666992188 777.7890625 c 0
 135.984375 777.7890625 111.111328125 802.662109375 111.111328125 833.344726562 c 0
0 388.900390625 m 0
 0 419.583007812 24.873046875 444.456054688 55.5556640625 444.456054688 c 0
 86.23828125 444.456054688 111.111328125 419.583007812 111.111328125 388.900390625 c 0
 111.111328125 358.217773438 86.23828125 333.344726562 55.5556640625 333.344726562 c 0
 24.873046875 333.344726562 0 358.217773438 0 388.900390625 c 0
0 277.7890625 m 0
 0 308.471679688 24.873046875 333.344726562 55.5556640625 333.344726562 c 0
 86.23828125 333.344726562 111.111328125 308.471679688 111.111328125 277.7890625 c 0
 111.111328125 247.106445312 86.23828125 222.233398438 55.5556640625 222.233398438 c 0
 24.873046875 222.233398438 0 247.106445312 0 277.7890625 c 0
0 166.677734375 m 0
 0 197.360351562 24.873046875 222.233398438 55.5556640625 222.233398438 c 0
 86.23828125 222.233398438 111.111328125 197.360351562 111.111328125 166.677734375 c 0
 111.111328125 135.99609375 86.23828125 111.123046875 55.5556640625 111.123046875 c 0
 24.873046875 111.123046875 0 135.99609375 0 166.677734375 c 0
0 722.233398438 m 0
 0 752.916015625 24.873046875 777.7890625 55.5556640625 777.7890625 c 0
 86.23828125 777.7890625 111.111328125 752.916015625 111.111328125 722.233398438 c 0
 111.111328125 691.55078125 86.23828125 666.677734375 55.5556640625 666.677734375 c 0
 24.873046875 666.677734375 0 691.55078125 0 722.233398438 c 0
0 611.123046875 m 0
 0 641.8046875 24.873046875 666.677734375 55.5556640625 666.677734375 c 0
 86.23828125 666.677734375 111.111328125 641.8046875 111.111328125 611.123046875 c 0
 111.111328125 580.440429688 86.23828125 555.567382812 55.5556640625 555.567382812 c 0
 24.873046875 555.567382812 0 580.440429688 0 611.123046875 c 0
0 500.01171875 m 0
 0 530.694335938 24.873046875 555.567382812 55.5556640625 555.567382812 c 0
 86.23828125 555.567382812 111.111328125 530.694335938 111.111328125 500.01171875 c 0
 111.111328125 469.329101562 86.23828125 444.456054688 55.5556640625 444.456054688 c 0
 24.873046875 444.456054688 0 469.329101562 0 500.01171875 c 0
111.111328125 500.01171875 m 0
 111.111328125 530.694335938 135.984375 555.567382812 166.666992188 555.567382812 c 0
 197.349609375 555.567382812 222.22265625 530.694335938 222.22265625 500.01171875 c 0
 222.22265625 469.329101562 197.349609375 444.456054688 166.666992188 444.456054688 c 0
 135.984375 444.456054688 111.111328125 469.329101562 111.111328125 500.01171875 c 0
555.555664062 388.900390625 m 0
 555.555664062 419.583007812 580.428710938 444.456054688 611.111328125 444.456054688 c 0
 641.793945312 444.456054688 666.666992188 419.583007812 666.666992188 388.900390625 c 0
 666.666992188 358.217773438 641.793945312 333.344726562 611.111328125 333.344726562 c 0
 580.428710938 333.344726562 555.555664062 358.217773438 555.555664062 388.900390625 c 0
555.555664062 277.7890625 m 0
 555.555664062 308.471679688 580.428710938 333.344726562 611.111328125 333.344726562 c 0
 641.793945312 333.344726562 666.666992188 308.471679688 666.666992188 277.7890625 c 0
 666.666992188 247.106445312 641.793945312 222.233398438 611.111328125 222.233398438 c 0
 580.428710938 222.233398438 555.555664062 247.106445312 555.555664062 277.7890625 c 0
555.555664062 166.677734375 m 0
 555.555664062 197.360351562 580.428710938 222.233398438 611.111328125 222.233398438 c 0
 641.793945312 222.233398438 666.666992188 197.360351562 666.666992188 166.677734375 c 0
 666.666992188 135.99609375 641.793945312 111.123046875 611.111328125 111.123046875 c 0
 580.428710938 111.123046875 555.555664062 135.99609375 555.555664062 166.677734375 c 0
555.555664062 55.5673828125 m 0
 555.555664062 86.25 580.428710938 111.123046875 611.111328125 111.123046875 c 0
 641.793945312 111.123046875 666.666992188 86.25 666.666992188 55.5673828125 c 0
 666.666992188 24.884765625 641.793945312 0.01171875 611.111328125 0.01171875 c 0
 580.428710938 0.01171875 555.555664062 24.884765625 555.555664062 55.5673828125 c 0
444.444335938 -55.5439453125 m 0
 444.444335938 -24.861328125 469.317382812 0.01171875 500 0.01171875 c 0
 530.682617188 0.01171875 555.555664062 -24.861328125 555.555664062 -55.5439453125 c 0
 555.555664062 -86.2265625 530.682617188 -111.099609375 500 -111.099609375 c 0
 469.317382812 -111.099609375 444.444335938 -86.2265625 444.444335938 -55.5439453125 c 0
333.333007812 -55.5439453125 m 0
 333.333007812 -24.861328125 358.206054688 0.01171875 388.888671875 0.01171875 c 0
 419.571289062 0.01171875 444.444335938 -24.861328125 444.444335938 -55.5439453125 c 0
 444.444335938 -86.2265625 419.571289062 -111.099609375 388.888671875 -111.099609375 c 0
 358.206054688 -111.099609375 333.333007812 -86.2265625 333.333007812 -55.5439453125 c 0
222.22265625 -55.5439453125 m 0
 222.22265625 -24.861328125 247.095703125 0.01171875 277.77734375 0.01171875 c 0
 308.459960938 0.01171875 333.333007812 -24.861328125 333.333007812 -55.5439453125 c 0
 333.333007812 -86.2265625 308.459960938 -111.099609375 277.77734375 -111.099609375 c 0
 247.095703125 -111.099609375 222.22265625 -86.2265625 222.22265625 -55.5439453125 c 0
111.111328125 -55.5439453125 m 0
 111.111328125 -24.861328125 135.984375 0.01171875 166.666992188 0.01171875 c 0
 197.349609375 0.01171875 222.22265625 -24.861328125 222.22265625 -55.5439453125 c 0
 222.22265625 -86.2265625 197.349609375 -111.099609375 166.666992188 -111.099609375 c 0
 135.984375 -111.099609375 111.111328125 -86.2265625 111.111328125 -55.5439453125 c 0
0 55.5673828125 m 0
 0 86.25 24.873046875 111.123046875 55.5556640625 111.123046875 c 0
 86.23828125 111.123046875 111.111328125 86.25 111.111328125 55.5673828125 c 0
 111.111328125 24.884765625 86.23828125 0.01171875 55.5556640625 0.01171875 c 0
 24.873046875 0.01171875 0 24.884765625 0 55.5673828125 c 0
222.22265625 500.01171875 m 0
 222.22265625 530.694335938 247.095703125 555.567382812 277.77734375 555.567382812 c 0
 308.459960938 555.567382812 333.333007812 530.694335938 333.333007812 500.01171875 c 0
 333.333007812 469.329101562 308.459960938 444.456054688 277.77734375 444.456054688 c 0
 247.095703125 444.456054688 222.22265625 469.329101562 222.22265625 500.01171875 c 0
333.333007812 500.01171875 m 0
 333.333007812 530.694335938 358.206054688 555.567382812 388.888671875 555.567382812 c 0
 419.571289062 555.567382812 444.444335938 530.694335938 444.444335938 500.01171875 c 0
 444.444335938 469.329101562 419.571289062 444.456054688 388.888671875 444.456054688 c 0
 358.206054688 444.456054688 333.333007812 469.329101562 333.333007812 500.01171875 c 0
444.444335938 500.01171875 m 0
 444.444335938 530.694335938 469.317382812 555.567382812 500 555.567382812 c 0
 530.682617188 555.567382812 555.555664062 530.694335938 555.555664062 500.01171875 c 0
 555.555664062 469.329101562 530.682617188 444.456054688 500 444.456054688 c 0
 469.317382812 444.456054688 444.444335938 469.329101562 444.444335938 500.01171875 c 0
EndSplineSet
EndChar

StartChar: D
Encoding: 68 68 31
Width: 777
VWidth: 0
Flags: HW
LayerCount: 2
Fore
SplineSet
0 833.244140625 m 0
 0 863.926757812 24.873046875 888.799804688 55.5556640625 888.799804688 c 0
 86.23828125 888.799804688 111.111328125 863.926757812 111.111328125 833.244140625 c 0
 111.111328125 802.561523438 86.23828125 777.688476562 55.5556640625 777.688476562 c 0
 24.873046875 777.688476562 0 802.561523438 0 833.244140625 c 0
0 722.1328125 m 0
 0 752.815429688 24.873046875 777.688476562 55.5556640625 777.688476562 c 0
 86.23828125 777.688476562 111.111328125 752.815429688 111.111328125 722.1328125 c 0
 111.111328125 691.450195312 86.23828125 666.577148438 55.5556640625 666.577148438 c 0
 24.873046875 666.577148438 0 691.450195312 0 722.1328125 c 0
0 499.911132812 m 0
 0 530.59375 24.873046875 555.466796875 55.5556640625 555.466796875 c 0
 86.23828125 555.466796875 111.111328125 530.59375 111.111328125 499.911132812 c 0
 111.111328125 469.228515625 86.23828125 444.35546875 55.5556640625 444.35546875 c 0
 24.873046875 444.35546875 0 469.228515625 0 499.911132812 c 0
0 388.799804688 m 0
 0 419.482421875 24.873046875 444.35546875 55.5556640625 444.35546875 c 0
 86.23828125 444.35546875 111.111328125 419.482421875 111.111328125 388.799804688 c 0
 111.111328125 358.1171875 86.23828125 333.244140625 55.5556640625 333.244140625 c 0
 24.873046875 333.244140625 0 358.1171875 0 388.799804688 c 0
0 277.688476562 m 0
 0 308.37109375 24.873046875 333.244140625 55.5556640625 333.244140625 c 0
 86.23828125 333.244140625 111.111328125 308.37109375 111.111328125 277.688476562 c 0
 111.111328125 247.005859375 86.23828125 222.1328125 55.5556640625 222.1328125 c 0
 24.873046875 222.1328125 0 247.005859375 0 277.688476562 c 0
0 166.577148438 m 0
 0 197.259765625 24.873046875 222.1328125 55.5556640625 222.1328125 c 0
 86.23828125 222.1328125 111.111328125 197.259765625 111.111328125 166.577148438 c 0
 111.111328125 135.895507812 86.23828125 111.022460938 55.5556640625 111.022460938 c 0
 24.873046875 111.022460938 0 135.895507812 0 166.577148438 c 0
0 55.466796875 m 0
 0 86.1494140625 24.873046875 111.022460938 55.5556640625 111.022460938 c 0
 86.23828125 111.022460938 111.111328125 86.1494140625 111.111328125 55.466796875 c 0
 111.111328125 24.7841796875 86.23828125 -0.0888671875 55.5556640625 -0.0888671875 c 4
 24.873046875 -0.0888671875 0 24.7841796875 0 55.466796875 c 0
0 -55.64453125 m 0
 0 -24.9619140625 24.873046875 -0.0888671875 55.5556640625 -0.0888671875 c 0
 86.23828125 -0.0888671875 111.111328125 -24.9619140625 111.111328125 -55.64453125 c 0
 111.111328125 -86.3271484375 86.23828125 -111.200195312 55.5556640625 -111.200195312 c 0
 24.873046875 -111.200195312 0 -86.3271484375 0 -55.64453125 c 0
111.111328125 -55.64453125 m 0
 111.111328125 -24.9619140625 135.984375 -0.0888671875 166.666992188 -0.0888671875 c 0
 197.349609375 -0.0888671875 222.22265625 -24.9619140625 222.22265625 -55.64453125 c 0
 222.22265625 -86.3271484375 197.349609375 -111.200195312 166.666992188 -111.200195312 c 0
 135.984375 -111.200195312 111.111328125 -86.3271484375 111.111328125 -55.64453125 c 0
222.22265625 -55.64453125 m 0
 222.22265625 -24.9619140625 247.095703125 -0.0888671875 277.77734375 -0.0888671875 c 0
 308.459960938 -0.0888671875 333.333007812 -24.9619140625 333.333007812 -55.64453125 c 0
 333.333007812 -86.3271484375 308.459960938 -111.200195312 277.77734375 -111.200195312 c 0
 247.095703125 -111.200195312 222.22265625 -86.3271484375 222.22265625 -55.64453125 c 0
333.333007812 -55.64453125 m 0
 333.333007812 -24.9619140625 358.206054688 -0.0888671875 388.888671875 -0.0888671875 c 0
 419.571289062 -0.0888671875 444.444335938 -24.9619140625 444.444335938 -55.64453125 c 0
 444.444335938 -86.3271484375 419.571289062 -111.200195312 388.888671875 -111.200195312 c 0
 358.206054688 -111.200195312 333.333007812 -86.3271484375 333.333007812 -55.64453125 c 0
444.444335938 -55.64453125 m 0
 444.444335938 -24.9619140625 469.317382812 -0.0888671875 500 -0.0888671875 c 0
 530.682617188 -0.0888671875 555.555664062 -24.9619140625 555.555664062 -55.64453125 c 0
 555.555664062 -86.3271484375 530.682617188 -111.200195312 500 -111.200195312 c 0
 469.317382812 -111.200195312 444.444335938 -86.3271484375 444.444335938 -55.64453125 c 0
555.555664062 55.466796875 m 0
 555.555664062 86.1494140625 580.428710938 111.022460938 611.111328125 111.022460938 c 0
 641.793945312 111.022460938 666.666992188 86.1494140625 666.666992188 55.466796875 c 0
 666.666992188 24.7841796875 641.793945312 -0.0888671875 611.111328125 -0.0888671875 c 0
 580.428710938 -0.0888671875 555.555664062 24.7841796875 555.555664062 55.466796875 c 0
555.555664062 166.577148438 m 0
 555.555664062 197.259765625 580.428710938 222.1328125 611.111328125 222.1328125 c 0
 641.793945312 222.1328125 666.666992188 197.259765625 666.666992188 166.577148438 c 0
 666.666992188 135.895507812 641.793945312 111.022460938 611.111328125 111.022460938 c 0
 580.428710938 111.022460938 555.555664062 135.895507812 555.555664062 166.577148438 c 0
555.555664062 277.688476562 m 0
 555.555664062 308.37109375 580.428710938 333.244140625 611.111328125 333.244140625 c 0
 641.793945312 333.244140625 666.666992188 308.37109375 666.666992188 277.688476562 c 0
 666.666992188 247.005859375 641.793945312 222.1328125 611.111328125 222.1328125 c 0
 580.428710938 222.1328125 555.555664062 247.005859375 555.555664062 277.688476562 c 0
555.555664062 499.911132812 m 0
 555.555664062 530.59375 580.428710938 555.466796875 611.111328125 555.466796875 c 0
 641.793945312 555.466796875 666.666992188 530.59375 666.666992188 499.911132812 c 0
 666.666992188 469.228515625 641.793945312 444.35546875 611.111328125 444.35546875 c 0
 580.428710938 444.35546875 555.555664062 469.228515625 555.555664062 499.911132812 c 0
555.555664062 611.022460938 m 0
 555.555664062 641.704101562 580.428710938 666.577148438 611.111328125 666.577148438 c 0
 641.793945312 666.577148438 666.666992188 641.704101562 666.666992188 611.022460938 c 0
 666.666992188 580.33984375 641.793945312 555.466796875 611.111328125 555.466796875 c 0
 580.428710938 555.466796875 555.555664062 580.33984375 555.555664062 611.022460938 c 0
555.555664062 722.1328125 m 0
 555.555664062 752.815429688 580.428710938 777.688476562 611.111328125 777.688476562 c 0
 641.793945312 777.688476562 666.666992188 752.815429688 666.666992188 722.1328125 c 0
 666.666992188 691.450195312 641.793945312 666.577148438 611.111328125 666.577148438 c 0
 580.428710938 666.577148438 555.555664062 691.450195312 555.555664062 722.1328125 c 0
444.444335938 833.244140625 m 0
 444.444335938 863.926757812 469.317382812 888.799804688 500 888.799804688 c 0
 530.682617188 888.799804688 555.555664062 863.926757812 555.555664062 833.244140625 c 0
 555.555664062 802.561523438 530.682617188 777.688476562 500 777.688476562 c 0
 469.317382812 777.688476562 444.444335938 802.561523438 444.444335938 833.244140625 c 0
333.333007812 833.244140625 m 0
 333.333007812 863.926757812 358.206054688 888.799804688 388.888671875 888.799804688 c 0
 419.571289062 888.799804688 444.444335938 863.926757812 444.444335938 833.244140625 c 0
 444.444335938 802.561523438 419.571289062 777.688476562 388.888671875 777.688476562 c 0
 358.206054688 777.688476562 333.333007812 802.561523438 333.333007812 833.244140625 c 0
222.22265625 833.244140625 m 0
 222.22265625 863.926757812 247.095703125 888.799804688 277.77734375 888.799804688 c 0
 308.459960938 888.799804688 333.333007812 863.926757812 333.333007812 833.244140625 c 0
 333.333007812 802.561523438 308.459960938 777.688476562 277.77734375 777.688476562 c 0
 247.095703125 777.688476562 222.22265625 802.561523438 222.22265625 833.244140625 c 0
111.111328125 833.244140625 m 0
 111.111328125 863.926757812 135.984375 888.799804688 166.666992188 888.799804688 c 0
 197.349609375 888.799804688 222.22265625 863.926757812 222.22265625 833.244140625 c 0
 222.22265625 802.561523438 197.349609375 777.688476562 166.666992188 777.688476562 c 0
 135.984375 777.688476562 111.111328125 802.561523438 111.111328125 833.244140625 c 0
555.555664062 388.799804688 m 0
 555.555664062 419.482421875 580.428710938 444.35546875 611.111328125 444.35546875 c 0
 641.793945312 444.35546875 666.666992188 419.482421875 666.666992188 388.799804688 c 0
 666.666992188 358.1171875 641.793945312 333.244140625 611.111328125 333.244140625 c 0
 580.428710938 333.244140625 555.555664062 358.1171875 555.555664062 388.799804688 c 0
0 611.022460938 m 0
 0 641.704101562 24.873046875 666.577148438 55.5556640625 666.577148438 c 0
 86.23828125 666.577148438 111.111328125 641.704101562 111.111328125 611.022460938 c 0
 111.111328125 580.33984375 86.23828125 555.466796875 55.5556640625 555.466796875 c 0
 24.873046875 555.466796875 0 580.33984375 0 611.022460938 c 0
EndSplineSet
Validated: 5
EndChar

StartChar: F
Encoding: 70 70 32
Width: 777
VWidth: 0
Flags: HW
LayerCount: 2
Fore
SplineSet
111.111328125 833.244140625 m 0
 111.111328125 863.926757812 135.984375 888.799804688 166.666992188 888.799804688 c 0
 197.349609375 888.799804688 222.22265625 863.926757812 222.22265625 833.244140625 c 0
 222.22265625 802.561523438 197.349609375 777.688476562 166.666992188 777.688476562 c 0
 135.984375 777.688476562 111.111328125 802.561523438 111.111328125 833.244140625 c 0
0 833.244140625 m 0
 0 863.926757812 24.873046875 888.799804688 55.5556640625 888.799804688 c 0
 86.23828125 888.799804688 111.111328125 863.926757812 111.111328125 833.244140625 c 0
 111.111328125 802.561523438 86.23828125 777.688476562 55.5556640625 777.688476562 c 0
 24.873046875 777.688476562 0 802.561523438 0 833.244140625 c 0
0 722.1328125 m 0
 0 752.815429688 24.873046875 777.688476562 55.5556640625 777.688476562 c 0
 86.23828125 777.688476562 111.111328125 752.815429688 111.111328125 722.1328125 c 0
 111.111328125 691.450195312 86.23828125 666.577148438 55.5556640625 666.577148438 c 0
 24.873046875 666.577148438 0 691.450195312 0 722.1328125 c 0
0 611.022460938 m 0
 0 641.704101562 24.873046875 666.577148438 55.5556640625 666.577148438 c 0
 86.23828125 666.577148438 111.111328125 641.704101562 111.111328125 611.022460938 c 0
 111.111328125 580.33984375 86.23828125 555.466796875 55.5556640625 555.466796875 c 0
 24.873046875 555.466796875 0 580.33984375 0 611.022460938 c 0
0 499.911132812 m 0
 0 530.59375 24.873046875 555.466796875 55.5556640625 555.466796875 c 0
 86.23828125 555.466796875 111.111328125 530.59375 111.111328125 499.911132812 c 0
 111.111328125 469.228515625 86.23828125 444.35546875 55.5556640625 444.35546875 c 0
 24.873046875 444.35546875 0 469.228515625 0 499.911132812 c 0
0 277.688476562 m 0
 0 308.37109375 24.873046875 333.244140625 55.5556640625 333.244140625 c 0
 86.23828125 333.244140625 111.111328125 308.37109375 111.111328125 277.688476562 c 0
 111.111328125 247.005859375 86.23828125 222.1328125 55.5556640625 222.1328125 c 0
 24.873046875 222.1328125 0 247.005859375 0 277.688476562 c 0
0 166.577148438 m 0
 0 197.259765625 24.873046875 222.1328125 55.5556640625 222.1328125 c 0
 86.23828125 222.1328125 111.111328125 197.259765625 111.111328125 166.577148438 c 0
 111.111328125 135.895507812 86.23828125 111.022460938 55.5556640625 111.022460938 c 0
 24.873046875 111.022460938 0 135.895507812 0 166.577148438 c 0
0 55.466796875 m 0
 0 86.1494140625 24.873046875 111.022460938 55.5556640625 111.022460938 c 0
 86.23828125 111.022460938 111.111328125 86.1494140625 111.111328125 55.466796875 c 0
 111.111328125 24.7841796875 86.23828125 -0.0888671875 55.5556640625 -0.0888671875 c 0
 24.873046875 -0.0888671875 0 24.7841796875 0 55.466796875 c 0
222.22265625 833.244140625 m 0
 222.22265625 863.926757812 247.095703125 888.799804688 277.77734375 888.799804688 c 0
 308.459960938 888.799804688 333.333007812 863.926757812 333.333007812 833.244140625 c 0
 333.333007812 802.561523438 308.459960938 777.688476562 277.77734375 777.688476562 c 0
 247.095703125 777.688476562 222.22265625 802.561523438 222.22265625 833.244140625 c 0
333.333007812 833.244140625 m 0
 333.333007812 863.926757812 358.206054688 888.799804688 388.888671875 888.799804688 c 0
 419.571289062 888.799804688 444.444335938 863.926757812 444.444335938 833.244140625 c 0
 444.444335938 802.561523438 419.571289062 777.688476562 388.888671875 777.688476562 c 0
 358.206054688 777.688476562 333.333007812 802.561523438 333.333007812 833.244140625 c 0
444.444335938 833.244140625 m 0
 444.444335938 863.926757812 469.317382812 888.799804688 500 888.799804688 c 0
 530.682617188 888.799804688 555.555664062 863.926757812 555.555664062 833.244140625 c 0
 555.555664062 802.561523438 530.682617188 777.688476562 500 777.688476562 c 0
 469.317382812 777.688476562 444.444335938 802.561523438 444.444335938 833.244140625 c 0
555.555664062 833.244140625 m 0
 555.555664062 863.926757812 580.428710938 888.799804688 611.111328125 888.799804688 c 0
 641.793945312 888.799804688 666.666992188 863.926757812 666.666992188 833.244140625 c 0
 666.666992188 802.561523438 641.793945312 777.688476562 611.111328125 777.688476562 c 0
 580.428710938 777.688476562 555.555664062 802.561523438 555.555664062 833.244140625 c 0
111.111328125 388.799804688 m 0
 111.111328125 419.482421875 135.984375 444.35546875 166.666992188 444.35546875 c 0
 197.349609375 444.35546875 222.22265625 419.482421875 222.22265625 388.799804688 c 0
 222.22265625 358.1171875 197.349609375 333.244140625 166.666992188 333.244140625 c 0
 135.984375 333.244140625 111.111328125 358.1171875 111.111328125 388.799804688 c 0
0 388.799804688 m 0
 0 419.482421875 24.873046875 444.35546875 55.5556640625 444.35546875 c 0
 86.23828125 444.35546875 111.111328125 419.482421875 111.111328125 388.799804688 c 0
 111.111328125 358.1171875 86.23828125 333.244140625 55.5556640625 333.244140625 c 0
 24.873046875 333.244140625 0 358.1171875 0 388.799804688 c 0
222.22265625 388.799804688 m 0
 222.22265625 419.482421875 247.095703125 444.35546875 277.77734375 444.35546875 c 0
 308.459960938 444.35546875 333.333007812 419.482421875 333.333007812 388.799804688 c 0
 333.333007812 358.1171875 308.459960938 333.244140625 277.77734375 333.244140625 c 0
 247.095703125 333.244140625 222.22265625 358.1171875 222.22265625 388.799804688 c 0
333.333007812 388.799804688 m 0
 333.333007812 419.482421875 358.206054688 444.35546875 388.888671875 444.35546875 c 0
 419.571289062 444.35546875 444.444335938 419.482421875 444.444335938 388.799804688 c 0
 444.444335938 358.1171875 419.571289062 333.244140625 388.888671875 333.244140625 c 0
 358.206054688 333.244140625 333.333007812 358.1171875 333.333007812 388.799804688 c 0
444.444335938 388.799804688 m 0
 444.444335938 419.482421875 469.317382812 444.35546875 500 444.35546875 c 0
 530.682617188 444.35546875 555.555664062 419.482421875 555.555664062 388.799804688 c 0
 555.555664062 358.1171875 530.682617188 333.244140625 500 333.244140625 c 0
 469.317382812 333.244140625 444.444335938 358.1171875 444.444335938 388.799804688 c 0
555.555664062 388.799804688 m 0
 555.555664062 419.482421875 580.428710938 444.35546875 611.111328125 444.35546875 c 0
 641.793945312 444.35546875 666.666992188 419.482421875 666.666992188 388.799804688 c 0
 666.666992188 358.1171875 641.793945312 333.244140625 611.111328125 333.244140625 c 0
 580.428710938 333.244140625 555.555664062 358.1171875 555.555664062 388.799804688 c 0
0 -55.64453125 m 0
 0 -24.9619140625 24.873046875 -0.0888671875 55.5556640625 -0.0888671875 c 0
 86.23828125 -0.0888671875 111.111328125 -24.9619140625 111.111328125 -55.64453125 c 0
 111.111328125 -86.3271484375 86.23828125 -111.200195312 55.5556640625 -111.200195312 c 0
 24.873046875 -111.200195312 0 -86.3271484375 0 -55.64453125 c 0
EndSplineSet
Validated: 5
EndChar

